<?xml version="1.0" encoding="UTF-8"?>
<svg width="240px" height="324px" viewBox="0 0 240 324" version="1.1" xmlns="http://www.w3.org/2000/svg" xmlns:xlink="http://www.w3.org/1999/xlink">
    <!-- Generator: Sketch 62 (91390) - https://sketch.com -->
    <title>peep-60</title>
    <desc>Created with Sketch.</desc>
    <g id="Introduction" stroke="none" stroke-width="1" fill="none" fill-rule="evenodd">
        <g id="variations" transform="translate(-2046.000000, -1082.000000)">
            <g id="images" transform="translate(126.000000, 110.000000)">
                <g id="a-person/bust" transform="translate(1920.000000, 972.000000)">
                    <g id="body/Pointing-Up" transform="translate(31.056338, 135.052838)" fill-rule="evenodd">
                        <path d="M173.92388,6.5768407 C171.744232,0.570899413 173.381556,-7.03306145 168.888739,-12.0027523 C167.559866,-12.8107444 166.855077,-12.3612023 166.308106,-10.9523413 C165.977894,-9.09837652 165.204232,-2.7149636 167.986627,-2.7179225 C168.336697,1.26877808 168.117824,5.28443366 167.260923,9.19695029 C165.207569,8.86738431 163.710468,9.92313467 162.212457,10.7083069 C161.095517,11.2937435 159.97807,11.7287542 158.629162,11.3269386 C153.060359,10.3450051 151.473286,16.1951539 151.405681,20.9704025 C151.32392,23.3003281 151.105077,28.7315711 150.079162,30.9923852 C145.435923,21.3723538 135.684232,16.9926059 126.392472,14.8300697 C124.935993,14.4270247 123.693106,13.8762458 122.75888,12.9348916 C114.930148,9.84262544 118.691134,-0.288662231 115.089444,-6.11136282 C109.451979,-13.0335076 102.681697,-15.0252728 94.1524014,-13.8389636 C86.6897958,-13.0134294 81.6170493,-5.42996947 82.0771901,1.72825362 C82.2151479,3.1888955 81.3388099,4.72520078 80.8233169,6.22832407 C75.6721901,12.3944689 67.6569085,15.1532243 60.7630352,18.8791186 C37.7693028,30.1216861 29.8007113,38.7132869 20.8651479,62.6360266 C16.685007,71.6368016 11.6824014,80.3723319 10.020993,90.2852947 C8.06866901,101.966625 8.06254225,113.924402 8.74219014,125.720708 C7.4733169,125.873091 8.85416197,134.941287 9.96711972,138.082586 C10.3484577,139.159205 11.2621901,139.935494 12.4007113,139.91753 C14.6908521,141.031134 20.0678327,145.518315 22.4631848,145.369524 C30.2025531,144.892664 37.7254502,145.62998 45.1819041,145.248743 C53.2487897,144.836296 61.2379079,143.330785 69.3392324,143.526063 C83.4670711,143.866607 73.3522243,144.705572 87.9688338,145.369524 C97.1959465,145.795184 130.85888,140.753843 140.059796,141.576841 C147.543739,143.151823 150.958035,140.496629 149.816345,132.675189 C149.394232,129.676974 148.046345,123.009506 152.48043,122.726297 C154.577894,122.969772 156.314092,125.066578 157.885711,126.291776 C171.76557,136.629553 185.945218,129.185796 187.062613,112.191119 C189.166204,97.9372321 192.115711,94.5697879 185.703951,80.3357683 C165.418246,27.3470795 195.981063,34.5463045 175.345711,9.72701683 C173.734373,11.1305941 174.144021,7.38441018 173.92388,6.5768407 Z" id="ðŸŽ¨-Background" fill="#FFFFFF"></path>
                        <path d="M166.214894,-12.3995413 C167.321937,-13.4879953 169.081796,-13.2172556 170.161373,-12.2494826 C171.259965,-11.2667037 171.921232,-9.72173307 172.485317,-8.39001487 C175.016303,-2.40246106 174.426866,4.1534137 175.707148,10.4178364 C178.050106,11.6838247 180.165106,13.336584 181.662782,15.559989 C183.938134,18.9373667 185.017711,22.870807 183.876866,26.8735703 C183.28743,28.9448031 182.286021,30.8638638 181.571937,32.8907131 C180.809261,35.0485996 180.342359,37.2910262 180.118415,39.5695937 C179.898697,41.8056798 179.86912,44.0542356 179.9325,46.2987757 C179.966303,47.4612023 180.02757,48.6217268 180.088838,49.7818286 C180.143768,50.8218286 180.327996,51.906905 180.079341,52.9258984 L180.048697,53.043175 C180.14588,53.0281691 180.240951,53.0091476 180.336021,52.9882239 C181.151725,52.8062513 181.869824,52.5230419 182.721232,52.6350575 C183.384613,52.7217112 183.728979,53.2754489 183.447993,53.9010458 C183.325458,54.1736877 183.162782,54.401946 182.966303,54.5963883 C184.67757,67.2564822 187.667007,79.7132571 189.633908,92.3329832 C190.525458,98.058674 191.068415,103.801061 190.762077,109.598189 L190.729923,110.173119 C190.417589,115.495639 189.650269,121.36111 186.946585,126.015879 C185.683204,128.195112 183.946585,130.128756 181.842359,131.521555 C180.878768,132.159832 179.84588,132.658619 178.724049,132.908013 C172.909965,135.224412 166.762077,134.655879 161.279683,131.593625 C158.81419,130.217523 156.355035,128.613375 154.341655,126.622455 C153.363486,125.65447 152.419331,124.422298 151.840246,123.075997 C151.842359,123.378228 151.78776,123.687261 151.848697,123.985014 L151.970653,124.573896 C152.883692,128.948761 156.363803,145.117296 156.409965,146.474588 C156.435063,147.206917 150.273315,147.189383 149.604592,147.211517 L149.586021,147.2122 C139.606389,147.628387 129.620741,147.406103 119.646663,146.993643 L118.859261,146.960694 C109.186373,146.551097 98.6603873,146.000529 88.9771479,145.718165 L88.9972688,145.556294 C89.1131119,144.685906 89.6772626,140.816748 89.7401084,140.520299 L89.7424065,140.510144 C90.0168431,139.403725 90.5462324,135.962236 90.2675704,134.820521 C89.5498521,131.879857 86.3153028,132.551495 84.0395517,132.86321 L83.5601993,132.926008 C83.1918867,132.976871 82.295433,133.108504 82.303838,133.117461 C82.0620833,132.865337 82.6372749,132.150343 82.7789151,131.959128 L82.8923244,131.801638 C83.5038123,130.945544 84.0569589,130.056285 83.9965141,128.953437 C83.8494718,126.258932 80.0008099,126.411105 78.1095423,126.597727 C77.9762324,126.610831 77.9217254,126.819222 78.0753169,126.850502 L78.4483996,126.928281 C79.648272,127.185909 82.3134155,127.84265 82.2531338,128.835715 C82.2189085,129.40002 81.6182746,129.815958 81.2513028,130.171449 C80.8467254,130.563504 80.4446831,130.98557 80.146162,131.466815 C79.5715141,132.393163 79.4409507,133.642877 80.0094718,134.607269 C80.6653365,135.719543 81.8285648,135.849471 82.9935984,135.748194 L83.0595423,135.74222 C83.3159507,135.718126 83.5723357,135.693492 83.828705,135.668584 L85.3667958,135.517977 C85.7477113,135.480991 86.9715845,135.160373 87.3290493,135.381445 C87.835669,135.694877 87.2263732,137.084928 87.1120775,137.542713 L87.1060166,137.575344 C87.0078246,138.238304 86.9489873,145.184146 86.9390493,145.642924 C79.3927817,145.467715 71.8454577,143.789171 64.2994014,144.183551 C58.3044718,144.496772 52.3258099,145.038251 46.3420775,145.508506 L46.1910473,144.223359 C44.5326177,130.231156 41.9322254,111.768065 43.1802465,97.9280595 C43.2778521,96.8446779 41.5870775,96.8512297 41.4901056,97.9280595 C40.1996831,112.239433 43.024331,131.463856 44.6673592,145.637641 C42.1201056,145.831026 39.5717958,146.00687 37.0205282,146.140866 L36.3699474,146.174158 C27.6884069,146.608179 18.7278452,146.634028 10.2317958,144.642181 C9.96982394,144.580889 9.88109155,144.318815 9.93602113,144.101124 C9.85151408,144.149735 9.72475352,144.122259 9.68883803,144.003903 C8.69910734,140.740027 8.19639708,132.430182 7.74787175,128.83398 L7.71771127,128.598791 C7.25714789,125.10496 6.99306338,121.571394 6.80292254,118.056427 C6.41841549,111.024803 6.46489437,103.984725 6.98461268,96.9615546 C8.63883803,74.560537 15.226162,51.9291476 29.0515141,33.9263295 C32.3937676,29.574627 36.1986972,25.5927875 40.7641901,22.5134137 C45.2430634,19.4913159 50.267007,17.362807 55.3648944,15.634173 C58.7346127,14.4905566 62.1571479,13.5120047 65.5796831,12.5355663 C65.7092606,12.4707523 65.838838,12.4068775 65.9690415,12.3440047 L66.1648944,12.2504548 C67.3817958,11.6732571 68.5796831,11.0413198 69.826162,10.5277386 L70.1016343,10.4156566 C71.9078894,9.69088694 74.0123523,9.04942057 75.9677113,9.07153503 C79.1346127,7.47584031 81.7944718,5.06454481 81.5367254,1.19662309 C81.4310915,-0.392731115 83.9240493,-0.390617613 84.0127817,1.19662309 C84.2451761,5.41940196 81.6446831,8.41423562 78.3296831,10.4241769 L78.3455282,10.4402924 L78.3613732,10.457993 C78.8789789,11.0455468 79.4325,11.5908305 80.0303873,12.0980712 C83.6092606,15.1457425 88.1367254,17.6758168 92.6620775,19.3410458 C97.9712324,21.296036 103.276162,21.8814763 108.767007,20.3007875 C111.638134,19.4741965 114.348697,18.1997542 116.839542,16.5512219 C117.600106,16.0482082 118.328979,15.5094763 119.028275,14.9322787 C118.367007,14.0276994 117.838838,13.0533746 117.395176,12.0198716 C116.503838,9.94018474 115.766303,7.12288532 116.676866,4.92695577 C116.90081,4.38589902 117.790246,4.05196556 118.10081,4.74096751 C118.956444,6.62621213 119.313486,8.66362896 120.310669,10.5068149 C120.690951,11.2082865 121.128275,11.8740399 121.618415,12.5017503 C121.618415,12.5355663 125.362077,13.1759577 125.362077,13.1759577 C129.88743,13.1738442 134.148697,14.9132571 138.152218,17.0859382 C140.518768,18.3706133 142.844487,19.736626 145.163548,21.1046959 L149.69588,23.779402 C150.029683,23.9759577 150.403627,24.166173 150.77757,24.3692806 C150.340246,22.2090693 150.126866,20.0067992 150.270528,17.8235507 C150.488134,14.5307131 151.768415,10.9295155 155.159261,9.75630998 C156.762782,9.20045871 158.617711,9.37165245 160.174754,9.9887953 C160.893063,10.2741182 161.674754,10.6524352 162.342359,11.1575624 C162.66581,9.70347241 164.028275,8.61290489 165.397289,8.13123757 C165.840951,7.97462701 166.295176,7.87529237 166.755739,7.8266818 C166.742218,7.59335108 166.740866,7.35731507 166.744111,7.11424532 L166.747289,6.93055656 C166.768415,5.85267006 166.759965,4.77478356 166.736725,3.69901057 C166.694472,1.65948023 166.597289,-0.337780039 166.390246,-2.37096986 C166.217391,-4.05408675 165.917077,-5.71798997 165.694063,-7.39427885 L165.601733,-8.11490389 C165.413624,-9.53443559 165.098016,-11.3023214 166.214894,-12.3995413 Z M30.085669,125.229234 L29.7079097,125.004891 C28.4707503,124.27453 27.1963967,123.601042 25.6976408,123.939151 C24.2698944,124.261038 23.2570775,125.420717 22.7248944,126.727496 C22.4734859,127.34485 22.3422887,127.967488 22.2453169,128.62521 C22.1908099,128.993382 22.1540493,129.364725 22.0894014,129.731418 L22.0677754,129.844988 C22.0385047,129.990947 21.9937134,130.194356 21.9529225,130.370752 C21.5633451,130.199136 21.1710211,129.927128 20.8522183,129.765656 L20.5950966,129.636349 C19.9916989,129.335809 19.3639173,129.049813 18.7063732,128.910744 C17.282007,128.60957 15.7019366,129.045163 14.8877113,130.321719 C14.1913012,131.413113 14.205538,132.6999 14.4719597,133.923268 L14.4909507,134.008514 C14.6065141,134.516177 15.2037676,136.549155 16.0725,136.252631 C16.9173592,135.964138 17.0301761,134.8406 17.0941901,134.091997 L17.0989446,134.020554 C17.1277635,133.456057 17.0158998,132.269932 17.6548944,132.055637 C18.4532746,131.788067 19.9894014,133.010729 20.6846831,133.33029 C21.927993,133.901359 23.293838,134.070016 24.3055986,132.958737 C25.2127326,131.96248 25.2892565,130.504078 25.5240389,129.24054 L25.5846673,128.922231 C25.7092149,128.280345 25.9502031,127.254612 26.6603873,127.2806 C27.2407394,127.302157 27.8779225,127.90366 28.3562324,128.189195 C28.8841901,128.504529 29.4324296,128.767238 30.0053873,128.991269 C31.3425,129.51415 32.8291901,129.681116 34.2516549,129.526831 C35.0758099,129.437641 35.6124296,129.043895 35.9037676,128.268662 C36.0024296,128.041038 36.0776408,127.806228 36.1296127,127.563386 C36.5914437,125.827566 34.0680634,124.58842 33.1376408,126.141422 C32.0641901,126.100631 31.0648944,125.811504 30.085669,125.229234 Z M185.387218,113.621453 C184.617782,113.072365 183.572852,113.19051 182.885176,113.809132 L182.844221,113.847478 C182.65361,114.031632 182.223822,114.511128 181.945458,114.932459 L181.85831,114.864774 C181.844393,114.85381 181.830845,114.843018 181.817766,114.832417 L181.780035,114.80121 C181.211303,114.320388 180.617007,113.879723 179.885176,113.683378 C177.978275,113.170643 176.245246,114.447832 175.412641,116.085375 C175.017782,116.862087 174.848768,117.664161 174.651866,118.501742 L174.635137,118.578902 C174.555732,118.969312 174.4525,119.760615 174.110387,119.95393 C173.984683,120.024944 173.699472,119.884607 173.417218,119.721656 C172.773486,119.350103 172.195669,118.876467 171.564824,118.484834 C170.084683,117.565883 168.402782,117.186298 166.740528,117.84867 C165.094965,118.504067 163.916092,120.05094 163.888415,121.853758 C163.867923,123.182517 164.757359,125.501241 166.431232,125.339347 C166.766514,125.306799 167.198134,125.10031 167.25243,124.71375 C167.396725,123.687856 166.587993,122.427574 167.515458,121.580271 C168.412289,120.761077 169.341444,121.450079 170.153345,122.018189 L170.735053,122.426567 C171.679922,123.08306 172.653012,123.684227 173.849261,123.755911 C175.362782,123.846369 176.760106,123.010267 177.521725,121.721241 C178.210246,120.556279 178.220387,119.23851 178.758697,118.042056 C178.876373,117.780615 179.179754,117.539887 179.078768,117.419418 C179.486725,117.632036 180.012993,118.244529 180.267148,118.415934 C181.532641,119.270212 183.224472,119.263872 184.333838,118.131457 C184.77581,117.680858 185.057218,117.124584 185.384472,116.593883 C185.502782,116.401977 185.650458,116.224443 185.758415,116.027042 C185.79799,115.954606 185.862867,115.684983 185.916212,115.44467 L185.998204,115.062862 L186.006772,115.000475 C186.076947,114.422602 185.872901,113.967747 185.387218,113.621453 Z M136.644613,108.576099 C135.19088,107.81249 133.398697,108.102885 132.089049,109.028177 C130.620528,110.065695 129.899894,111.659488 129.409754,113.34395 C129.053134,114.570416 128.882218,116.261641 127.857359,117.149735 C126.664542,118.183238 124.664894,117.086118 123.405739,116.678635 C121.882289,116.185977 120.051655,115.984138 118.565176,116.713085 C117.108486,117.42766 116.406444,118.884921 116.256021,120.446165 C116.115528,121.903214 116.324261,123.822063 117.155176,125.041343 C117.236937,125.16139 117.393063,125.130533 117.444824,125.0033 C117.990951,123.658056 117.885739,122.119003 118.32919,120.726838 C118.802641,119.240834 119.912218,118.926345 121.320951,119.32622 C122.790317,119.743003 124.13588,120.523308 125.647077,120.801022 C127.258204,121.097124 128.853486,120.791934 130.123627,119.726729 C131.192218,118.830604 131.839331,117.525304 132.276655,116.224866 C132.702782,114.956975 132.772289,113.259621 133.679894,112.207097 C133.908908,111.941429 134.307993,111.6206 134.678556,111.586572 C135.22912,111.535848 135.428134,111.945022 135.872852,112.258877 C137.046021,113.086948 138.918697,113.103645 139.637007,111.647018 C139.872148,111.170001 139.988768,110.492834 139.637007,110.025962 C139.020317,109.207825 138.513908,109.214588 137.700106,109.391488 C137.674246,109.369677 137.645277,109.341508 137.612874,109.303627 L137.587923,109.273343 C137.372641,109.00049 136.954542,108.73905 136.644613,108.576099 Z M79.0663732,99.9790027 C79.0182042,98.8839969 77.7005282,97.8331632 76.6610915,98.5982513 C76.4933451,98.719989 76.3283451,98.8453198 76.1665141,98.9750888 L76.1001761,99.0467366 L76.1001761,99.0467366 C75.9068239,99.0460603 75.7264521,98.9953362 75.5354797,98.9343862 L75.2013777,98.8270635 C74.3242653,98.5488169 73.4809789,98.3246372 72.5447535,98.5299851 C70.933838,98.8837855 69.9117254,100.274048 69.3869366,101.749907 C68.8978521,103.125163 69.0584155,104.528318 68.8289789,105.938447 C68.6114683,107.275403 67.9247173,107.797356 66.6351411,107.510936 L66.5690493,107.495676 C64.0040493,106.881281 61.0815845,105.162791 58.8328521,107.518713 C56.4034859,110.063582 57.9926408,114.105445 60.6518662,115.740662 C60.7680634,115.812099 60.8965141,115.694588 60.8701056,115.57285 C60.5168662,113.928968 59.4860915,112.361171 59.8315141,110.616263 C60.0708803,109.406917 60.9108803,108.83458 62.1096127,109.027332 C64.6308803,109.433124 66.9890493,111.443065 69.5749648,109.984326 C70.8666549,109.255167 71.5784155,107.88604 71.9001761,106.483519 C72.1900352,105.221124 72.1078521,103.79768 72.6632746,102.606932 C73.2708803,101.303958 74.2942606,102.248694 75.3970775,102.426439 C76.9572887,102.678157 79.1494014,101.859598 79.0663732,99.9790027 Z M163.653097,61.0413041 C163.658134,59.9532728 161.967993,59.9520047 161.962923,61.0413041 C161.900599,74.8257816 155.454401,87.5672454 154.296444,101.214768 C154.204754,102.298995 155.895317,102.292866 155.986585,101.214768 C157.144965,87.5632297 163.590739,74.8479734 163.653097,61.0413041 Z M24.0894718,83.6052728 C23.1996127,82.5971319 21.8960915,82.9099303 20.8372183,83.4150575 C19.2467958,84.1735937 17.7248239,85.0263922 16.2658099,86.0121299 C15.9068662,86.2543374 16.1331338,86.7812337 16.555669,86.7002865 C17.6257394,86.4944313 18.6672887,86.2638481 19.7054577,85.9299147 C20.485669,85.6792532 21.2977817,85.3150967 22.1113732,85.1859616 C22.0604577,85.373218 21.9985563,85.5566701 21.925669,85.7367405 C21.7921479,86.1061808 21.6370775,86.4678012 21.5054577,86.8385096 C21.2436066,87.5765448 21.0076768,88.3251389 20.7789091,89.0744429 L20.6650352,89.4491084 C20.1894718,91.0198638 19.7274296,93.3060399 21.9220775,93.7896094 C22.7363437,93.968739 23.5433994,93.613892 24.3008696,93.3348125 L24.4568662,93.278353 L27.2198239,92.2987444 C27.5489789,92.1820791 28.1586972,92.1007092 28.4316549,91.8961221 L28.3880155,92.1060116 C28.3314634,92.384392 28.275993,92.6576595 28.156162,92.9351202 L28.0892978,93.0882294 C27.4029828,94.6448076 26.5376878,96.2021562 27.3381338,97.9227757 C28.0239085,99.396944 29.6449648,100.096514 31.2070775,99.6780399 C32.6916549,99.28049 33.7659507,97.6080751 32.9973592,96.1533511 C32.7109907,95.610959 31.8729731,95.3457105 31.3404821,95.684474 L31.1974978,95.7796408 C31.0297807,95.8892746 30.7410691,96.0771401 30.7340493,96.1119264 C30.694331,96.1222826 30.6527113,96.1326387 30.6104577,96.1429949 C30.7000352,95.8792297 30.7604577,95.4738599 30.8390493,95.2942121 L31.1282084,94.6373979 C31.6661196,93.4031567 32.1323538,92.147306 31.7219366,90.7628618 C30.5466549,86.7987757 26.5610915,89.0526153 23.6210915,90.183762 C23.6639789,90.0163726 23.7064437,89.8508853 23.7423592,89.6887796 C23.8691197,89.1148051 24.0077641,88.5440404 24.144923,87.9727408 L24.4261767,86.7936672 C24.6793318,85.7071855 24.8763908,84.4971559 24.0894718,83.6052728 Z M174.509472,79.1808658 C174.512007,79.0870262 174.396655,79.0151671 174.315739,79.0696955 C172.436092,80.3337816 171.178627,82.9731241 171.884894,85.2216798 C172.227782,86.3135155 172.957077,87.2711436 173.98088,87.8012102 C175.253834,88.4598305 176.659366,88.2091699 177.996763,87.9272789 L178.564811,87.8057804 C178.965165,87.7215987 179.360218,87.6598168 179.767711,87.7722552 C179.90757,87.8109323 180.069824,87.9328814 180.202711,87.9590888 C180.147782,88.0525057 180.089472,88.2146114 180.059894,88.2746348 L179.963031,88.469655 C179.865753,88.6673897 179.77088,88.8727033 179.711303,89.0805135 C179.511444,89.7769127 179.56088,90.5246701 179.884542,91.1745722 C180.4875,92.3851867 181.752148,93.0676368 183.068768,93.1834568 C183.853204,93.252991 185.829613,92.5658912 186.296937,93.3984 C187.224401,95.0507366 189.865458,93.9394568 189.352077,92.1097973 C189.004965,90.872764 188.020246,90.0734372 186.800176,89.7388697 C186.150106,89.5607014 185.477218,89.5847953 184.816162,89.6577112 C184.557232,89.6862857 184.299114,89.7263577 184.03986,89.7539043 L183.845176,89.7718403 C183.89588,89.7678247 183.307923,89.7536642 183.071725,89.7380243 L183.122117,89.6025409 C183.129519,89.5832689 183.136303,89.5665487 183.142289,89.5537268 C183.405106,88.9913237 183.599894,88.4310341 183.584049,87.8026896 C183.555106,86.6696407 182.822007,85.6811554 181.858838,85.1356603 C180.97088,84.6324352 179.913486,84.4316524 178.904049,84.5438795 C177.794472,84.667308 176.21757,85.5465252 175.126373,85.0832454 C174.304331,84.7340947 174.025246,83.5165057 174.01257,82.7186583 C173.993556,81.5169205 174.476092,80.3779538 174.509472,79.1808658 Z M97.9507394,71.2989793 C94.9266549,69.941265 92.3297535,72.2602004 90.5551056,74.4789558 C90.4636268,74.5935076 90.5787676,74.7862591 90.7230634,74.6970693 L90.95876,74.5500378 C92.4076976,73.640973 94.0143067,72.5668514 95.8097535,72.8764978 C97.4354241,73.1568525 97.8379673,74.2209226 97.5144265,75.6709988 L97.419395,76.0788148 C97.0755957,77.5721363 96.8119618,79.1175512 97.6682746,80.5062434 C98.4767958,81.8174607 100.054331,82.3904313 101.531725,82.4255155 C103.235962,82.4658779 104.706932,81.6729378 106.265141,81.1198267 L106.388345,81.0766779 C107.050035,80.8482082 109.46419,80.2509323 109.49757,81.6111828 C109.513204,82.232764 108.847711,82.963402 108.591866,83.5222121 C108.257007,84.2534841 108.03412,85.0215311 108.038134,85.8335389 C108.048063,87.8584861 109.736937,89.5032141 111.735317,88.5208579 C112.512148,88.1387366 112.71243,87.0428853 112.307218,86.3386661 C111.736634,85.3460989 111.505584,85.3977005 111.905436,84.3554404 L112.020848,84.0620653 C112.51277,82.8060602 112.90461,81.5130343 112.351796,80.1949245 C111.247711,77.5621339 107.937148,77.2432063 105.572007,78.1150262 L105.48561,78.1477523 C104.013471,78.7182887 99.6046183,81.0041551 99.9085563,77.771582 C100.028134,76.4981965 100.414331,75.2770145 100.144331,73.9896798 C99.8933451,72.7942826 99.0594718,71.7967092 97.9507394,71.2989793 Z M83.3789789,60.4865096 C82.8269366,59.5140869 80.9736972,59.8619695 81.1272887,61.0964665 L81.176461,61.4806973 C81.2392839,62.0066093 81.2530679,62.5006983 80.8898239,62.9683961 C80.4491197,63.536083 79.6946831,63.7076994 79.0099648,63.6208344 C77.5602465,63.437171 76.6357394,62.0925605 75.0402465,62.406627 C73.7451761,62.6615155 72.8508803,63.7216485 72.3330634,64.8775233 C71.7848239,66.1016642 71.7964437,67.4287327 71.3880634,68.6892258 C70.9177817,70.1388775 69.9148944,70.0720908 68.6625,69.5648501 L68.3929392,69.4540267 C67.194833,68.9557389 65.992726,68.402104 64.6577113,68.6401926 C62.4404577,69.0360517 60.5310211,72.4466114 62.6084155,74.0934528 C62.9834155,74.3906114 63.6387676,74.2354802 63.6229225,73.6732885 L63.6208507,73.5667552 C63.6103261,72.5436994 63.8683403,71.22352 65.0403169,70.9823765 C66.2832042,70.7266427 67.6875,71.861171 68.8416549,72.1879186 C71.8308803,73.0337425 73.5336972,70.7830732 74.0413732,68.1211162 L74.0599167,68.0191263 C74.2220135,67.0873299 74.3500352,65.3632293 75.3241901,64.9269793 C75.8436972,64.6942826 76.3978521,65.2668305 76.832007,65.4974137 C77.5065845,65.8554411 78.2303873,66.082854 78.9934859,66.1409753 C81.8164437,66.3563413 85.0241197,63.3862356 83.3789789,60.4865096 Z M154.021373,56.8096485 C153.091162,56.4066035 151.703979,56.6308462 151.476655,57.845265 L151.338844,58.6094705 C151.068565,60.0855415 150.638208,61.9311365 149.187782,62.4628462 C148.280599,62.7953002 147.238838,62.2126074 146.425246,61.8573276 C145.448134,61.4301886 144.495528,61.0639186 143.425458,60.9624705 C141.254261,60.7566153 139.637007,62.0133041 138.869049,63.977171 L138.802061,64.152074 C138.182678,65.8022098 137.345566,68.9582126 138.701725,70.2967562 C138.899683,70.4922552 139.298768,70.5875742 139.541725,70.4051789 C140.342987,69.8037405 140.545767,68.8153444 140.820842,67.8884502 L140.844613,67.8091632 C141.136585,66.8464626 141.375951,65.7863295 141.903063,64.9189479 C142.882923,63.3069793 145.439472,65.147629 146.669261,65.5726544 C148.688768,66.2707444 150.783063,65.8628384 152.326373,64.3696485 C153.301162,63.4263922 153.8775,62.2324744 154.273838,60.968811 C154.526937,61.0996368 154.789542,61.2129205 155.07243,61.2894294 C156.149894,61.5813041 157.428063,61.4274411 158.248415,60.6107836 C159.788134,59.0782826 158.952993,56.3292493 156.605387,56.773719 C156.143134,56.861218 155.839754,57.3029401 155.784824,57.754173 L155.753345,57.825398 L155.753345,57.825398 C155.162641,57.6301104 154.516796,57.0241691 154.021373,56.8096485 Z M45.2363028,43.1175311 C43.0429225,40.8600986 39.2365141,42.0838168 37.7363028,44.4784157 C37.4251056,44.9748775 37.9391197,45.6042787 38.4854577,45.4533746 C39.7913028,45.093445 41.6339789,43.6765526 43.0139789,44.5783843 C44.0369366,45.2468853 43.4804577,46.9941182 43.3868662,47.9716133 L43.3733817,48.1173758 C43.2549689,49.4479868 43.2281212,51.2685798 44.2640493,52.2645605 C44.8604217,52.8378971 45.7749247,52.7604372 46.5613136,52.6785104 L46.8113028,52.6525996 C47.7383451,52.5593941 48.6592606,52.395809 49.5472183,52.1104861 C50.3635563,51.8484768 51.1370508,51.4922827 51.9040924,51.1150464 L52.0957394,51.0203413 C52.4352465,50.8518951 53.5674296,50.1838168 53.9065141,50.6035585 C54.0833451,50.8225174 53.6451761,51.781625 53.5541197,51.9955115 C53.2101761,52.7999108 52.7728521,53.5573902 52.4574296,54.3761613 C51.9015845,55.818627 51.8551056,57.4460243 52.6357394,58.8225487 C53.3920775,60.1563804 55.0308803,61.2370145 56.4833451,60.2123883 C57.3148944,59.6256798 57.3125704,58.5583609 56.4833451,57.9712297 C56.0445423,57.6605448 55.6021479,57.4557464 55.4208803,56.9345566 C55.1842606,56.2549693 55.4887304,55.53416 55.7835018,54.9050364 L56.1363475,54.1567626 C56.9180737,52.4856723 57.6990276,50.5636783 56.6069366,48.8554802 C55.4791901,47.091762 53.1871479,47.0638638 51.4532746,47.7985174 C50.4636972,48.2178364 49.5607394,48.7802395 48.5295423,49.1046622 C47.8160915,49.3293276 47.0998944,49.4793863 46.3691197,49.5616016 C46.2062324,48.6819616 46.4367254,47.6972806 46.4390493,46.8233472 C46.4428521,45.495856 46.195669,44.1049597 45.2363028,43.1175311 Z M158.340951,11.7155272 C154.639542,11.1723569 152.847993,14.484216 152.592359,17.673492 C152.362077,20.568991 152.831092,23.472944 153.56419,26.2883413 C153.838838,27.3322004 154.147289,28.3635898 154.470528,29.3780712 C154.990246,31.0077933 155.554331,32.6349793 156.240951,34.2031984 C156.450106,34.6766231 156.661373,35.1521613 156.897993,35.6086779 C157.708492,36.2734706 158.402009,37.169002 159.03251,38.0296153 L159.446741,38.598126 L159.446741,38.598126 L159.557852,38.7514568 C160.628979,40.2182278 161.543768,41.7399499 162.291655,43.3948227 C163.003929,44.970892 163.534158,46.6140567 163.946217,48.2914537 L164.047544,48.7102121 C164.364528,50.0009911 164.831884,51.5417689 164.267007,52.7430575 C165.376162,53.0852337 166.478979,53.3959186 167.657852,53.5607718 C169.284613,53.7890301 170.976866,53.8038247 172.618415,53.7446466 C174.204507,53.6865252 175.788823,53.5626945 177.36811,53.3943176 L178.505896,53.2690145 C178.623815,53.2556055 178.741655,53.2417033 178.859261,53.2268384 C178.814894,53.1718873 178.776866,53.1105957 178.749401,53.043175 C178.343994,52.0708353 178.396307,50.9434386 178.351309,49.8976764 L178.34588,49.7818286 C178.286725,48.6217268 178.25081,47.4612023 178.236021,46.2987757 C178.208556,44.1176407 178.267711,41.9301652 178.506444,39.7595977 C178.713275,37.8597699 179.036725,35.9595194 179.541655,34.1144313 C180.05081,32.2439812 180.828275,30.4876603 181.546585,28.6911828 C182.256444,26.9158403 182.841866,25.0920986 182.778275,23.1559186 C182.738134,21.9258599 182.467711,20.7296172 182.009261,19.5988932 C181.987923,19.6158012 181.96088,19.6284822 181.928979,19.6263687 C180.490246,19.5735311 179.12757,19.157171 177.73743,18.8063295 C176.262782,18.4324509 174.752218,18.1257816 173.243768,17.9440204 L172.923153,17.9064489 C171.665903,17.7652354 170.296307,17.6964624 169.134613,18.2356838 C167.87757,18.8213354 167.085317,20.1232532 166.607852,21.3721221 L166.554624,21.5160758 C165.706328,23.8838893 165.900824,27.0443836 168.524049,28.1649205 C169.33743,28.5136485 171.194472,28.7271123 171.612782,27.6238638 C171.80081,27.1208501 171.41419,26.3771084 171.268415,25.9015703 C171.097289,25.3349401 170.985317,24.7769753 170.997993,24.1851945 C171.008246,23.6662052 171.404603,23.2746404 171.9089,23.2327317 L171.955035,23.2298912 C172.871937,23.189946 174.762782,22.1331945 174.946585,23.6547053 C174.9825,23.9505957 174.756444,24.2612806 174.517711,24.4052102 C174.036021,24.6903217 173.533204,24.8807483 173.009261,24.9967796 C173.081092,25.3138051 173.1825,25.62449 173.282007,25.9330614 C173.340951,25.9034724 173.406444,25.8846622 173.476162,25.8781104 C174.251514,25.8147053 175.018415,25.9374998 175.793768,25.9457425 L176.217595,25.9486997 C176.819346,25.9546702 177.344002,25.9869949 177.92757,26.2986975 C178.466303,26.5861339 178.371232,27.3068384 177.92757,27.6154098 C176.763486,28.4227679 174.792359,27.9493432 173.579683,27.1293041 C173.6325,27.5456642 173.607148,27.9704783 173.429683,28.4164274 C172.905739,29.7396916 171.403627,30.3988932 170.060176,30.4559577 C168.866303,30.5066818 167.725458,30.1304783 166.772641,29.4710654 C166.578275,30.1664078 166.265599,30.8342748 166.130387,31.5551906 C165.952923,32.5018286 166.16419,33.6093041 165.834824,34.4990888 C165.505035,35.3954254 164.231092,35.9954489 163.493768,35.1162317 C162.41419,33.8312219 162.750106,31.7959186 163.698697,30.4940008 C164.203627,29.8049988 165.120528,29.0145487 166.054331,28.8898521 C165.405739,28.2792611 164.886021,27.5245292 164.558556,26.691809 C164.535317,26.7023765 164.507852,26.70449 164.478275,26.696036 C161.442359,25.8656407 159.790246,23.1136485 159.688838,20.22449 C159.464894,20.3851162 159.232711,20.5290458 158.989542,20.6577581 C158.408556,20.9707679 157.662782,20.6958012 157.483204,20.0469558 C157.318415,19.4424939 157.797993,18.6966387 158.471937,18.7471515 C158.856444,18.778854 159.243063,18.7809675 159.625458,18.7175624 C159.678275,18.7091084 159.728979,18.6987523 159.781796,18.6879734 C159.815599,18.4660556 159.859965,18.2441378 159.914894,18.0243335 C158.767711,18.1553706 157.567711,17.9672689 156.458556,17.7221025 C155.503627,17.5128658 155.725458,15.9932571 156.686725,16.0291867 L156.841153,16.0359312 C158.1024,16.0965144 159.964365,16.3002223 161.045176,15.500811 C161.235317,15.2260556 161.446585,14.9660947 161.674754,14.7209284 C161.704331,14.6596368 161.729683,14.5943295 161.752923,14.5264861 C162.333908,12.8525918 159.581092,11.8972885 158.340951,11.7155272 Z M125.114472,35.2639656 C123.673415,34.8784626 122.156937,35.4036681 121.16588,36.4921221 C120.333095,37.4070341 119.901819,38.5305567 119.51631,39.6790444 L119.296311,40.3397985 C118.975884,41.2752527 118.607931,42.0175453 117.462993,41.6609049 C115.995528,41.2037542 114.723486,40.4073863 113.127782,40.4701573 C111.677218,40.5274333 110.257711,41.1515507 109.247852,42.1977346 C108.214918,43.2677335 107.721702,44.7587147 107.940999,46.2276805 L107.955317,46.3175859 C108.069613,46.9943295 109.058979,49.4096407 110.107711,48.2977268 C110.575669,47.801899 110.483345,47.2530223 110.594472,46.6229871 C110.700106,46.0227523 110.926162,45.4341417 111.296514,44.947402 C111.953134,44.0846701 113.009261,43.7484117 114.041725,44.0536016 C115.403556,44.4562239 116.606303,45.2861965 118.073345,45.3056407 C119.616655,45.326353 120.926937,44.5257581 121.778134,43.2688579 C122.465387,42.2541652 122.710458,41.0665879 123.194049,39.9633393 L123.240609,39.8580999 C123.646635,38.9502888 123.923419,38.6225708 124.85345,39.0566247 L125.178371,39.212521 C126.570718,39.8744057 128.137042,40.4801883 129.576655,39.5469793 C130.91419,38.6802317 131.484401,36.9382826 130.359401,35.6699695 C129.738697,34.9697659 128.301866,35.0889675 127.898556,35.9872063 C127.827782,36.1417033 127.762077,36.2983139 127.69743,36.4553472 C127.574261,36.4177268 127.454472,36.3720751 127.34081,36.3082474 C126.586162,35.9679734 125.93081,35.4825018 125.114472,35.2639656 Z M83.0470775,25.0092493 C81.4033289,24.1231315 80.0310404,25.8660907 80.2936187,27.4399061 L80.3063341,27.5089108 C80.316027,27.5563374 80.3382394,27.6600751 80.3658803,27.7787836 C80.282007,27.7686387 80.1989789,27.7538442 80.116162,27.7327092 L79.7342636,27.6859909 C79.1339869,27.6161881 78.5519825,27.5799029 77.9510915,27.7726544 C76.5328521,28.2279029 75.8354577,29.6069636 75.8012324,31.020263 C75.7672183,32.4287014 76.495669,33.5647092 76.7096831,34.9101652 C76.9286332,36.2861269 75.5049676,35.8932334 74.5755458,35.7925656 L74.5391197,35.7887483 C73.246162,35.6579225 71.8868662,35.6555977 70.8123592,36.498674 C69.7025704,37.3692258 69.2109507,38.8736172 69.3677113,40.2509871 C69.5092606,41.4949949 70.2873592,43.4096172 71.6969366,43.606173 C71.836162,43.6256172 71.9946127,43.5949714 72.0660211,43.4559029 C72.6360211,42.3471593 71.8429225,41.122807 71.9325,39.9529832 C72.031162,38.6664939 72.8510915,38.4523961 73.9815845,38.5356681 C75.0786972,38.6164039 76.1730634,38.8493119 77.2566549,38.5219303 C78.4321479,38.1664391 79.2852465,37.1574528 79.5265141,35.967128 C79.7925,34.6552767 79.3036268,33.4347288 78.9865141,32.1879734 C78.8810915,31.7739382 78.829331,31.3573667 78.902007,30.9340321 C78.9176408,30.8425174 78.9970775,30.7579773 79.0258099,30.7218364 C79.2062324,30.6880204 79.4762324,30.7744626 79.630669,30.7909479 L79.849761,30.8125639 C81.0402412,30.9201603 82.1871167,30.8480003 83.0377817,29.8639656 C83.4737475,29.3597592 83.6346881,28.7435346 83.5912612,28.093178 L83.5693603,27.8304849 C83.5461202,27.5778964 83.501608,27.24449 83.3703169,27.1054215 L83.3686268,27.0986583 L83.3686268,27.0986583 C83.4126761,27.0395331 83.4544674,26.9787434 83.4927531,26.9156653 L83.5298239,26.8518012 C83.8944718,26.2437464 83.682993,25.3520595 83.0470775,25.0092493 Z M167.26088,9.58300274 C165.623556,9.58300274 164.076866,10.117719 162.838838,11.5739225 C163.280387,11.9945096 163.633204,12.4827288 163.827782,13.0554881 C164.433908,12.7236681 165.076162,12.4639186 165.733204,12.2798325 C167.738134,11.7197542 170.480387,11.7282082 172.166303,13.1040986 C173.049401,13.8226896 172.079683,15.1119264 171.128979,14.8900086 C170.27757,14.6913393 169.538134,14.3235898 168.644472,14.2813198 C167.86912,14.2432767 167.108556,14.3447249 166.364894,14.5687562 C165.230387,14.911355 164.199401,15.559989 163.440951,16.4540008 C163.18743,16.7541182 162.965599,17.0795977 162.779683,17.4306505 C161.36419,20.1188149 162.431092,23.9738442 164.385317,26.1866818 C163.618415,23.6377973 164.383204,20.6323961 165.910669,18.521218 C167.749616,15.9791334 170.500109,15.6909584 173.397697,16.0877197 L173.493275,16.1010458 C176.296585,16.4964822 179.767711,17.1873863 181.863486,19.2480517 C181.654331,18.7725135 181.413486,18.3117699 181.142852,17.8658207 C179.554331,15.2493041 176.919824,13.2076603 174.186021,11.7514568 C173.72757,11.5041769 173.264894,11.2759186 172.804331,11.0645683 C171.052923,10.2593237 169.10081,9.58300274 167.26088,9.58300274 Z M168.156444,-10.385373 L168.150027,-10.3556274 C168.148697,-10.3501479 168.147289,-10.3445119 168.14588,-10.3388759 C168.049081,-9.47944878 168.277604,-8.49292325 168.394128,-7.62561811 L168.409965,-7.50255499 C168.655035,-5.52854325 168.978275,-3.552418 169.083908,-1.56361174 C169.186757,0.348916278 169.147158,2.33269642 168.917335,4.23699631 L168.883204,4.50848219 C168.747993,5.54621213 168.667711,6.76358982 168.317218,7.8287953 C169.664894,7.95771898 171.012782,8.39098708 172.238134,8.85194207 C172.67757,9.01869746 173.114894,9.1941182 173.550106,9.38031781 C173.005035,6.48249393 172.713486,3.54261135 172.121937,0.653452838 L172.005523,0.0784735811 C171.362465,-3.11754427 170.758822,-6.33414676 169.096585,-9.19335734 C168.874754,-9.57378787 168.636021,-9.89292681 168.365599,-10.2332008 C168.306444,-10.311189 168.236725,-10.3619131 168.156444,-10.385373 Z" id="ðŸ–-Ink" fill="#000000"></path>
                    </g>
                    <g id="head/Bun-2" transform="translate(78.591549, 38.043053)" fill-rule="evenodd">
                        <path d="M83.9792324,51.518029 C83.4772606,45.0202755 84.2551479,38.2097237 81.7507817,32.0336454 C77.3843028,21.7863264 65.1400775,18.3696376 55.6476127,14.4683225 C51.8447611,13.3442291 39.0486032,13.1871104 34.5959155,11.6993378 C24.5183786,8.33213934 22.1106103,4.32017126 14.1031056,10.731438 C12.7514155,11.8266552 11.9057113,13.01698 11.2888099,14.6433205 L11.314162,14.6502951 C11.1379648,15.3283068 11.326838,16.0048391 11.7238099,16.5215906 C8.25183803,20.0718528 6.7989507,25.3944986 8.58035915,30.1205025 C14.3938099,42.4187648 14.1204296,49.0684791 12.247331,62.289708 C9.80127465,74.6325652 15.3907817,79.141301 24.6476831,85.8571679 C24.2707817,86.5882286 24.1926127,87.5598059 24.6840211,88.204847 C35.3883169,103.252777 55.5713248,110.437498 72.8642122,102.799721 C79.8835784,99.6742733 83.017331,92.1959859 84.8057113,85.4482051 C86.8890211,77.8926434 87.529162,69.9310779 85.8331056,62.2345456 C85.1490211,58.674984 84.2578944,55.141207 83.9792324,51.518029 Z" id="ðŸŽ¨-Background" fill="#FFFFFF"></path>
                        <path d="M22.2346479,-20.4719812 C23.5339807,-20.6671651 24.5151988,-19.8607111 24.9819667,-18.7240285 L25.0064789,-18.6628227 C25.1564789,-18.2760517 25.3233803,-17.8998481 25.5029577,-17.5299851 C28.7543662,-19.1256798 33.3938028,-18.7156603 35.4515493,-15.4841143 C36.9198592,-13.1761691 36.0240845,-10.4370693 35.4705634,-7.98963288 L35.1071831,-6.37703014 C35.8095951,-5.92986575 36.3392879,-5.12909119 36.3144215,-4.29988718 L36.3114085,-4.23605166 L36.1635211,-1.98728454 C36.6325352,-2.4628227 37.0614085,-2.98063092 37.4438028,-3.53225519 C37.7078873,-4.01624736 37.9930986,-4.49178552 38.2994366,-4.95252916 C40.1015493,-7.66415342 44.1473239,-5.30759765 42.66,-2.40364462 C42.3747887,-1.84356634 42.053662,-1.3130771 41.7092958,-0.801609393 C41.3205634,-0.0470888454 41.0015493,0.728566732 40.7564789,1.52535734 C41.46,1.83181526 42.0008451,2.51236321 42.0578873,3.53952564 C42.1909859,5.93835147 40.931831,7.93983875 38.9290141,9.19737299 C38.3395775,9.56723601 37.7311268,9.63909511 37.1797183,9.50171742 C37.0825352,9.6327546 36.9853521,9.76379178 36.8923944,9.89694247 C37.6909859,10.5457879 38.4114085,11.2855139 39.0304225,12.105553 C40.8938028,11.8265706 42.7677465,11.6955335 44.6416901,11.6913065 C46.931831,10.5690364 49.6740845,10.5922849 52.1353521,11.012872 C53.7198592,11.2834004 55.2409859,11.8096626 56.8001408,12.1879796 C58.4438028,12.5853182 60.1128169,12.6001127 61.775493,12.8706411 C63.8712676,13.2109151 65.7092958,14.1788994 66.8649296,15.7238701 C68.1346479,15.7619131 69.4698592,16.2818348 70.5769014,16.9877448 C73.1543662,18.6320501 75.7170423,20.2996039 78.288169,21.9544767 C79.2749208,22.5898045 79.6438753,23.6040612 79.4624669,24.73534 L79.4501408,24.8077057 L79.3635211,25.2769033 L79.5669365,25.5656921 C80.3537713,26.6772766 81.2099155,27.8415969 81.7191549,29.0685276 C82.6614085,30.42751 83.5128169,31.852011 84.2670423,33.3208955 C85.2832394,35.2949072 86.1219718,37.3872751 86.6902817,39.5345941 C86.831831,40.0777644 86.9733803,40.6251616 87.066338,41.1788994 C87.1994366,41.9608955 86.994507,42.5674708 86.8825352,43.3177644 C86.7430986,44.2688407 86.6923944,45.232598 86.544507,46.1857879 C86.4452113,46.8177252 85.9085915,47.1284102 85.3466197,47.1453182 C85.5578873,48.7536939 85.71,50.3726372 85.8557746,51.9788994 C86.0607042,54.2741636 86.2001408,56.5757683 86.3205634,58.877373 C86.9416901,59.7798387 88.2114085,60.4942027 89.1283099,60.7414826 C90.3980282,61.0817566 91.7290141,60.7118935 92.9290141,60.2786254 C93.6832394,60.0059836 94.3022535,60.9549464 93.9346479,61.5889973 C92.7790141,63.579917 90.3071831,63.571463 88.4353521,62.6901323 C87.6430986,62.3181558 86.9480282,61.7792125 86.4325352,61.0775295 C86.4642254,61.7453965 86.4980282,62.4132634 86.531831,63.0832438 L86.5633139,63.6900899 C86.9439234,70.7770778 87.7656338,78.1078427 86.4346479,85.1249659 C84.1297183,97.2797213 74.0749724,106.534642 61.7923944,107.253342 C55.3470357,107.630484 49.9796967,105.726004 47.3106934,104.663606 C44.6416901,103.601209 45.6790407,101.435044 47.5318732,102.054258 C50.7236874,103.120957 56.5872399,104.710152 61.8346479,104.023909 C74.2022535,102.406506 84.6895775,96.2225963 83.6121127,69.5886059 C83.4593178,65.8116489 82.9888732,62.0328329 82.8874648,58.2560031 C82.7902817,54.5637135 82.8261972,50.8693104 82.6635211,47.1791342 L82.6092755,45.9200779 C82.545759,44.4489059 82.4778404,42.9709151 82.3677465,41.4980384 C82.2346479,40.9273926 82.1247887,40.3482928 81.9621127,39.7882145 C81.5205634,38.2643789 80.9438028,36.7828133 80.2276056,35.3688798 C80.0691549,35.4893495 79.8916901,35.5760031 79.6994366,35.6098192 C78.2395775,35.8718935 76.8705634,35.7979209 75.503662,35.1892321 C74.8656338,34.9081362 74.303662,34.5340462 73.7797183,34.071189 C73.5304225,33.8534982 73.3635211,33.6421479 73.2325352,33.4223436 C72.5712676,33.4329112 71.91,33.2342419 71.4959155,32.7587037 C71.0236302,32.2166925 70.9450808,31.6568671 71.1300646,31.138608 L71.1494366,31.0869229 L71.1029577,31.0700149 C70.5452113,32.5135374 69.4339437,33.7837526 68.2149296,34.6418348 C66.288169,36.0029307 63.8776056,36.3960423 61.566338,36.4319718 C59.0142254,36.4700149 56.3226761,36.0769033 53.8043662,35.6753378 C53.1388732,35.5696626 52.4776056,35.449193 51.8290141,35.2864532 C51.803662,35.3118153 51.7783099,35.3414043 51.7508451,35.3667663 C49.5895775,37.4358857 46.5494366,37.9684885 43.8071831,36.7870403 C42.2226761,36.1043789 40.8938028,35.0053573 39.7191549,33.7457096 C39.7022535,34.4051225 39.6684507,35.0645354 39.6114085,35.7176078 L39.5877865,35.9769406 C39.4708263,37.193265 39.2457746,38.4834787 38.3269014,39.3612869 C36.8416901,40.7836744 34.6867606,40.2130286 32.9733803,39.2873143 C32.975493,39.3316978 32.975493,39.3781949 32.975493,39.424692 C33.438169,40.9971382 33.9029577,42.5716978 34.3677465,44.1462575 L34.4678581,44.4816725 C34.8058387,45.5997013 35.1765173,46.7191592 35.2783099,47.8892712 C35.4726761,50.1253573 33.9853521,52.3339679 31.5008451,51.5836744 C30.1976258,51.191529 29.1535844,50.0953404 28.1518089,49.2173454 L27.5205634,48.6712673 C29.153662,54.0120892 30.2860563,59.5431264 30.3916901,65.1164337 C30.3980282,65.4186646 30.138169,65.6469229 29.8508451,65.6574904 C29.1790141,65.6849659 28.4564789,65.5518153 27.7804225,65.2834004 C27.7423944,65.2812869 27.7043662,65.2791734 27.6642254,65.2728329 C26.5107042,65.1058661 25.4395775,64.6895061 24.4952113,64.0744767 C24.7128169,64.7655922 24.81,65.5074317 24.7529577,66.2830873 C24.738169,66.471189 24.444507,66.5367076 24.4022535,66.3295843 C23.8571831,63.6475491 20.7198592,61.6206998 18.0156338,62.134281 C15.1128169,62.6859053 12.9747887,65.1840658 12.4508451,68.0267272 C11.8888732,71.0807389 12.9642254,74.6124023 14.9564789,76.9689581 C15.8733803,78.0552986 17.0797183,78.9619914 18.5121127,79.1902497 C19.1670423,79.2938114 19.8473239,79.2578818 20.4832394,79.0718935 C20.753662,78.9915804 21.0071831,78.8795648 21.2649296,78.7738896 C21.6409859,78.6217174 22.0804225,78.5984689 22.4353521,78.4378427 C23.2402817,78.0764337 24.0494366,78.8182732 23.6416901,79.6446528 C23.2867606,80.3653573 22.9677465,80.851463 22.3783099,81.2234395 C22.8557746,81.8067663 23.2888732,82.6183515 23.4494366,82.8360423 C24.2691549,83.9435178 25.1015493,84.9897018 26.0353521,86.0020697 C26.9860563,87.0292321 28.0233803,87.9676274 29.1198592,88.8362771 L29.5807403,89.2005922 C30.6368926,90.0385631 31.5565669,90.8150442 32.3015493,92.017099 C32.8888732,92.9660618 32.1283099,94.2531851 31.0276056,94.2383906 C27.5839437,94.18978 25.0804225,91.1632438 23.2973239,88.5192517 C23.0438028,88.1409346 22.8050704,87.7414826 22.5832394,87.331463 C22.5029577,87.4603867 22.4142254,87.5808564 22.3149296,87.6907585 L22.5114085,88.2191342 C23.094507,89.7746724 20.5825352,90.7912673 19.853662,89.3392908 C19.3233803,88.2867663 18.7085915,87.2849659 18.0240845,86.3381166 C17.6205634,86.2810521 17.225493,86.0358857 17.0057746,85.7188603 C16.4501408,84.9136157 15.8269014,84.099917 15.3008451,83.2418348 C15.0092958,82.9649659 14.7092958,82.6986646 14.4029577,82.4387037 C14.3142254,82.5169033 14.2233803,82.5951029 14.1367606,82.6775295 C13.7522535,83.5546333 13.2769014,84.3556509 12.6874648,85.1101714 L12.5610893,85.2711401 C11.4318843,86.694834 9.96103713,88.1519633 8.14098592,88.5002301 C7.58535211,88.6059053 7.05084507,87.9147898 7.54309859,87.4730677 C8.81704225,86.3275491 10.3233803,85.5476665 11.4980282,84.2689973 C12.0767505,83.6390224 12.6081101,82.9452651 13.0650425,82.2181846 L13.1691549,82.0498192 C13.2452113,81.9251225 13.3233803,81.8004258 13.403662,81.6736157 C12.8733803,81.3122067 12.3430986,80.9486841 11.8128169,80.5851616 C10.3530259,81.8328102 8.45201316,82.4035219 6.83738288,83.4370178 L6.67690141,83.5419523 C5.21704225,84.5183906 3.67901408,82.3583906 4.84943662,81.1727155 C6.13964789,79.8705863 7.21669014,78.3177957 8.35964789,76.8704689 C7.8221831,75.8800814 7.5678169,74.7089894 7.47253521,73.5254278 C7.43492958,73.1904376 7.40556338,72.855236 7.37619718,72.5200344 C6.55647887,72.5327155 5.73253521,72.2516196 5.03535211,71.7676274 L4.77126761,71.5795256 C3.92408451,71.850054 3.03464789,71.9810912 2.18323944,71.9578427 C0.180422535,71.8986646 -0.639295775,69.6097409 0.613521127,68.1619914 C1.89169014,66.6825393 4.12901408,66.3591734 5.9015493,67.0777644 C5.95859155,67.0481753 6.01774648,67.0164728 6.07478873,66.9847703 C5.99028169,66.5958857 6.00908451,66.2431421 6.10521127,65.9333025 L6.07732394,65.7443554 C5.68753521,65.1460227 5.43126761,64.4629386 5.33408451,63.7411773 C5.2571831,63.1694748 5.2728169,62.6028446 5.40507042,62.038328 C5.44901408,61.8504376 5.54049296,61.655784 5.61042254,61.4598622 C5.46633803,61.095917 5.38161972,60.7197135 5.35542254,60.3413965 C5.31507042,60.29342 5.27492958,60.2441753 5.23690141,60.1909151 C4.35739437,58.9555726 4.53507042,57.4670325 5.37211268,56.4673456 C5.37591549,56.4037292 5.38183099,56.3401127 5.39049296,56.276919 C5.34147887,56.1665941 5.29647887,56.0552125 5.25549296,55.9425628 C4.43767606,55.1172399 3.83725352,54.1241049 3.94922535,52.8934121 C4.01492958,52.169326 4.31239437,51.5175217 4.76260563,51.0303593 C4.68274648,50.7940697 4.67514085,50.520371 4.77190141,50.2919014 C4.05338028,48.3800266 4.14422535,46.0773652 4.66140845,43.9391342 C4.54732394,43.6136548 4.48816901,43.2606998 4.50084507,42.8866098 C4.56,41.2993691 5.93323944,39.8410521 7.56,39.8600736 C7.75584507,39.8617644 7.93922535,39.8873378 8.11542254,39.9247468 L8.11774648,39.8869151 C8.18007042,39.4105315 8.31105634,38.9702888 8.50225352,38.5752751 C8.40823944,38.5412477 8.32119718,38.4924258 8.24492958,38.4275413 C7.20253521,38.9838153 6.09950704,39.4090521 4.94302817,39.6988133 C4.09267606,39.9118544 3.22161972,38.9449268 3.75021127,38.1464454 C3.99549296,37.7759483 4.26612676,37.443283 4.55767606,37.1393613 C4.14316901,37.1416861 3.72232394,37.1697957 3.29661972,37.2245354 C2.53183099,37.3238701 1.67830986,36.8018348 1.18183099,36.0959249 C0.564929577,36.6961597 -0.054084507,37.294281 -0.673098592,37.8924023 C-2.24070423,39.412011 -4.60901408,38.2939679 -4.85619718,36.2903671 C-5.32309859,36.1656705 -5.75830986,35.9543202 -6.14070423,35.6520892 C-8.61253521,36.7257487 -11.2723944,37.315416 -13.9914085,37.4274317 C-15.9435211,37.5077448 -17.0843662,35.2336157 -16.1716901,33.6273534 C-15.5590141,32.5494669 -14.7984507,31.5814826 -13.9216901,30.7403084 C-15.2822535,31.1566685 -16.6871831,31.4567859 -18.1216901,31.6491147 C-18.8970423,31.7526763 -19.9935211,31.1101714 -20.3040845,30.3979209 C-21.4914085,27.6588211 -21.39,24.8034787 -20.0230986,22.1383515 C-19.9702817,22.0326763 -19.9111268,21.9312282 -19.8540845,21.82978 C-19.7125352,21.476825 -19.5583099,21.1280971 -19.3914085,20.7857096 C-21.0730986,19.0315022 -21.2188732,16.4234395 -20.3125352,14.240191 C-20.6759155,13.6505237 -20.8153521,12.9403867 -20.568169,12.2978818 C-19.8646479,10.4485667 -18.8505634,8.74085636 -17.5702817,7.27408532 C-17.6928169,7.03737299 -17.8005634,6.78586614 -17.8914085,6.51533777 C-18.611831,4.32786223 -17.7773239,1.68809706 -16.0935211,0.164261448 C-15.0350704,-0.795268885 -13.818169,-1.37014168 -12.5188732,-1.73789119 C-11.9716901,-2.70587554 -11.268169,-3.57875225 -10.4484507,-4.31425127 C-10.4167606,-4.38399687 -10.3850704,-4.45374247 -10.3491549,-4.52348806 C-9.07309859,-6.9286544 -6.74915493,-8.21789119 -4.25830986,-8.51589511 C-4.16112676,-9.45640391 -3.52732394,-10.3546427 -2.60619718,-10.6463061 C-2.35267606,-11.4600047 -1.97450704,-12.2377738 -1.45478873,-12.9436838 C-0.637183099,-14.0553863 0.721267606,-14.579535 2.0015493,-13.8503765 C2.70295775,-13.4509245 3.37478873,-12.9922943 4.0043662,-12.4850536 C4.28713976,-12.6177166 4.60771648,-12.7035573 4.9694197,-12.7309395 L5.06070423,-12.7365605 L7.14380282,-12.8422356 C8.01633803,-13.2290067 8.88676056,-13.6347992 9.75929577,-14.0300243 C10.2832394,-14.4632924 10.8684507,-14.8247014 11.5064789,-15.0931162 C12.2290141,-15.3953472 12.9684507,-15.5665409 13.71,-15.6236055 C14.3121127,-15.8201613 14.9184507,-15.9934685 15.5353521,-16.1287327 C16.9846479,-16.4457581 18.5015493,-16.6232924 20.0057746,-16.6084978 C20.0365594,-16.9979862 20.0518224,-17.392133 20.0489028,-17.790938 L20.0459155,-17.9907288 C20.0121127,-19.269398 21.0325352,-20.29022 22.2346479,-20.4719812 Z M20.7747887,81.8321284 C20.5677465,81.8765119 20.3585915,81.9124415 20.1494366,81.9378035 C20.2128169,82.0942027 20.2761972,82.250602 20.3374648,82.4070012 C20.5064789,82.5021088 20.6776056,82.5929894 20.8487324,82.6775295 C20.7980282,82.3900932 20.7684507,82.1005432 20.7747887,81.8321284 Z M9.92049296,78.6054434 L9.78003912,78.8641675 C9.757277,78.9065002 9.73485915,78.9483241 9.7128169,78.9894669 C10.0107042,78.9662184 10.3107042,78.9725589 10.6064789,79.006375 L10.6056338,78.9748838 C10.5676056,78.9619914 10.5295775,78.9501558 10.4932394,78.9324023 C10.2891549,78.8343358 10.0994366,78.7244337 9.92049296,78.6054434 Z M15.7867606,66.8009166 C17.655892,66.9098207 19.2394617,67.1965217 20.9393529,68.0145043 L21.0853521,68.0859264 C22.5874648,68.831993 25.0719718,70.2099969 24.8628169,72.1861221 C24.803662,72.7483139 24.3959155,73.3400947 23.753662,73.2957112 C21.9938028,73.1752415 20.988169,71.399899 19.7966197,70.2924235 C18.594507,69.1764939 17.1177465,68.0288618 15.6621127,67.2616603 C15.4563531,67.1536452 15.5374055,66.8117672 15.7613026,66.8007505 L15.7867606,66.8009166 Z M7.31070423,40.7646528 C6.8628169,40.7794474 7.0128169,41.214829 7.24309859,40.8513065 C7.26211268,40.8217174 7.28535211,40.7921284 7.31070423,40.7646528 Z M31.4873239,11.6993378 C27.245493,11.8109307 22.9764085,14.3164885 19.7987324,16.849099 C17.0342958,19.0524258 14.6471831,21.6731695 12.5334507,24.4978661 C11.9896479,25.9046137 11.5227465,27.3407389 11.1283099,28.7874317 C10.8684507,29.742735 10.7057746,30.7086059 10.488169,31.6723632 L10.4205634,31.9678309 C10.2496479,32.2873926 10.1226761,32.6312595 10.0301408,32.9865393 C10.4152817,33.3728877 10.9149296,33.6495452 11.4650704,33.7807937 C11.6423239,33.8230638 11.7895775,33.9145785 11.9059859,34.0358935 C12.3488028,33.2965902 12.7358451,32.5162849 12.9610563,31.6890599 L12.9692958,31.6508055 C13.820493,30.2561049 14.745,28.9047311 15.7360563,27.5996431 C18.4698592,23.9961205 21.4804225,20.711737 25.0994366,17.9789777 C27.8438028,15.9077448 30.9114085,14.2845746 34.1733803,13.2299366 C33.375,12.5855295 32.4682394,12.0757526 31.4873239,11.6993378 Z" id="ðŸ–-Ink" fill="#000000"></path>
                    </g>
                    <g id="face/Cyclops" transform="translate(112.183099, 77.354207)" fill="#000000" fill-rule="evenodd">
                        <path d="M42.9166268,39.6978622 C42.9677535,39.5376587 43.1902183,39.5380814 43.2413451,39.6978622 C43.7057113,41.1458231 43.9784577,42.5637722 44.671838,43.9252908 C44.8431761,44.1017683 44.9659225,44.3238975 45.0316268,44.56378 C45.3555,45.1020892 45.7163451,45.6131342 46.1200775,46.0969151 C46.6279648,46.7056039 46.9974718,47.2773065 46.7283169,48.1081245 C46.5956408,48.51751 46.2529648,48.779373 45.8211338,48.7990286 C44.6355,48.8527115 43.9600775,47.7215648 43.5407113,46.5422301 C40.6066268,47.5169777 37.3759225,48.0688133 34.3007113,47.8263945 C31.800993,47.6289933 29.0779648,47.0025511 26.8397958,45.7255726 C26.8531056,46.207874 26.8714859,46.690598 26.8883873,47.1735335 C26.9196549,48.0666998 27.1598662,49.0441949 27.0669085,49.9212986 C26.9747958,50.7916391 26.4808521,51.4650012 25.5857113,51.5998427 C24.8152183,51.7156626 23.8615563,51.2010247 23.7113451,50.3754904 C23.5372606,49.4172282 23.8596549,48.7478818 24.1247958,47.8433025 C24.3590915,47.0439757 24.5428944,46.2273182 24.7448662,45.419326 C24.9485282,44.6035139 25.1152183,43.7807272 25.2662746,42.9541362 C25.3769789,42.3490403 25.2971197,41.6672243 25.5113451,41.0972125 C25.5282465,41.0526176 25.5717676,41.0207037 25.620993,41.0348642 C26.760799,41.3624918 26.8254738,43.198346 26.8208545,44.183426 L26.8205704,44.2319601 C26.8188803,44.4327429 26.8207817,44.6335256 26.8228944,44.8340971 L27.2584053,44.9294671 C29.6492419,45.446971 31.9715161,45.8401426 34.4853592,45.697463 C37.4342324,45.5302849 40.027331,44.4517644 42.8257817,43.7126724 C42.5933873,42.3830677 42.5219789,40.9325706 42.9166268,39.6978622 Z M33.0552042,13.4969777 C34.3637958,13.0487037 35.7784437,12.8369307 37.1546408,12.9047742 C40.1043592,13.0506059 42.9144296,14.3964845 44.8483732,16.6391225 C46.6743592,18.7562184 47.6666831,21.4114121 47.6538381,24.2126489 C47.6398521,27.0901832 46.8843592,30.3306059 45.4616831,32.8494787 C42.4724577,38.1419014 35.4904859,38.1786763 30.4728803,36.068555 C25.1183028,33.816829 22.9397113,28.1380579 24.2295,22.6478114 C25.1992183,18.518872 28.5070352,13.5646098 33.0552042,13.4969777 Z M41.7788662,17.5844924 C40.199007,16.3157566 38.2095,15.7457448 36.1992887,15.8898857 C35.2006268,15.9615335 34.1859085,16.2238192 33.2793592,16.6501127 C32.7974577,16.8766802 32.3666831,17.1930716 31.8921761,17.4289386 C31.4690775,17.6389738 31.011091,17.7615048 30.5746011,17.9382899 L30.4120352,18.0074043 C29.6952042,18.3278114 28.9733028,17.8693926 28.9373873,17.2013143 C27.3780211,19.3900579 26.6383732,22.3580501 26.6501296,24.9910521 C26.6592887,26.9299796 27.1209085,28.9441479 28.2334437,30.5584415 C29.469993,32.3525941 31.5216127,33.2990207 33.5793592,33.8016117 C35.5500634,34.2828564 37.6988662,34.4498231 39.6742183,33.9030599 C41.7245704,33.3357957 43.049007,31.7792008 43.8028099,29.8387937 C45.4380211,25.6297526 45.5730211,20.6315295 41.7788662,17.5844924 Z M34.7380986,22.8037667 C35.6328169,21.5819507 37.2378169,21.5170661 38.121338,22.8037667 C38.6773944,23.6136611 38.5956338,24.3939663 38.5514789,25.3260211 L38.5429519,25.5356099 C38.5168569,26.2732788 38.5203123,27.0498401 38.2440845,27.7316102 C37.8893662,28.6068117 37.2,29.1675241 36.2235211,29.0514928 C35.648662,28.9828039 35.1671831,28.639571 34.8878873,28.1661464 L34.878169,28.1716415 L34.878169,28.1716415 C34.4865211,27.3894002 34.3854507,26.5957102 34.3193068,25.741857 L34.2737534,25.1156733 C34.2183443,24.2924644 34.2154284,23.5175554 34.7380986,22.8037667 Z" id="ðŸ–-Ink"></path>
                    </g>
                    <g id="facial-hair/*-None" transform="translate(104.577451, 109.479380)"></g>
                    <g id="accessories/*-None" transform="translate(88.521127, 88.978474)"></g>
                </g>
            </g>
        </g>
    </g>
</svg>