<?xml version="1.0" encoding="UTF-8"?>
<svg width="240px" height="324px" viewBox="0 0 240 324" version="1.1" xmlns="http://www.w3.org/2000/svg" xmlns:xlink="http://www.w3.org/1999/xlink">
    <!-- Generator: Sketch 62 (91390) - https://sketch.com -->
    <title>peep-39</title>
    <desc>Created with Sketch.</desc>
    <g id="Introduction" stroke="none" stroke-width="1" fill="none" fill-rule="evenodd">
        <g id="variations" transform="translate(-1326.000000, -1082.000000)">
            <g id="images" transform="translate(126.000000, 110.000000)">
                <g id="a-person/bust" transform="translate(1200.000000, 972.000000)">
                    <g id="body/Paper" transform="translate(31.056338, 135.052838)">
                        <path d="M150.022562,41.5444811 C148.181113,34.4008449 146.487633,31.3720117 143.21645,28.8890928 C140.156716,26.5666686 135.690221,24.616104 129.173087,23.1912768 C122.385153,22.0042412 122.192712,18.475584 120.490732,12.8041914 C119.994215,11.0992146 117.533743,10.6455451 116.471812,11.8744515 C116.322113,11.7128304 116.166034,11.5648173 116.004427,11.4310403 C116.149023,10.6179104 114.965332,8.28732303 115.004881,7.50952316 C115.417681,-0.609005215 112.762711,-4.68584742 106.136171,-6.20135908 C104.695101,-6.53109121 94.9065863,-6.72516212 93.5014529,-6.33660159 C87.3586723,-4.63790541 81.3115461,0.755465435 82.2369609,7.25254916 C80.30873,9.77295874 78.4215729,11.31129 75.4467217,12.1233731 C68.8263488,12.9641377 62.2066138,13.7117399 55.5845398,14.3517342 C42.6219288,16.385187 30.4684177,23.2478023 22.1617996,33.2563762 C21.3956532,34.1802542 21.1742936,35.4342831 21.8504928,36.4195018 C21.3208035,38.6886869 18.3391477,44.1930152 20.6852187,45.7487228 C16.8272684,54.977454 7.95072329,72.8155543 7.93257791,77.9116861 C7.86411145,99.3206175 10.1762752,127.187115 31.2981439,139.034652 C32.1438182,139.866205 32.264811,140.786315 32.6309793,142.023595 C33.5595837,145.921134 36.932074,148.706647 40.6233136,148.479289 C58.8071994,148.883469 76.4194747,146.664642 94.6037662,146.557151 C102.622991,146.509747 112.266923,147.706921 119.233171,148.504559 C126.19942,149.302197 133.231558,148.596675 139.916787,146.557151 C140.480499,147.44481 141.620256,147.961914 142.776386,147.706921 C149.70679,146.329792 155.311163,142.058139 160.192343,137.389341 C161.684021,134.675279 167.509329,126.942381 165.193878,124.25072 C167.29286,115.375587 167.183775,105.839315 163.453835,97.3881237 C163.982573,95.8389543 163.018842,94.1364726 163.453835,92.5367037 C163.768621,91.3790161 164.574809,90.9001986 164.980599,89.753827 C165.551618,88.1406772 164.930621,85.9765462 164.287719,84.3304236 C164.024256,83.5099664 164.772636,82.6269138 164.980599,81.7897082 C165.967042,77.8410875 163.708257,78.1891262 162.07985,75.5493849 C162.104091,75.5412202 162.527569,73.6567356 162.525656,73.6661565 C162.774982,72.320747 162.150366,70.5970822 161.605521,69.4740158 C161.237274,68.7149621 160.44844,68.2399026 159.664657,68.3269857 C160.453982,65.6468392 161.452242,63.4167123 162.525656,60.8345433 C164.424117,56.2829839 166.827176,51.9244485 169.553236,47.8045764 C170.669603,46.117604 169.17027,44.1630776 167.363669,44.0481424 C161.516248,43.6765395 155.732831,42.8345188 150.022562,41.5444811 Z" id="ðŸŽ¨-Background" fill="#FFFFFF"></path>
                        <path d="M132.956958,75.9647272 C130.618225,75.0474669 128.099915,74.5404376 125.56893,74.3436705 C126.931606,74.1048446 128.298296,73.8744728 129.675972,73.7561166 C130.637239,73.67369 131.528577,73.682144 132.251113,74.4115139 C132.733014,74.8974082 132.95907,75.5230051 133.275972,76.0978779 C133.172451,76.0513808 133.064704,76.0069973 132.956958,75.9647272 Z M158.059775,67.3881323 C154.229493,67.5827859 150.394986,68.4937057 146.930197,70.1441401 C145.512592,70.8204611 144.228085,71.7968994 143.852028,73.4031616 C143.661887,74.2234121 143.708366,75.0709268 143.809563,75.89942 C143.885831,76.526919 143.904845,77.3279366 144.449915,77.7527507 C144.542873,77.8246098 144.642169,77.8795609 144.74569,77.9197174 C143.467521,78.4967037 142.250408,79.190144 141.168718,79.9042967 C140.180197,80.5573691 139.164,81.5633965 138.707662,82.6983476 C138.669634,82.5694239 138.631606,82.4491656 138.593577,82.334825 C137.816113,80.0355452 136.618225,78.1524141 134.731606,76.8862145 C135.065408,76.7363671 135.29569,76.3810873 135.187944,75.8909659 C134.740056,73.8427703 132.849,72.0632008 130.713296,72.190011 C128.374563,72.3273886 125.862592,73.1791303 123.747592,74.2549033 C122.976676,74.2379953 122.207451,74.2485628 121.447099,74.2823789 C121.316113,74.2866059 121.322451,74.4643515 121.447099,74.4789346 C122.064,74.5573456 122.680901,74.6437879 123.297803,74.745236 C124.764,74.9800462 126.225972,75.2778387 127.656042,75.6477018 C129.371746,76.0917487 131.146394,76.5374865 132.749915,77.3131421 C135.859563,78.820281 137.784423,82.7598505 137.389352,86.1877409 C137.323859,86.7499327 137.106254,88.449189 136.326465,88.2737683 C135.667521,88.1258231 135.405549,86.7499327 135.175268,86.2405785 C134.558366,84.8879366 133.447099,84.0044924 132.114,83.406371 C130.548507,82.7025746 128.873155,82.2270364 127.250408,81.67351 C126.331606,81.358598 125.412592,81.0434748 124.491465,80.7306763 C123.549211,80.4075217 122.653437,79.9613613 121.649915,80.1875061 C121.043577,80.3248838 120.973859,81.0477018 121.314,81.4621597 C121.831606,82.0938857 122.60062,82.279874 123.346394,82.5398348 C124.330901,82.8822223 125.313296,83.2248211 126.29569,83.5669973 C127.814493,84.095373 129.405549,84.5413221 130.886324,85.188054 L130.840056,85.2937292 C130.719423,85.2599131 130.577873,85.3803828 130.601324,85.528328 C130.823155,86.8957644 131.131606,88.4766646 130.789141,89.8464258 C130.51893,90.932555 129.565901,92.1353495 128.328085,91.8159992 C128.522451,91.638465 128.594282,91.332007 128.463296,91.0487977 C127.972944,90.0005002 121.55062,85.8622614 120.978085,87.3989894 C120.95907,87.4537292 121.018014,87.4938857 121.064704,87.4856431 C121.552732,87.3839836 122.370338,88.2167037 122.760972,88.4808916 C123.325056,88.8615335 123.897592,89.2332986 124.455549,89.6242967 C125.066113,90.0514356 125.661887,90.4994982 126.242873,90.962144 C126.699211,91.3258779 127.043577,91.7039836 127.56731,91.8880697 C127.292873,92.0188955 127.075056,92.2619483 126.98231,92.5726333 C126.74569,93.3821049 126.289352,94.0689933 125.497099,94.4263867 C124.666817,94.7981519 123.730901,94.563553 122.856254,94.654645 C121.664704,94.7749033 120.625268,95.3415335 119.756958,96.1510051 C117.933718,97.8542771 117.01893,100.855663 114.46893,101.660696 C112.94569,102.140672 111.255549,101.83823 109.713296,101.620539 C107.991465,101.377486 106.314,101.185158 104.579493,101.438778 C102.91893,101.682042 101.349211,102.256704 99.8323099,102.958387 C98.4104789,103.615686 96.8386479,104.35985 95.5773803,105.340305 C95.3175211,104.539287 95.0555493,103.746723 94.8567465,102.928798 C94.3879437,100.995154 94.1344225,99.0251577 94.0729437,97.038465 C94.0161127,95.1470912 94.1217465,93.2470521 94.2842113,91.3637096 C94.3647042,90.4232008 94.4914648,89.486919 94.5717465,88.5464102 C94.592662,88.3096978 94.6351268,88.0560775 94.6668169,87.8026685 C96.9189296,86.4730638 99.2849155,85.4545667 101.670127,84.4062693 C101.676676,84.4041558 101.683014,84.3997174 101.689352,84.3978153 C101.763296,84.3637879 101.835127,84.3322967 101.90907,84.3005941 C101.906958,84.2961558 101.904845,84.2921401 101.90062,84.2877018 C102.173155,84.1209464 102.363296,83.8988172 102.47738,83.6494239 C105.914704,81.3689542 108.787944,78.2559757 110.930197,74.6247663 C111.828085,73.1030442 112.692169,71.5242575 113.866817,70.1908485 C115.117521,68.7682497 116.602732,67.9228485 118.440761,67.4832399 C120.589352,66.9677566 122.803437,66.6589738 125.004845,66.483553 C126.206958,66.3886568 127.550408,66.2405002 128.860479,66.2470521 C129.773155,66.2531812 130.666606,66.3313808 131.486535,66.5575256 C132.701324,66.8914591 133.411183,67.8152712 134.173859,68.7492282 C134.902732,69.6455648 135.62738,70.5438035 136.307662,71.4779718 C136.951817,72.3633182 137.560479,73.278465 138.088648,74.2379953 C138.405549,74.8128681 138.699211,75.4048603 138.946394,76.0154513 C139.033014,76.2312399 139.147099,76.4761949 139.199915,76.7002262 C139.252732,76.926371 139.155549,77.1654082 139.40907,77.1654082 C138.363296,77.1799914 138.373859,78.8517722 139.413296,78.7904806 C143.48231,78.5537683 137.653437,70.6072086 136.801817,69.4995217 C135.595479,67.9313025 134.351324,65.8854317 132.420338,65.1562732 C132.392873,65.1457057 132.363296,65.1353495 132.335831,65.1266841 C132.897803,64.5940814 133.341465,63.9560149 133.766113,63.3069581 C134.203437,62.6390912 134.725056,61.8740031 134.86893,61.0814395 C134.959775,60.5765237 134.33231,60.2888759 134.034423,60.730598 C133.601324,61.3752164 133.392169,62.1910286 133.06893,62.8992634 C132.739352,63.6176431 132.337944,64.2960775 132.021042,65.021009 C131.258366,64.7864102 130.434423,64.6788329 129.59569,64.6429033 C130.654141,63.2099483 132.46238,60.4452751 132.680197,60.0902067 C133.681606,58.4459014 134.634423,56.7510834 135.544986,55.0537292 C136.529282,53.2149816 137.372451,51.3001479 138.314704,49.4402654 C138.849211,48.3858387 139.387944,47.3225354 139.981606,46.2996 C140.186535,45.9487585 140.406254,45.597917 140.655549,45.2787781 C140.704141,45.2155843 140.765408,45.1627468 140.822451,45.1033573 C140.887944,45.0674278 140.955549,45.0272712 140.993577,45.0063476 C141.33562,44.8097918 141.456254,44.3532751 141.696887,44.0635139 C142.081606,43.5966411 142.533718,43.54169 143.112592,43.5351382 C144.346183,43.5224571 145.584423,43.5710677 146.816113,43.6048838 C148.626676,43.6556078 150.435127,43.7274669 152.243577,43.8225746 C152.790761,43.8521636 153.335831,43.8817526 153.883014,43.9155687 C156.513296,44.0721793 159.141465,44.2769777 161.763296,44.5286959 C164.083014,44.7504023 166.402732,45.1120227 168.724563,45.2853299 C165.580901,52.7565628 162.094986,60.0925315 158.148296,67.1727663 C158.108366,67.2444141 158.078577,67.3162732 158.059775,67.3881323 Z M140.617521,86.6358035 C140.110479,86.8685002 139.618225,87.1578387 139.159775,87.4877566 C139.235831,86.9741753 139.254845,86.4329072 139.233718,85.889737 C139.611887,86.2955295 140.09569,86.5280149 140.617521,86.6358035 Z M162.261887,73.7838035 C162.225972,73.7878192 162.192169,73.8068407 162.175268,73.8427703 C161.473859,75.2905198 161.76731,76.9073495 162.912592,78.0423006 C163.512592,78.6340814 164.820338,79.3019483 164.777873,80.2741597 C164.741958,81.0603828 163.886535,81.7197957 163.521042,82.3686411 C163.180901,82.9731029 163.054141,83.6367429 163.326676,84.2921401 C163.675268,85.1309894 164.649211,85.4649229 164.983014,86.2894004 C165.405549,87.335373 164.71893,88.5973456 164.237239,89.508054 C163.789352,90.3513417 163.210268,91.1946294 162.825972,92.0865276 C160.25062,93.4203593 157.94569,95.4662301 155.964,97.5438035 C153.794282,99.8158192 151.933014,102.489189 148.487239,102.421768 C148.142873,102.415216 147.880901,102.597189 147.724563,102.848485 C146.765408,102.892868 145.804141,102.91189 144.844986,102.916328 C143.15907,102.924571 141.473155,102.907663 139.789352,102.854825 C139.671042,102.446919 139.757662,101.893393 139.751113,101.54868 C139.730197,100.439091 139.719634,99.3316157 139.673155,98.2220266 C139.660479,97.9136665 139.647803,97.6027703 139.635127,97.2941988 C140.241465,98.3911068 141.424563,98.8898935 142.772451,98.8138074 C144.940056,98.6872086 147.120338,98.3319288 149.266606,98.0127898 C150.397099,97.8458231 151.525268,97.6556078 152.651324,97.4527115 C153.576676,97.2878583 154.88231,97.3303397 155.528789,96.5882888 C155.680901,96.415193 155.689352,96.0981675 155.45062,95.9817135 C154.810479,95.6668016 154.406958,95.8422223 153.703225,95.9776978 C152.84569,96.1444532 151.985831,96.3029659 151.123648,96.4511225 C149.469423,96.7383476 147.811183,97.0046489 146.148507,97.2392477 C145.202028,97.3723984 144.253437,97.5034356 143.304845,97.6069973 C142.476676,97.6957644 141.542873,97.8162341 140.875268,97.192962 C139.529493,95.9331029 140.283718,93.8217135 141.135127,92.5493847 C141.152028,92.5242341 141.152028,92.5007742 141.14569,92.4796391 C141.948507,92.2915374 142.749211,92.0717331 143.547803,91.9174474 C145.083718,91.6215569 146.630197,91.372375 148.178789,91.1504571 C151.360479,90.6958427 154.563296,90.3957252 157.761676,90.0937057 C158.55393,90.0174082 158.56238,88.7706528 157.761676,88.8446254 C153.166606,89.2652125 148.548507,89.6644532 144.014704,90.5502223 C142.878085,90.7698153 141.749704,91.0192086 140.628085,91.3003045 C140.097803,91.431553 139.529493,91.6365628 138.973859,91.6429033 C138.940056,91.6429033 138.906042,91.6429033 138.872451,91.6405785 C137.784423,91.6069738 137.625972,90.674919 138.223859,89.8992634 C138.297803,89.8039444 138.373859,89.7088368 138.452028,89.6181675 C139.508366,88.3583084 140.824352,87.5171342 142.18069,86.646371 C143.699915,86.4392477 145.214704,85.9785041 146.702028,85.6403436 C150.373859,84.8033965 154.04569,83.9664493 157.719634,83.1316157 C158.439845,82.9667624 158.133718,81.8592869 157.413296,82.0220266 C154.624563,82.6541753 151.835831,83.2859014 149.046887,83.9178387 L144.965408,84.8437644 C144.149915,85.0274278 143.131394,85.3972908 142.172239,85.5306528 C141.699211,85.5959601 141.240761,85.6044141 140.826676,85.5074043 C139.489352,85.1903789 139.421746,83.5183867 139.998507,82.5250403 C140.644986,81.4093221 141.866113,80.7116548 142.949915,80.0797174 C144.828085,78.9828094 146.826676,78.1944728 148.778789,77.2856665 C149.125268,77.2095804 149.471746,77.1334943 149.818225,77.0574082 C151.833718,76.6135726 154.136535,76.3958818 156.033718,75.5823945 C156.602028,75.3412438 156.291254,74.4451186 155.729493,74.4577996 C154.256958,74.4897135 152.716817,75.0136509 151.278085,75.3243358 C149.721042,75.6624963 148.161887,75.9985432 146.604845,76.3345902 C146.448507,76.3684063 145.523155,76.6642967 145.383718,76.5987781 C145.294986,76.556508 145.263296,76.2481479 145.233718,76.0450403 C145.138437,75.3771734 145.06893,74.6757018 145.172451,74.00551 C145.40062,72.5028094 146.653437,71.7968994 147.921042,71.2199131 C150.743577,69.9370168 153.838648,69.1340971 156.91893,68.8126333 C157.628789,68.7386607 158.338648,68.692375 159.052732,68.6689151 C159.891254,68.643553 160.58231,68.4956078 161.006958,69.3219875 C161.674563,70.6239053 162.042169,72.298011 162.261887,73.7838035 Z M158.342028,120.987623 C157.727028,118.859749 157.894352,116.587733 157.473085,114.417377 C157.25569,113.297643 156.958859,112.186786 156.634775,111.093682 C156.373225,110.210661 155.936958,109.27142 155.887521,108.349933 C155.884563,108.28843 155.957028,108.252923 156.006887,108.281244 C156.874563,108.77834 157.540901,109.853056 158.03569,110.696344 C158.628085,111.705541 159.080408,112.762293 159.445268,113.873361 C160.172451,116.086833 160.769493,118.756821 159.831676,120.987623 C159.552592,121.651686 158.57231,121.784625 158.342028,120.987623 Z M139.335127,92.8030051 C139.854845,92.7524924 140.374563,92.6529464 140.894282,92.5367037 C140.313296,93.1033339 139.776676,93.785784 139.478577,94.5426294 C139.43231,93.961416 139.372944,93.3821049 139.294986,92.8053299 C139.307662,92.8053299 139.322451,92.8053299 139.335127,92.8030051 Z M134.340338,137.095897 C133.423859,136.45614 132.756042,135.561706 131.978789,134.772312 C131.214423,133.996023 132.409352,132.800414 133.17393,133.576915 C133.837099,134.250066 134.412803,135.09124 135.193225,135.63589 C135.568859,135.897753 135.742732,136.371389 135.496606,136.79261 C135.279,137.164375 134.714915,137.357338 134.340338,137.095897 Z M129.229352,112.505925 C130.90238,111.782261 132.547732,110.994136 134.298718,110.472946 C135.345127,110.161205 135.788155,111.793463 134.748085,112.103091 C133.135479,112.58349 131.623014,113.299545 130.082451,113.965721 C129.093296,114.393494 128.233648,112.936445 129.229352,112.505925 Z M111.561042,111.99953 C111.151817,110.989698 112.787662,110.554528 113.190761,111.550199 C113.654915,112.69614 114.186887,113.812704 114.651042,114.958645 C115.059845,115.968477 113.424423,116.403858 113.021324,115.408187 C112.557169,114.262246 112.024986,113.145682 111.561042,111.99953 Z M94.1219577,132.166363 C93.8494225,132.529886 93.3949859,132.726864 92.9656901,132.469862 C92.6061127,132.254285 92.3866056,131.681103 92.6625211,131.313142 C93.4680845,130.23906 94.2842113,129.17787 95.2283662,128.220242 C95.9937887,127.443952 97.1882958,128.640406 96.423507,129.41585 C95.580338,130.270974 94.8415352,131.207044 94.1219577,132.166363 Z M91.6283662,19.0113182 C92.4041408,19.5413847 93.0837887,20.1853691 93.7465352,20.8479523 C94.5170282,21.6183241 93.3216761,22.8137213 92.5511831,22.0433495 C91.9928028,21.484962 91.4295634,20.9181205 90.7752676,20.471326 C90.3973099,20.213056 90.227662,19.7326568 90.4720986,19.3146059 C90.6911831,18.9400932 91.2512535,18.7538935 91.6283662,19.0113182 Z M116.999704,46.2199209 C116.561113,47.0985041 116.166254,47.9597566 116.141324,48.9583867 C116.114704,50.0462067 114.424563,50.0468407 114.451394,48.9583867 C114.483718,47.6516078 114.965408,46.5183476 115.540268,45.3664885 C116.026606,44.3915295 117.48393,45.2489777 116.999704,46.2199209 Z M126.308577,24.36778 C127.217239,23.7618387 128.062521,25.2271303 127.161887,25.8277879 C126.431746,26.3145276 125.701394,26.80169 124.971254,27.2886411 C124.063014,27.894371 123.217732,26.4292908 124.118155,25.8286333 C124.848296,25.3416822 125.578437,24.8547311 126.308577,24.36778 Z M85.932169,62.5742067 C85.7770986,63.6487115 84.1486479,63.1890247 84.3022394,62.1248759 C84.5399155,60.4801479 84.8299859,58.857189 85.2759718,57.2551538 C85.5679437,56.2068564 87.1978732,56.654919 86.9056901,57.7046959 C86.4597042,59.3067311 86.1696338,60.92969 85.932169,62.5742067 Z M80.0063239,81.9423476 C78.918507,81.9193104 78.9182958,80.228508 80.0063239,80.2515452 C80.990831,80.2724689 81.9586479,80.5315843 82.9082958,80.7687194 C83.9646338,81.0326959 83.5142113,82.6628407 82.4589296,82.3990755 C81.6561127,82.1985041 80.8387183,81.960101 80.0063239,81.9423476 Z M77.8188592,120.957612 C77.4451268,121.139584 77.0616761,121.303381 76.6839296,121.476265 C75.9273803,121.822246 75.1712535,122.168649 74.415338,122.515897 C72.8405493,123.239138 71.2666056,123.964704 69.6941408,124.692805 C66.5462535,126.150488 63.3740704,127.556813 60.2185775,128.998645 C57.0007606,130.46922 53.7913944,131.95924 50.5860423,133.456868 C49.0759014,134.162144 47.5543521,134.841635 46.0357606,135.528524 C44.7373099,136.115866 43.1323099,137.142183 41.7068873,137.23877 C41.6335775,137.243843 41.6090704,137.15106 41.6509014,137.103506 C42.1894225,136.490802 43.0484366,136.134465 43.7561831,135.736281 C44.4791408,135.32922 45.2156197,134.946465 45.9487183,134.558214 C47.4770282,133.748109 49.0072394,132.944555 50.550338,132.162982 C53.6369577,130.600469 56.729493,129.049158 59.822662,127.499749 C62.9773099,125.919483 66.1279437,124.328649 69.3102676,122.804602 C70.8085775,122.086856 72.3083662,121.371436 73.809,120.658128 C74.6219577,120.27178 75.435338,119.886066 76.2487183,119.500986 C76.6000563,119.334653 76.9478028,119.155216 77.3069577,119.006426 C77.7842113,118.808813 78.1469577,118.849181 78.6392113,118.727443 C79.4420282,118.529197 79.7895634,119.550441 79.1732958,119.995123 C78.665831,120.361393 78.3987887,120.674614 77.8188592,120.957612 Z M66.5356901,138.294888 C66.3622394,137.873244 66.7254085,137.360508 67.1259718,137.254833 C67.6057606,137.128445 67.9904789,137.420109 68.1656197,137.845346 C68.6289296,138.972899 69.2889296,140.007459 70.1384366,140.881181 C70.8977324,141.661909 69.7032254,142.857941 68.9432958,142.07679 C67.8787183,140.981573 67.1139296,139.701635 66.5356901,138.294888 Z M58.2347746,111.155185 C57.4642817,110.384602 58.6596338,109.189205 59.4299155,109.959788 L61.620338,112.150856 C62.390831,112.921651 61.1952676,114.117048 60.4251972,113.346465 L58.2347746,111.155185 Z M35.7622394,107.582731 C34.1874507,108.044743 32.3506901,108.469557 31.2770282,109.813533 C31.2246338,109.879263 31.1365352,109.794935 31.1680141,109.729416 C32.5425211,106.878723 36.4843521,105.878825 39.213507,104.880195 C41.1438592,104.173651 43.124493,103.587788 45.1218169,103.064485 C44.922169,100.785072 45.4727324,98.3420736 45.6641408,96.0738622 C45.8684366,93.6522106 46.0347042,91.2242184 46.1200563,88.7949581 C46.2073099,86.3168759 46.2284366,83.8220971 46.1468873,81.3433808 C46.0657606,78.8737526 45.7452676,76.4343476 45.6049859,73.972962 C45.5914648,73.7349816 45.9227324,73.7235687 45.9941408,73.9203358 C46.8235775,76.2043984 47.1778732,78.7344728 47.4478732,81.1428094 C47.7259014,83.6238505 47.8182254,86.0977057 47.7827324,88.5931186 C47.7459718,91.1589112 47.5968169,93.7185746 47.3920986,96.2761245 C47.2951268,97.4884297 47.1825211,98.6990442 47.0762535,99.9105041 C46.9951268,100.83495 46.9575211,101.751999 46.7690704,102.647068 C47.9737183,102.351389 49.1811127,102.071561 50.3847042,101.799553 C54.2225915,100.933228 58.0765352,100.129252 61.8983662,99.1923358 C63.7744225,98.7326489 65.6236479,98.1818701 67.4912535,97.6928055 C69.2498451,97.2322732 71.1060423,96.6738857 72.9115352,96.4684532 C73.5559014,96.3949033 73.6378732,97.2766568 73.2113239,97.5759288 C71.7438592,98.6066841 69.7949155,99.3244297 68.0999155,99.901416 C66.3987887,100.480305 64.6304789,100.896876 62.8868873,101.325706 C59.2507606,102.220351 55.5801972,102.951835 51.9151268,103.713753 C48.2551268,104.474825 44.5881549,105.230191 40.9693521,106.16922 C39.2266056,106.62151 37.4897746,107.07549 35.7622394,107.582731 Z M27.1325915,62.3489072 C26.1916056,62.9015883 25.3420986,61.4396783 26.2797042,60.8888994 C27.5065352,60.1686176 28.8140704,59.6273495 30.132169,59.0993965 C31.1437183,58.6944493 31.5789296,60.3303006 30.5815352,60.729964 C29.3969577,61.2042341 28.2349859,61.7017526 27.1325915,62.3489072 Z M23.7252676,125.165385 C22.7817465,125.712782 21.9316056,124.251083 22.8723803,123.705588 C24.1936479,122.939443 25.6406197,122.428187 27.0098451,121.757784 C27.984,121.280555 28.8396338,122.739506 27.8627324,123.217792 C26.4937183,123.888195 25.0465352,124.39924 23.7252676,125.165385 Z M22.1927324,89.5078427 C23.1049859,90.3748016 24.3225211,90.782919 25.4705493,91.2383789 C26.4715352,91.6350834 26.0325211,93.2696665 25.0211831,92.868735 C23.5909014,92.3012595 22.134,91.7832399 20.9975915,90.7032399 C20.2070282,89.952101 21.4042817,88.7586059 22.1927324,89.5078427 Z M32.2851972,41.0822067 C33.2880845,41.4757409 32.8488592,43.1103241 31.835831,42.7127742 C30.7123099,42.2718975 29.5520282,41.9362732 28.428507,41.4953965 C27.425831,41.1018622 27.8648451,39.4674904 28.8778732,39.864829 C30.0013944,40.3057057 31.1616761,40.6413299 32.2851972,41.0822067 Z M50.0893521,21.8476391 C51.1549859,21.6679914 51.6087887,23.2975022 50.5387183,23.4782067 C49.2111127,23.7024493 47.9037887,23.964735 46.6446338,24.4521088 C45.6278028,24.8456431 45.1915352,23.2102145 46.1952676,22.8217526 C47.4546338,22.3343789 48.7619577,22.0718818 50.0893521,21.8476391 Z M55.9720986,68.6792712 C54.9949859,68.1986607 55.8523099,66.741189 56.8249859,67.2194748 C57.8500563,67.7235452 58.9120986,68.1132751 60.0305493,68.3514669 C61.0955493,68.5784571 60.6419577,70.2081793 59.5811831,69.9820344 C58.3224507,69.7136196 57.1247746,69.2463241 55.9720986,68.6792712 Z M61.5282254,42.2995843 C62.580338,42.0113025 63.0252676,43.6427155 61.9775915,43.9301519 C60.1342817,44.4352791 58.2364648,44.6979875 56.3796338,45.1475295 C55.3213944,45.4036861 54.8737183,43.7729072 55.9302676,43.5171734 C57.7870986,43.06742 59.6851268,42.8051342 61.5282254,42.2995843 Z M85.098507,34.021416 C86.1683662,34.2194513 85.7124507,35.8487507 84.6493521,35.6519836 C83.5175915,35.4425354 82.3706197,35.4391538 81.2232254,35.4385198 C80.1339296,35.4380971 80.135831,33.7472947 81.2232254,33.7477173 C82.5267465,33.7483515 83.8135775,33.783647 85.098507,34.021416 Z M161.970338,42.8548016 C159.20907,42.5906137 156.443577,42.3792634 153.673859,42.2207507 C153.544775,42.2141988 153.418225,42.2059562 153.289141,42.1994043 C153.274563,42.1700266 153.255549,42.1423397 153.236324,42.1127507 C152.33231,40.7854708 151.666817,39.4584023 151.090056,37.9576039 C150.538648,36.5288759 150.004141,35.0559757 149.154845,33.7667389 C148.186183,32.2978544 146.878437,31.1485315 145.445197,30.1524376 C144.575831,30.7372438 143.769,31.4220188 143.030831,32.1477957 C142.254,32.9114043 141.058648,31.716007 141.83569,30.9521871 C142.491676,30.307146 143.191817,29.7113495 143.931887,29.1730403 C143.07731,28.6535413 142.205408,28.1653221 141.354845,27.6796391 C138.166606,25.8601245 134.902732,24.1775648 131.571042,22.639146 C130.022451,21.9224571 128.454845,21.2862928 126.876676,20.6416744 C126.027169,20.2952712 125.188648,19.8491108 124.339352,19.4477566 C124.40062,18.8473104 124.221042,18.1752164 123.760479,17.7799914 C123.420338,17.4904415 123.156254,17.3826528 122.75062,17.1778544 C122.659775,17.1459405 122.604845,17.126919 122.579493,17.1163515 C122.598507,17.1205785 122.653437,17.1374865 122.74407,17.1670755 C122.959775,17.2666215 122.976676,17.2368211 122.794986,17.0804219 C122.784423,16.7382458 122.110268,16.0154278 121.956254,15.6624728 C121.419634,14.4512243 121.252732,13.1704415 120.460479,12.067193 C119.368225,10.5475843 117.534423,9.9729229 115.825056,10.4884063 C115.647803,8.66022622 115.601324,6.75194442 114.912592,5.12010881 C114.893577,5.07593659 114.83231,5.05670372 114.804845,5.10531429 C114.086535,6.32924384 114.025268,7.69224188 113.970338,9.10406184 C113.917521,10.4292282 113.968014,11.7839836 114.141465,13.1006959 C114.031606,13.185236 113.919634,13.2657605 113.803437,13.3437487 C113.258366,13.7030442 112.671042,13.9799131 112.054141,14.1851342 C110.879493,14.5738074 109.647803,14.7428877 108.416113,14.8020658 C105.236535,14.954238 101.959775,14.6329855 98.8330141,14.0877018 C95.670338,13.5360775 90.8217465,12.7075843 88.007662,11.1245706 C86.1504085,10.0807115 84.4372394,8.80605793 82.7004085,7.57177221 C83.3301972,5.54280939 83.4907606,3.36167436 82.8569577,1.64762348 C82.7809014,1.4426137 82.4597746,1.40457065 82.398507,1.64762348 C82.0013239,3.28347476 81.8851268,4.92778004 81.3569577,6.54460978 C81.348507,6.56785832 81.3400563,6.5934317 81.3316056,6.61646888 C81.1668169,6.50466458 81.0020282,6.39455108 80.8372394,6.28464892 C80.4569577,6.03314207 79.9393521,6.22145519 79.7111831,6.58053933 C76.0623803,12.3313808 70.2844225,12.6610873 64.2168169,13.6884611 C57.5764648,14.8126333 50.9027324,16.025784 44.5182254,18.2259405 C38.4125915,20.3312008 32.5773803,23.39578 27.9548451,27.9736274 C26.9084366,29.0100892 25.9298451,30.1143945 25.0061831,31.2673104 C25.8998451,31.3799601 26.7861127,31.5553808 27.6609718,31.8303476 C28.6968169,32.155827 28.2516761,33.7876626 27.2116056,33.4607037 C26.0872394,33.107326 24.9504085,32.9325393 23.8019577,32.845463 C20.6610423,37.1439053 18.2120282,42.0178544 16.0942817,46.8152947 C12.0322394,56.0134708 9.38822535,65.8091342 8.17153521,75.7821205 C8.83956338,75.3816117 9.5196338,75.0001245 10.2166056,74.6452673 C11.1850563,74.1526098 12.0392113,75.6117722 11.0697042,76.1052751 C9.99308451,76.6530951 8.94730986,77.2569229 7.93407042,77.9116861 C7.49146479,82.2771264 7.31991549,86.6706763 7.42385915,91.0572517 C7.67104225,101.514864 9.08230986,112.278935 12.2745634,122.256782 C13.8400563,127.153768 15.9147042,132.010809 19.0055493,136.149048 C20.4041408,138.023514 21.9928732,139.714316 23.8647042,141.124023 C24.7710423,141.808798 25.7301972,142.419811 26.742169,142.935295 C28.0456901,143.603162 29.7442817,143.822966 30.8682254,144.767702 C31.2379437,145.078598 31.5231549,145.488406 31.7386479,145.951263 C31.614,146.830481 31.5992113,147.711811 31.8400563,148.591029 C31.9161127,148.865995 32.1231549,149.089815 32.3787887,149.197604 C32.3830141,149.27369 32.3830141,149.347663 32.3830141,149.419522 C32.3830141,149.453338 32.4337183,149.461792 32.4400563,149.428187 C32.4506197,149.362457 32.4611831,149.296939 32.4717465,149.229518 C32.5541408,149.256782 32.6407606,149.269674 32.729493,149.269674 C35.9386479,149.281721 39.1518169,149.203522 42.3651972,149.094465 C42.1167465,148.33297 41.8475915,147.578027 41.5892113,146.816532 C41.2382958,145.782183 42.8711831,145.342363 43.2189296,146.367201 C43.5212535,147.257408 43.8373099,148.139796 44.118507,149.033173 C47.5615352,148.905095 51.003507,148.751232 54.4393521,148.637737 C61.7470986,148.394473 69.0527324,148.31416 76.3623803,148.160085 C87.714,147.919357 99.1482254,147.426488 110.51738,147.908578 C110.910549,147.073745 111.35062,146.258144 111.767873,145.434723 C112.260127,144.462935 113.717873,145.319537 113.22731,146.288156 C112.937239,146.860281 112.636817,147.42522 112.351394,147.996289 C114.654,148.115913 116.954282,148.274003 119.249704,148.489792 C123.166606,148.85733 127.04569,149.510402 130.958366,149.916406 C134.936324,150.330441 138.828085,150.25668 142.774563,149.599381 C143.484423,149.481025 143.902732,149.051772 144.075972,148.519169 C144.082099,148.517056 144.086535,148.51304 144.090549,148.506488 C144.293366,148.269776 144.483718,148.073432 144.679986,147.902027 C144.914704,147.750066 145.168225,147.620931 145.466113,147.506802 C146.021746,147.295451 146.60062,147.166528 147.187944,147.079874 C147.834423,146.982864 148.489352,146.974199 149.135831,146.894097 C149.68069,146.824351 150.213296,146.720578 150.745479,146.59398 C151.702732,146.365721 152.611183,146.067717 153.515408,145.672281 C154.303437,145.327991 155.015197,144.833432 155.687239,144.294277 C157.07738,143.277682 158.281394,141.980203 159.333718,140.631577 C159.946394,139.84324 160.523155,139.025314 161.047099,138.173784 C161.959775,136.698348 162.737239,135.166058 163.523155,133.621087 C163.808366,133.163303 164.068648,132.694528 164.306535,132.215819 C162.77062,131.763107 161.219915,131.394089 159.591676,131.367882 C158.503225,131.35034 158.503437,129.659537 159.591676,129.677079 C161.45907,129.70688 163.225479,130.143318 164.980479,130.66324 C165.066042,130.436038 165.148014,130.207146 165.223859,129.975295 C165.433014,129.491514 165.606254,128.994629 165.749915,128.491616 C165.834211,128.263357 165.91893,128.035099 166.003437,127.806841 C166.193577,127.016391 166.383718,126.223827 166.575972,125.431263 C166.958366,124.163162 167.260268,122.876038 167.48231,121.572007 C167.668225,120.713925 167.811887,119.849502 167.90907,118.974512 C168.204845,116.854668 168.44569,114.739052 168.462592,112.59596 C168.437239,111.275021 168.352732,109.956195 168.20907,108.64371 C168.147803,107.751811 168.044282,106.86414 167.904845,105.982809 C167.723155,104.672438 167.543577,103.374958 167.241465,102.081283 C167.015408,101.206504 166.789352,100.331303 166.563296,99.4563123 C165.999211,97.6325706 165.333718,95.8443358 164.566606,94.0964689 C164.524563,93.9867781 164.310972,93.7456274 164.18231,93.7435139 C164.085127,93.7414004 163.949704,93.8301675 163.99407,93.948735 C163.998507,93.9590912 164.002521,93.9717722 164.006958,93.9823397 C163.962592,93.8830051 163.920338,93.7815569 163.875972,93.6822223 C163.837944,93.5892282 163.690056,93.4034513 163.575972,93.4055648 C163.569634,93.4055648 163.563085,93.4055648 163.554845,93.4074669 C163.584423,93.3865432 163.611887,93.3588564 163.639352,93.3273652 C164.397803,92.4291264 164.890056,91.2474669 165.433014,90.2076235 C165.883014,89.3495413 166.307662,88.444962 166.430197,87.4748642 C166.537732,86.6233339 166.392169,85.7840618 165.857662,85.0950599 C165.249211,84.3109503 164.104141,83.9432008 164.740056,82.8103632 C165.462592,81.5211264 166.525268,80.4030834 165.466817,78.9384258 C164.928085,78.1923593 164.074563,77.7825511 163.440761,77.1334943 C162.711887,76.3832008 162.365197,75.3792869 162.384423,74.354238 C162.428789,74.3796 162.487944,74.3671303 162.50907,74.3035139 C163.121746,72.4520853 162.678085,70.4191068 162.05062,68.6160775 C161.708366,67.637737 160.983507,67.3691108 160.140761,67.3207115 C163.791254,60.1876391 167.207451,52.9402262 170.252028,45.5260579 C170.353437,45.2830051 170.452732,45.0401636 170.551817,44.7968994 C170.699915,44.4333769 170.387239,43.9495961 170.025972,43.8690716 C167.393577,43.2920853 164.651324,43.1082106 161.970338,42.8548016 Z" id="ðŸ–-Ink" fill="#000000"></path>
                    </g>
                    <g id="head/Cornrows-2" transform="translate(78.591549, 38.043053)">
                        <path d="M32.5378042,12.5408519 L34.362507,14.7117558 C33.3521104,15.4240455 32.3983252,16.1397668 31.5011513,16.8589197 L31.500317,16.85676 C35.6561266,14.1442521 40.2586953,12.5408519 45.2307527,12.5408519 C54.8071453,12.5408519 74.2589814,20.7701859 78.65622,26.7060067 C80.8384203,29.6517532 84.8936105,38.6949361 86.9971217,48.5264802 C88.6872626,56.4259836 91.201055,78.7432573 88.6872626,87.1290694 C85.470031,97.8614988 74.8852981,107.780946 63.9711488,107.780946 C53.0569995,107.780946 36.1125435,99.8984542 24.0528815,82.6244143 C23.5014375,81.8345359 17.1689361,80.9189519 12.6515,77.9542773 L13.8375512,91.0258609 L14.7389865,98.629713 L14.5400611,99.1708711 C11.304651,107.924343 8.7407885,112.491062 6.84847363,112.871028 C4.91754009,113.258748 0.985183677,110.092277 -4.94859562,103.371615 L-5.70679734,100.187966 C-7.63263214,92.0667247 -8.59554954,87.7074622 -8.59554954,87.1101782 L-8.59421906,87.0013895 C-8.5658293,85.6269384 -8.09252043,77.8473911 -8.08276752,75.7538479 L-8.08261466,44.3759319 C-1.7010369,23.1525452 4.38877181,12.5408519 10.1868115,12.5408519 L32.5378042,12.5408519 Z" id="Path" fill="#FFFFFF"></path>
                        <path d="M17.4167324,5.31300822 C19.293,4.58596321 21.4667324,4.7233409 23.2477183,5.81813542 C26.7444085,5.66807671 30.2218732,7.71394755 32.0449014,10.7003272 C32.0829296,10.7425973 32.1232817,10.7848673 32.1591972,10.8271374 L32.5455664,11.277628 C32.9114357,11.7078209 33.2973239,12.1819773 33.603,12.6715914 C32.1055352,12.7058301 30.858,13.3164211 29.9871549,14.5496501 C29.3658194,15.4295934 30.789173,16.2657784 31.4242502,15.4335183 L31.4465915,15.4030826 C31.9694789,14.6627225 32.7587746,14.3759202 33.6374366,14.3609143 C33.8896901,14.3566873 34.0810986,14.2601002 34.2163099,14.1176501 C34.2701831,14.3139945 34.3183521,14.5124524 34.362507,14.7117558 C38.7868732,12.9903076 43.5564507,12.534425 48.3068028,12.9427538 C48.098493,13.2800689 47.9244085,13.6414779 47.7904648,14.0212744 C47.6385634,14.4517949 47.9626479,14.9461432 48.3807465,15.0611178 C48.8328526,15.1853984 49.2415376,14.9203232 49.4051241,14.5106901 L49.4201831,14.4706051 C49.6027183,13.9532196 49.9008169,13.5091726 50.3009577,13.164883 C52.5372254,13.4681706 54.7576479,13.950472 56.9237746,14.5722646 C59.5272254,15.3202333 62.106169,16.2330552 64.6282817,17.2781824 C64.2010986,17.4457832 63.8320141,17.7289926 63.5736338,18.2017832 C63.0578063,19.145505 64.4759417,19.9907988 65.0140103,19.0885895 L65.0330704,19.0552157 C65.0858404,18.9584642 65.1326009,18.9002881 65.1668234,18.8671794 L65.1790563,18.8559123 L65.2534225,18.8216736 L65.3920141,18.7819397 L65.3920141,18.7819397 L65.445225,18.7688723 C65.4921712,18.7582923 65.5116728,18.7589676 65.6351831,18.7521393 C65.7995493,18.7428399 65.9641268,18.7436853 66.1287042,18.743474 C66.5157465,18.7432626 66.7627183,18.527474 66.8744789,18.2514505 C68.1190563,18.8134309 69.3477887,19.4052117 70.5547606,20.0251022 L70.8417042,20.173702 C74.5672264,22.1210102 78.0966972,24.6782959 80.1441972,28.4410708 C80.2796197,28.6925777 80.321662,28.9673331 80.2880704,29.2294074 C80.7251831,29.7535562 81.1477183,30.2946129 81.5533521,30.8441237 C82.7913803,32.526472 83.6977183,34.4391922 84.5554648,36.3350043 C86.2815211,40.1477636 87.443493,44.0640845 88.349831,48.1473722 C89.2268028,52.0827147 89.934338,56.0603272 90.5915915,60.0379397 C91.3202535,64.4572744 91.9265915,68.9146521 92.0535634,73.3973918 C92.277507,81.3885464 90.7160282,89.426198 86.2308169,96.1534779 C82.2296197,102.155826 76.2042676,106.921775 69.0589859,108.447724 C61.7913803,109.999036 54.1012394,108.485768 48.3739859,103.641619 C47.4505352,102.861736 47.577507,101.287177 48.3739859,100.488272 C49.2760986,99.5879202 50.6068732,99.7126168 51.5258873,100.488272 C56.9195493,105.051325 64.7702535,105.755122 71.2690563,103.430268 C77.277507,101.278723 81.984338,96.3162176 84.8723662,90.7429104 C88.3963099,83.9458849 88.9901831,76.1386051 88.4491268,68.6187616 C88.1535634,64.4889769 87.5385634,60.3930082 86.9047606,56.30338 L86.5221979,53.8416468 C86.1048086,51.1752613 85.6663223,48.5125109 85.0944085,45.8732431 L84.9605282,45.2583495 C84.2615417,42.0756431 83.4428015,38.8113252 82.1768028,35.8193096 C81.5132113,34.2489769 80.714831,32.7357088 79.8972254,31.2414622 C79.7387746,30.9519123 79.5758873,30.6581354 79.4089859,30.362245 C79.1850423,30.4404446 78.9294085,30.4531256 78.6610986,30.3685855 C76.3519437,29.6499945 73.9794085,29.1681159 71.564831,29.0074896 C70.4647606,28.9339397 69.363,28.9225268 68.262507,28.9654309 C66.3786338,28.8557401 64.4421549,29.0214387 62.6476479,29.5992705 C62.4720845,29.4485777 62.2941972,29.3010552 62.1160986,29.1535327 C62.0681408,29.1497284 62.0201831,29.144656 61.9720141,29.1351452 C61.5141972,29.04511 61.1922254,28.7196305 60.9982817,28.3085542 C60.9881408,28.2867851 60.9790563,28.265016 60.9703944,28.243247 C60.7407465,28.0676149 60.5091972,27.8947303 60.2755352,27.7241706 C59.7059577,27.8719045 59.2069437,27.3978458 59.0725775,26.8783468 C58.9458169,26.7927499 58.8169437,26.7099006 58.6889155,26.6259945 C58.5885634,26.6505112 58.4888451,26.6708008 58.391662,26.6779867 C57.9722958,26.7082098 57.5672958,26.6439593 57.1956761,26.4438106 C56.7251831,26.1904016 56.4245493,25.7816501 56.2234225,25.3173135 C55.5118732,25.361063 54.7918732,25.1300571 54.1557465,24.712429 C53.6394085,24.3736344 53.2439155,23.9059162 52.8507465,23.4390434 C48.0596197,21.3012352 42.8514507,20.0390513 37.6310282,19.7156853 C37.1168028,19.8145973 36.606169,19.9323194 36.1018732,20.0692744 C35.982507,20.1018223 35.8130704,20.1656501 35.6180704,20.2421589 C36.7819437,20.1013996 37.9608169,20.0874505 39.1563803,20.259701 C44.8297606,21.0803742 49.2484225,25.3297832 53.0514507,29.3410004 C53.9560986,29.1581824 54.8704648,30.3301198 54.0332113,31.106198 L47.5056761,37.1573683 L47.5056761,37.1573683 C47.6658169,37.8341119 46.8900423,38.5011335 46.2103944,38.3386051 C45.0708169,38.0646951 43.929338,37.7983937 42.7870141,37.5365307 C41.5954648,38.1133057 40.0973662,38.0146051 39.0165211,37.1785033 C38.9662394,37.1396149 38.8570141,37.0774779 38.7621549,37.0157636 C38.6734225,37.0891022 38.5540563,37.1626521 38.5065211,37.1939319 C38.1222254,37.4483977 37.6540563,37.5232157 37.2051127,37.4517793 C36.7432817,37.3784407 36.3264507,37.1440532 35.9670845,36.8521785 C35.7383021,36.6662584 35.2052153,35.8904929 34.9085487,35.833358 L34.8796901,35.8300885 C35.0776479,35.8357949 34.4413099,36.4273644 34.2703944,36.5497362 C33.8715211,36.834425 33.4306056,36.9840611 32.934338,36.9295327 C32.0694032,36.8343299 31.3257734,36.04577 30.9027888,35.3176452 L30.8708873,35.2617675 L30.8575775,35.2271061 L30.8463412,35.2646012 C30.8442441,35.2712313 30.8418732,35.2783233 30.8389859,35.2862841 C30.7756056,35.4576892 30.5765915,35.6525542 30.4413803,35.7723898 C30.0560282,36.1132978 29.5789859,36.2631452 29.0694085,36.1741667 C28.6380951,36.099074 28.2754225,35.8383877 27.9839267,35.5229388 L27.938493,35.4726951 C27.8522446,35.3753459 27.284053,34.6116373 27.373755,34.4286151 L27.3841268,34.4131961 L27.3558169,34.4072783 C27.0101831,34.4922411 26.7201127,34.4070669 26.5075775,34.2288986 C25.3215211,33.9689378 24.1508873,33.6660728 23.0176479,33.2809926 C22.9289155,33.5303859 22.8420845,33.7797793 22.7577887,34.0312861 C23.3765915,34.4138301 23.9491268,34.9591139 24.4751831,35.3479984 C25.4725775,36.0834975 26.4695493,36.8189965 27.4646197,37.556609 L31.4072958,40.4660571 L31.4072958,40.4660571 L31.8581408,40.3449534 L31.8581408,40.3449534 C32.4342852,40.1902274 32.9285552,40.5257411 33.1400093,41.0386021 L33.1574366,41.0829886 C33.2413099,41.307654 33.3422958,41.5154114 33.4610282,41.714292 C34.4465915,41.6749808 35.2810986,42.2802881 35.5508873,43.1485151 C35.7942676,43.14302 36.0401831,43.1523194 36.2915915,43.1800063 C36.9800986,43.2556415 37.4442033,43.767123 37.3195298,44.4694626 L37.3101127,44.5176423 L37.2934225,44.5958419 C37.692507,44.7653448 37.9819437,45.0927264 38.046169,45.5877088 C38.1530704,45.7485464 38.2392676,45.9235444 38.2944085,46.1184094 C38.5823933,47.1295309 38.022158,48.3794268 37.7237415,49.3480515 L37.7007465,49.423928 C37.5092113,50.0605151 37.3109831,50.6940587 37.1104428,51.327298 L36.6109175,52.8994962 C35.225825,57.2812452 33.8754056,61.9010886 34.9963099,66.4946912 C35.2352535,67.4669025 33.9927887,67.9065112 33.4540563,67.1456501 C32.148,65.3035209 30.7369437,63.567701 29.2553239,61.9014153 L29.183493,61.8900023 L29.183493,61.8900023 C28.1459577,61.6813996 27.7430704,60.9482254 27.2668732,60.2008908 C26.9863099,60.2835288 26.6846197,60.302973 26.3930704,60.2467538 C25.9709577,60.165384 25.5927887,59.9242333 25.2942676,59.6196775 C25.0413803,59.3614074 24.8096197,58.6990356 24.5106761,58.5348164 C24.1367324,58.3295953 23.3850423,58.6229495 22.9384225,58.5570082 C22.5752535,58.5035366 22.236169,58.3788399 21.9072254,58.2222294 C21.3025775,59.0467068 20.9018028,60.0159593 20.8035634,61.0608751 C20.7653239,61.4582137 20.6470141,61.7942607 20.4758873,62.0732431 C21.1054648,62.0499945 21.7371549,62.0943781 22.3606056,62.2106207 C24.6676479,62.6396618 26.3218732,64.0641628 27.2514507,66.1861198 C27.2913803,66.2791139 27.1709577,66.3552 27.1160282,66.2664329 C25.736662,64.1423624 22.734338,64.0345738 20.5540563,64.7827538 C18.2385634,65.5774309 16.9392676,67.6169613 16.4768028,69.943928 C15.9697606,72.494926 16.6202535,75.2445933 18.008493,77.4172744 C18.6526479,78.4275288 19.5317324,79.349016 20.699831,79.7209926 C22.0880704,80.1627147 23.3702535,79.3722646 24.7920845,79.7801706 C25.7596901,80.0570395 26.186662,80.9933213 26.0110986,81.9296031 C25.9413803,82.2973526 25.812507,82.6186051 25.6392676,82.8975875 C26.1507465,83.9120689 26.6237746,84.9561393 27.2258873,85.9156697 C28.1554648,87.3972352 29.2796197,88.6230669 30.5047606,89.8594661 C31.7702535,91.1360219 33.0589859,92.3872157 34.4132113,93.5707773 C35.7106056,94.7057284 37.1979296,95.5130865 38.558493,96.5529299 C39.5134225,97.2820885 39.9864507,98.3050239 39.5153239,99.4759045 C39.1268028,100.443889 37.8167324,101.268155 36.756169,100.83066 C34.7258873,99.9937127 32.9491268,98.5692117 31.3310282,97.1024407 C29.8310282,95.7413448 28.5251831,94.1139476 27.5385634,92.3470591 C26.6078366,90.6812806 25.9220478,88.7895569 25.3434397,86.9673307 L25.271662,86.7399358 C24.9991268,85.8733996 24.7120141,84.8990748 24.5260986,83.9162959 C23.4127183,84.5249847 21.9019437,84.6137519 20.7106056,84.4488986 C18.7857465,84.1847108 17.0301127,83.2146129 15.7033521,81.8006795 C15.0849718,81.142746 14.5384225,80.3922411 14.0664507,79.5787538 C14.109338,80.0739476 14.1349014,80.5530787 14.1623662,80.9890943 C15.2653944,82.1975953 15.7077887,83.9416579 15.3163099,85.5329143 C16.2391268,86.4831452 16.4977183,87.9095483 16.0160282,89.1239671 C17.0260986,90.1261902 16.9880704,91.7210395 16.5513803,93.1694231 C17.7454648,94.5045229 17.858493,96.5844211 16.926169,98.090926 L16.8980704,98.1991374 L16.8980704,98.1991374 C17.8394789,99.7749652 17.6271549,101.811537 16.4476479,103.203067 C17.2532113,104.766214 17.1285634,106.868726 15.1153944,107.475302 C14.381662,107.696163 13.6705352,107.507638 13.1383521,107.096351 C13.6242676,109.513987 13.841662,111.968398 13.1937042,114.397235 C12.9357465,115.360993 11.993493,116.064789 11.0026479,116.064789 C10.1744789,116.064789 9.5723662,115.648429 9.15638028,115.035513 C9.20497183,116.255004 9.13102817,117.480836 8.87116901,118.717235 C8.71440845,119.463936 8.02208451,120.046206 7.28708451,120.226488 C7.55222535,120.525548 7.65785915,120.958182 7.40370423,121.40857 C6.32602817,123.317063 3.72215493,122.525556 3.54616901,120.697165 C2.81074648,120.148077 2.46891549,119.246456 2.3273662,118.272343 C2.12116901,116.851646 2.04638028,115.454409 1.81271831,114.051889 L1.72339124,114.135474 L1.72339124,114.135474 L1.67729577,114.175317 L1.66250704,114.276766 C1.52856338,114.969995 1.13771831,115.455466 0.630464789,115.745016 C0.740746479,116.954362 0.536661972,118.185901 -0.230239437,119.104218 C-0.741084507,119.716288 -1.61129577,119.957227 -2.35728169,119.824499 C-2.4041831,119.826824 -2.45214085,119.826613 -2.502,119.820061 C-4.19150704,119.595396 -5.16904225,117.992304 -4.72432394,116.520883 C-5.40460563,115.686895 -5.69108451,114.628664 -5.48974648,113.582903 C-6.80615493,112.710871 -6.77932394,110.795615 -6.32340845,109.257196 C-7.70340845,108.167685 -8.22249296,106.130903 -7.52911268,104.512171 C-8.77284507,102.966989 -8.94587324,100.813752 -8.10080282,99.0542607 C-9.4691831,97.9296658 -9.4613662,95.7584642 -8.1041831,94.6082959 C-8.82692958,93.173016 -9.26277465,91.4532587 -8.5404507,90.1397166 C-9.05002817,89.5771022 -9.32974648,88.7752391 -9.27080282,88.000429 C-9.18439437,86.862519 -8.43185915,86.0762959 -7.49805634,85.5523585 L-7.43340845,85.1964446 L-7.43340845,85.1964446 C-7.21411268,85.2237088 -6.9804507,85.1624172 -6.77446479,84.9645933 C-6.57059155,84.7686716 -6.36080282,84.610793 -6.14383099,84.4806012 C-5.89812676,84.4774309 -5.68664789,84.3679515 -5.53791549,84.1995053 C-5.13101408,84.0612822 -4.69347887,84.000202 -4.20819718,83.9947068 C-3.16009859,83.9832939 -3.12312676,82.4152861 -4.0985493,82.3136266 C-4.25256338,82.1582841 -4.46467606,82.060429 -4.69474648,82.060429 L-4.87490163,82.0611542 C-5.29610321,82.0651678 -5.72134859,82.0911276 -6.11214085,82.2586755 C-6.36608451,82.3673096 -6.56192958,82.5311061 -6.70538028,82.7314661 C-6.73221127,83.0345425 -6.897,83.3367734 -7.25383099,83.5863781 C-7.66601408,83.8746599 -8.22967606,83.9082646 -8.67080282,83.6474583 C-9.28833803,83.282245 -9.29467606,82.7122333 -9.22347887,82.0925542 C-9.06756338,80.7369534 -9.84671831,79.4612431 -9.66122535,78.0743624 C-9.57904225,77.4612352 -9.37495775,76.9318027 -9.04221127,76.5042411 C-9.74383099,75.4536188 -9.8676338,74.097384 -9.32742254,72.9440454 C-10.4528451,71.7327969 -10.6474225,69.8657284 -9.92974648,68.4080454 C-9.91939437,68.3727499 -9.9113662,68.336609 -9.90016901,68.3017362 C-9.81904225,68.0540337 -9.70728169,67.8306364 -9.58411268,67.6169613 C-10.2141127,66.5251256 -10.2094648,65.1853761 -9.56911268,64.0981902 C-10.5390423,62.9670434 -10.5698873,61.166973 -9.70728169,59.9483272 C-9.70221127,59.8473018 -9.69164789,59.7462763 -9.68298592,59.6452509 C-10.0789014,58.6170317 -9.98383099,57.4480532 -9.48164789,56.4919045 C-9.66080282,56.0787147 -9.79897183,55.6338223 -9.88728169,55.159975 C-10.1135493,53.9383703 -9.99714085,52.7505816 -9.65911268,51.5585659 C-9.60439437,51.3704642 -9.54312676,51.1823624 -9.4776338,50.9942607 C-9.46664789,50.1778145 -9.43559155,49.3649613 -9.39460563,48.5535875 C-9.55524824,47.8667519 -9.58115163,47.1119539 -9.58469284,46.4112427 L-9.58570604,45.9568666 C-9.5935734,44.8005422 -9.67413615,43.1074474 -8.94333803,42.1245229 C-9.41256338,41.062699 -9.21967606,39.7248517 -8.43650704,38.8832548 C-8.98622535,37.9374622 -9.10157746,36.7760924 -8.54911268,35.7267382 C-8.46038028,35.5578693 -8.35749296,35.4006247 -8.24467606,35.2518341 C-8.29030986,34.2908243 -8.08812676,33.2998027 -7.57622535,32.3447108 C-7.24369014,31.7229182 -6.747,31.184609 -6.15650704,30.7538771 C-6.16643662,30.6264329 -6.17256338,30.4992 -6.1704507,30.3738693 C-6.16009859,29.8146364 -6.03608451,29.2530787 -5.82735211,28.7291413 C-6.20192958,28.0895953 -6.37559155,27.3686795 -6.15650704,26.5917558 C-5.91143662,25.7125386 -5.26685915,24.9559045 -4.46214085,24.5289769 C-4.39728169,23.7000611 -4.26777465,22.8760063 -4.08270423,22.0629417 C-4.57728169,20.9611726 -4.18347887,19.5070826 -3.06566197,18.8580258 C-3.21143662,17.9775405 -3.08002817,17.0645072 -2.43946479,16.3767734 C-2.19671831,16.1161785 -1.91066197,15.9185659 -1.60284507,15.7875288 C-1.75115493,14.9021824 -1.58383099,13.9811178 -0.971788732,13.260202 C-0.471929577,12.6715914 0.268774648,12.3139867 1.02257746,12.2613605 C1.31285915,10.7214622 2.78349296,9.57002583 4.33504225,9.66175186 C4.52898592,8.98374012 4.99229577,8.39259335 5.71102817,8.09289863 C5.89504225,8.01617847 6.08095775,7.96566575 6.26623944,7.93755616 C7.52792958,6.664382 9.40630986,5.80143875 11.0324366,5.35950528 C12.6635684,4.91798446 14.3170475,4.87524713 15.7175304,5.38858164 L15.8195493,5.42713738 L15.9336338,5.41234286 C16.4282113,5.35739178 16.9223662,5.32568924 17.4167324,5.31300822 Z M5.02166197,109.664257 C4.58602817,109.528359 4.10011268,109.825094 3.98201408,110.254558 C3.8573662,110.708539 4.13497183,111.158292 4.57229577,111.294613 C5.11715493,111.464539 5.68947887,111.50702 6.2573662,111.507443 C6.71391549,111.507865 7.10243662,111.118558 7.10243662,110.662041 C7.10243662,110.2032 6.71560563,109.817063 6.2573662,109.81664 C5.79553521,109.816218 5.4545493,109.79931 5.02166197,109.664257 Z M1.14638028,100.686307 C0.495042254,100.686942 -0.0635492958,100.842495 -0.546507042,101.299012 C-0.868478873,101.603568 -0.876507042,102.191756 -0.546507042,102.494832 C-0.213199611,102.800722 0.270379629,102.818559 0.612529374,102.52723 L0.678422535,102.468123 C0.68634507,102.46091 0.692471831,102.455204 0.69743662,102.450449 C0.724901408,102.432695 0.752577465,102.414519 0.781732394,102.399302 L0.726610285,102.435335 C0.684655546,102.46565 0.781995771,102.416159 0.836581004,102.392773 L0.853774648,102.385775 L0.859267606,102.384507 L0.903,102.381126 C0.983915493,102.376899 1.06525352,102.37711 1.14638028,102.37711 C1.58835211,102.376687 2.01173239,101.988648 1.9914507,101.531708 C1.97074648,101.073924 1.62004225,100.685885 1.14638028,100.686307 Z M13.437507,95.3226599 C14.3522606,94.7615223 13.5351933,93.3262943 12.6178187,93.8431167 L12.5846197,93.8626521 C12.114338,94.1513566 11.5358873,94.1122568 11.0030704,94.1124681 C9.91567606,94.1131022 9.91377465,95.8039045 11.0030704,95.8032708 L11.1831083,95.8026058 C11.9641893,95.7966129 12.7542223,95.7420543 13.437507,95.3226599 Z M6.23856338,89.1514427 C5.54745145,89.0212954 4.77328852,88.905185 4.04612994,88.9844337 L3.92539437,88.9994818 L3.70166197,88.9994818 C3.50729577,88.9994818 3.31905634,89.0776814 3.168,89.2006873 C2.92884507,89.3000219 2.7023662,89.4331726 2.49574648,89.6121863 C1.67243662,90.3263389 2.87222535,91.5179319 3.69088732,90.8080063 C3.73635211,90.7684415 3.78911831,90.7359105 3.84777972,90.7092228 L3.89285915,90.6902841 L4.79687324,90.6902841 C4.87905634,90.6902841 4.95912676,90.6731648 5.03708451,90.6484368 C5.33053521,90.6888047 5.60391549,90.746926 5.78919718,90.7817988 C6.85229577,90.9819476 7.30778873,89.3526481 6.23856338,89.1514427 Z M5.46680282,72.9239671 C4.14215493,72.3093605 2.67511268,72.3137988 1.44997183,73.1672313 C0.573922121,73.7775314 1.38768108,75.2167604 2.27127526,74.6483962 L2.30285915,74.6272391 C2.41271831,74.5507303 2.52553521,74.4866912 2.63961972,74.4285699 C3.26159155,74.608429 3.88763798,74.6168936 4.48893767,74.3957405 L4.56722535,74.3655875 L4.61391549,74.3837636 C5.59419718,74.8385894 6.4536338,73.3817519 5.46680282,72.9239671 Z M19.8915423,70.2747546 C18.5533732,70.1246959 18.5425986,68.0099249 19.8915423,68.1612517 C22.7396408,68.4808133 25.3238662,69.7474356 27.2166127,71.9226528 C28.0969734,72.9343134 26.6471756,74.4143414 25.7502985,73.4477875 L25.7227394,73.4171108 C24.217669,71.68742 22.1865423,70.5321793 19.8915423,70.2747546 Z M4.9001831,59.4172039 C4.60271831,59.384656 4.30588732,59.368382 4.01370423,59.3825425 C3.31187324,59.4163585 2.45708451,59.8847108 2.76511268,60.7309573 C3.01208451,61.4089691 3.82166197,61.4358106 4.22138028,61.0741902 C4.38764789,61.0782059 4.55370423,61.0891961 4.71912676,61.1061041 C5.16046479,61.1515444 5.59757746,61.2356618 6.03257746,61.3214701 C7.09504225,61.5304955 7.54990141,59.9011961 6.48194366,59.6909025 L6.0095757,59.5974065 C5.85041197,59.5662587 5.68979577,59.5357714 5.52849296,59.5078732 C5.43197384,59.4598665 5.32846996,59.4275428 5.21784827,59.4192872 L5.16194366,59.4172039 L4.9001831,59.4172039 Z M-3.49664789,46.2997479 L-3.59591152,46.2862892 C-5.02302039,46.1036364 -7.31389169,46.2717064 -7.48707042,48.0890395 C-7.58277465,49.0954896 -6.12925352,49.1586834 -5.84235211,48.298065 C-4.7885493,48.1080611 -3.72608451,48.0717088 -2.67946479,48.1871061 C-2.28016901,47.7813135 -2.277,47.0012196 -2.94164789,46.8065659 C-3.0354507,46.5542137 -3.23129577,46.3380023 -3.49664789,46.2997479 Z M29.1241268,43.2303076 C28.794338,42.9274427 28.253493,42.8872861 27.9289859,43.2303076 C27.7420141,43.4277088 27.5858873,43.6470904 27.4622958,43.8884524 L27.3800579,44.051427 C27.3661221,44.0784798 27.3518732,44.1053683 27.3370141,44.131928 C27.309338,44.1811726 27.2782817,44.2280924 27.2480704,44.2758575 L27.2277359,44.2958301 C27.2196549,44.30402 27.2101479,44.3139006 27.1988451,44.3259476 C26.894831,44.6474114 26.856169,45.2068556 27.1988451,45.5215562 C27.5286338,45.8244211 28.0692676,45.8645777 28.3939859,45.5215562 C28.5807465,45.324155 28.7368732,45.1049847 28.8606761,44.8634114 L28.9427574,44.7005933 C28.956662,44.6735718 28.9708873,44.6467068 28.9857465,44.6201472 C29.0134225,44.5706912 29.0446901,44.5237714 29.0746901,44.4760063 L29.108351,44.4424214 C29.1131805,44.4374216 29.1184225,44.4319397 29.1241268,44.4259162 C29.4281408,44.1046638 29.4665915,43.5450082 29.1241268,43.2303076 Z M11.7946901,41.0286716 C10.6039859,40.1845386 9.18807042,40.1452274 8.09349296,41.1607656 C7.30356092,41.8937702 8.46415434,43.0681942 9.26067621,42.3813909 L9.2886338,42.3563742 C9.31757746,42.3293213 9.34694366,42.3056501 9.37609859,42.2830356 C9.51891549,42.4047734 9.70039437,42.4819162 9.90785915,42.4821276 C9.96208451,42.4822685 10.016216,42.4821276 10.0703161,42.4832705 L10.1514507,42.4861432 L10.1949718,42.4897362 L10.2004648,42.490793 L10.2384768,42.5069558 C10.3079748,42.5383196 10.4038879,42.5867276 10.2722958,42.5043194 C10.301662,42.5197479 10.3291268,42.5379241 10.3570141,42.5556775 L10.4056056,42.5998497 C10.7241972,42.9012352 11.2753944,42.9409691 11.591662,42.6076697 C12.1517324,42.4182998 12.4489859,41.4921628 11.7946901,41.0286716 Z M23.4361044,38.2589808 L23.4577183,38.2521628 C24.5018028,37.9539476 24.0579296,36.3221119 23.0083521,36.6215953 C21.8947606,36.9396775 21.363,37.9763507 21.1403239,39.0381746 C21.0467324,39.4847577 21.2713099,39.9520532 21.7306056,40.0782294 C22.1501831,40.1934153 22.6760282,39.9366247 22.7702535,39.4877166 C22.8363227,39.1720362 22.9125187,38.9042152 23.0331269,38.6556713 L23.1061189,38.5137953 C23.1402607,38.4491273 23.152165,38.4383926 23.2673662,38.3377597 C23.2867089,38.3208517 23.3746588,38.2798967 23.4361044,38.2589808 Z M5.75180282,29.7434114 L5.58850429,29.7061522 C4.57135229,29.483256 3.22132686,29.3668544 2.60708451,30.3755601 C2.04722535,31.2945112 3.4595493,32.1310356 4.04116901,31.2623859 C4.05004225,31.2621041 4.06023005,31.262198 4.07210798,31.2631687 L4.09123944,31.2653448 L4.35194366,31.2442098 C4.67666197,31.2418849 4.98743662,31.2993722 5.30243662,31.3739789 C6.36004225,31.624429 6.81152113,29.9944955 5.75180282,29.7434114 Z M42.2664507,23.2435444 C43.0365211,22.4731726 41.8418028,21.2771413 41.0715211,22.0481472 C40.4624366,22.6574701 39.8749014,23.27102 39.4789859,24.0451961 C39.2713099,24.4514114 39.3729296,24.9624564 39.7821549,25.2019162 C40.1596901,25.4227773 40.7296901,25.3065346 40.9384225,24.8986286 C41.2815211,24.2275914 41.7146197,23.7960141 42.2664507,23.2435444 Z M32.5494085,21.2213448 C31.7886338,21.6719436 31.296169,22.4142059 30.9972254,23.2733448 C30.8472254,23.7044994 31.1681408,24.1980023 31.587507,24.3131883 C32.0381805,24.4370593 32.449993,24.1729631 32.6120477,23.7628151 L32.6269437,23.7226755 C32.7070141,23.4929378 32.8350423,23.221564 32.9932817,23.0167656 C33.128493,22.8419789 33.3387042,22.6669808 33.4971549,22.6088595 C33.8780704,22.4689456 34.1480704,22.1235992 34.1127887,21.7203429 C33.4863803,21.9369769 32.9047606,21.676382 32.5494085,21.2213448 Z M9.77539437,17.5438497 C9.00785915,16.8311765 7.97814085,16.7367029 7.04771831,17.1680689 C6.63342254,17.359975 6.52969014,17.9574622 6.7445493,18.324789 C6.993,18.7498145 7.48504225,18.8208282 7.90060563,18.6280767 C7.79391549,18.6775327 7.98659155,18.6122254 8.06983099,18.5883429 C8.08047887,18.5932885 8.21998521,18.5869353 8.26810986,18.5876181 L8.32599296,18.5912753 C8.32646831,18.5916716 8.31226056,18.5914074 8.28342254,18.5904564 C8.32398592,18.5996149 8.36407981,18.6105581 8.40357903,18.6231609 L8.45393277,18.6406002 C8.42856019,18.6353159 8.54273559,18.7097653 8.57448977,18.7344843 L8.58025352,18.739247 C9.37673239,19.4787616 10.574831,18.2859006 9.77539437,17.5438497 Z" id="ðŸ–-Ink" fill="#000000"></path>
                    </g>
                    <g id="face/Cute" transform="translate(112.183099, 77.354207)" fill="#000000">
                        <path d="M37.5070775,43.3980564 C38.2319366,42.1185417 40.3948944,42.3265104 40.7255282,43.8188548 C41.3963028,46.8441229 37.7901761,49.6377511 35.0513028,49.7074967 C32.3295423,49.7766082 29.275669,47.4591523 29.6696831,44.5319507 C29.7670775,43.8078646 30.733838,43.8957863 31.0634155,44.3497667 L31.1913706,44.5239266 C32.0865256,45.7269681 33.2676744,46.9721687 34.9289789,46.678847 C35.6175,46.5575319 36.2428521,46.1272227 36.6590493,45.5732736 C37.1610211,44.9047726 37.1058803,44.1065025 37.5070775,43.3980564 Z M20.2003099,21.2653268 C20.5691831,21.1636673 20.9414366,21.2029785 21.2682676,21.342047 C21.9979859,21.4758317 22.607493,22.0845205 22.8217183,22.7794403 C22.8386197,22.8396047 22.857493,22.8990176 22.8782754,22.9578043 L22.9108732,23.0455303 L22.8234085,22.8227671 C22.8637606,23.0421487 23.0422817,23.2727319 23.106507,23.4929589 C23.1855211,23.7636986 23.2047465,24.0712133 23.1781268,24.3692172 C23.4100986,24.3715421 23.6420704,24.379362 23.8736197,24.3994403 L24.0973742,24.4194999 C25.3487071,24.5358404 26.7224956,24.749241 27.4643239,25.8309159 C27.8809437,26.4387593 27.4898873,27.5331311 26.7244648,27.6502192 C25.5462254,27.830501 24.5312958,27.178274 23.3570704,27.0476595 C22.2470704,26.9240196 21.0855211,26.9948219 19.9898873,27.1953933 C17.7278704,27.6090989 15.6492649,28.5263118 13.4449116,29.1018409 L13.1448169,29.1780705 L13.1448169,29.1780705 L13.1452394,29.176591 C12.767493,29.2678943 12.3386197,28.7424775 12.7123521,28.4351742 C14.478338,26.9838317 16.7393239,25.8076673 18.9667183,25.0914012 C18.6422113,24.5750724 18.5418592,23.8949472 18.7636901,23.3405753 C18.7980423,23.2256853 18.8406845,23.1139909 18.8856389,23.0026161 L18.9793944,22.7735225 L18.9793944,22.7735225 C18.9884789,22.6655225 19.0091831,22.5587906 19.0391831,22.4541722 L19.0440423,22.4222583 L19.0440423,22.4222583 L19.0467887,22.4241605 L19.0467887,22.4241605 C19.2126338,21.8850059 19.6457324,21.4183444 20.2003099,21.2653268 Z M42.7309437,21.3487679 C43.2139459,20.8653709 43.8926359,20.9368065 44.3966638,21.3172489 L44.4635493,21.3696916 L44.4635493,21.3696916 C44.9386901,21.5808305 45.3318592,22.0422082 45.5900282,22.4697699 C45.8581268,22.9138168 46.0362254,23.3661065 46.0431972,23.8549597 C47.2123521,23.858764 48.3322817,24.2096055 49.190662,25.1539186 C49.4678451,25.4586857 49.6571408,25.9287288 49.5046056,26.3419186 L49.4137606,26.587719 L49.4137606,26.587719 C49.1255189,27.3681068 47.8296599,27.8173376 47.3892207,26.8996047 L47.3689014,26.8548658 C46.9009437,25.7651436 45.1045352,25.8794841 44.1498169,25.9908658 C43.4843239,26.068854 42.8270704,26.2343413 42.1843944,26.4196955 C41.9579683,26.4850027 41.7335625,26.5558976 41.5093944,26.6282784 L41.2852394,26.7010027 C41.165662,26.7396798 40.5428451,27.0780517 40.9303099,26.9979499 C41.0344648,26.9763922 41.1128451,27.1281417 41.0065775,27.1790771 C40.5447465,27.3999382 40.0520704,26.9601182 40.0829155,26.4638677 C40.1363324,25.602442 41.5037388,25.1301304 42.1617045,24.8330929 L42.2010845,24.8151241 C42.453338,24.6984587 42.7176338,24.5866544 42.9903803,24.4828814 C42.837,24.2546231 42.7102394,24.0010027 42.6048169,23.7287836 C42.5050986,23.4717816 42.4385493,23.2219656 42.402,22.9486896 C42.3660845,22.8151162 42.3660845,22.6815429 42.402,22.5477581 L42.407493,22.5095037 L42.407493,22.5095037 C42.3889014,22.4211593 42.3800282,22.329856 42.3812958,22.2379186 L42.377493,22.2022004 L42.3812958,22.2022004 C42.3941831,21.8803139 42.522,21.5577933 42.7309437,21.3487679 Z M35.0137183,30.5223851 C36.8692817,31.0959898 39.9305493,32.6585025 38.9635775,35.0702207 C37.6133662,37.2851718 34.0325915,35.6573519 32.2974507,34.9417198 C30.738507,34.4251796 29.9268169,36.610753 31.4342113,37.2695319 C43.890338,42.1992775 43.844493,29.1887648 35.4654085,29.3798254 C34.5428028,29.4007491 34.5138592,30.3317472 35.0137183,30.5223851 Z M18.53381,13.5578869 L18.850331,13.4654865 C20.4950493,12.9888916 22.173993,12.1658935 23.6342746,13.4500579 C24.2076549,13.9543397 24.3257535,15.0022145 23.9154718,15.631193 C22.9808239,17.0643593 21.5946972,16.8454004 20.0851901,16.9675609 C18.9358944,17.060555 17.8037113,17.3982928 16.7308944,17.8203593 C15.8541338,18.1654943 15.0409648,18.6513886 14.2732183,19.1932908 C13.518993,19.7261049 13.0037113,20.5590364 12.2300493,21.0385902 C11.9465282,21.2144337 11.6190634,21.0335178 11.5172324,20.7484063 C11.1563873,19.7370951 11.7661056,18.477236 12.2820211,17.6155609 C12.9118099,16.5643045 13.8684296,15.7045315 14.8970915,15.0539953 C16.0235054,14.3415172 17.2690892,13.930142 18.53381,13.5578869 L18.53381,13.5578869 Z M42.4995211,12.4697089 C45.2795915,12.4688642 47.954662,14.015737 49.5095915,16.2833143 C50.0379718,17.0536861 49.6507183,18.1949777 48.8922676,18.638602 C48.0413977,19.1365184 47.1316392,18.7779826 46.5709117,18.0644799 L46.5376901,18.0212477 C45.6459296,16.8332477 44.4964225,15.8976 43.1337465,15.2884885 C42.4688873,14.9911186 41.7336761,14.7499679 41.0145211,14.6275961 L40.7821048,14.587754 C40.4563606,14.5331479 40.0784789,14.4810035 39.7838873,14.5320658 C39.6260704,14.5527781 39.4811408,14.6049816 39.3476197,14.6844493 C39.4118451,14.8247859 39.246,14.9938661 39.092831,14.9097487 C38.4019859,14.5301636 38.4867042,13.8529973 39.057338,13.326735 C39.8645915,12.5821479 41.4569155,12.4699209 42.4995211,12.4697089 Z" id="ðŸ–-Ink"></path>
                    </g>
                    <g id="facial-hair/Goatee-1" transform="translate(104.577451, 109.479380)" fill="#000000">
                        <path d="M43.9255563,6.62122427 C41.5760493,5.56257065 37.3570352,6.48638278 35.8253451,6.85370959 C32.2644296,7.70798748 28.6821761,9.55413229 27.5751338,12.4464611 C26.3275986,15.7061166 28.8167535,16.7322223 29.1828803,16.5646215 C31.6479507,16.7383515 34.5835141,15.1880971 37.1666831,14.788011 C39.2637254,14.460418 41.4759085,14.1744611 43.4406972,13.0597996 C44.8752042,13.849193 48.1152042,14.2759092 50.7300634,14.9661793 C52.9570352,15.5537331 53.9218944,16.827964 55.9864014,16.5570129 C58.4607676,16.2323789 57.4479507,11.0261871 54.6902746,8.9171225 C51.6721056,6.60896595 46.5674577,5.6728955 43.9255563,6.62122427 Z M48.5776268,28.8817573 C46.5220761,29.3831108 46.3840352,24.8760352 46.1537535,23.2837221 C45.9738469,22.0397339 44.9592008,18.8316443 42.3868521,18.9700626 C39.8145035,19.108481 38.8475561,21.796294 38.9780493,23.4680196 C39.0626709,24.5520924 40.0612712,30.0433492 36.8738239,30.738047 C34.8416408,30.7308611 32.4906549,30.5936947 30.3538944,30.1995264 C27.8389648,29.629726 24.5687141,27.6347621 23.7048803,31.5635812 C23.393986,32.9775653 34.4723451,37.1785245 39.388331,37.5585323 C44.3739031,38.5692259 50.2070662,37.0151109 53.756631,33.1996929 C54.5641562,32.3316861 56.8385145,28.7288625 57.0005829,27.8461124 C57.3410764,25.9915219 56.5527386,24.798077 54.2588239,25.4517534 C52.6384014,26.3174442 49.8995426,28.5593391 48.5776268,28.8817573 Z" id="ðŸ–-Ink"></path>
                    </g>
                    <g id="accessories/Glasses-2" transform="translate(88.521127, 88.978474)" fill="#000000">
                        <path d="M78.6572746,20.1750129 C76.0922746,22.8264023 71.8103028,23.5872634 68.3976972,22.1652986 C59.635162,18.5028094 63.9241056,7.07932603 70.6819225,4.01157652 C71.5261479,3.80107162 72.6536831,3.30165088 73.6819225,3.18836712 C73.7748803,3.14271546 73.9772746,3.27480939 74.2225563,3.14990137 C81.6741761,3.98219883 83.3710775,15.5540501 78.6572746,20.1750129 M50.3943169,20.8536587 C47.5174859,24.6708564 42.1690352,25.8485002 37.7991761,24.0740031 C29.1663592,20.6729542 32.2282606,10.543146 38.134669,6.57187397 C50.6115,1.88179961 55.7636831,13.8154826 50.3943169,20.8536587 M31.6802324,12.3958427 C31.6722042,12.3920384 31.6641761,12.3901362 31.6559366,12.3863319 C31.7015704,12.3662536 31.7472042,12.3461753 31.7926268,12.3256744 C31.777838,12.3643515 31.7617817,12.4026059 31.7474155,12.441283 C31.7250211,12.4258544 31.7053732,12.4078896 31.6802324,12.3958427 M84.5964296,8.26965088 C83.8920634,8.27113033 82.8745986,8.38695029 82.2915,8.87580352 C80.8536127,4.02468023 75.5461479,-0.465034051 70.9303732,2.808782 C67.2955141,3.97818317 64.5982606,6.57166262 63.0653028,10.0196313 C60.3012887,8.37490333 55.9550915,9.07722035 53.5582606,11.2522262 C51.9885423,6.06336517 48.1253028,4.24638669 43.5270634,3.97818317 C38.5081901,3.15581918 33.5057958,8.0318818 31.9449507,11.943553 C30.6471338,11.7958192 28.7079085,11.3826294 27.486993,12.1838583 C19.5629789,10.1050168 5.70910563,8.95886419 4.09819014,10.1138935 C2.95016197,10.5545589 2.32016197,13.2653378 3.9236831,13.4115922 C5.32100704,13.2131342 3.76058451,11.4253221 5.16910563,11.2302458 C12.6739648,10.7648524 19.9595282,12.2768524 27.3849507,12.911326 C28.0479085,13.8034356 30.1899507,14.1018622 31.3326972,13.7434121 C29.5329085,20.3789659 33.4181197,24.8934082 39.2395986,26.2456274 C48.2537535,28.3170716 56.0962183,20.2502536 53.7391056,11.859647 C56.4697394,10.5006646 59.6106549,10.5589973 62.5853028,11.2748407 C57.6145986,29.5756626 87.0773451,28.7545667 82.4757254,9.50287984 C85.5380493,11.0267155 86.2031197,8.57716556 84.5964296,8.26965088" id="ðŸ–-Ink"></path>
                    </g>
                </g>
            </g>
        </g>
    </g>
</svg>