<?xml version="1.0" encoding="UTF-8"?>
<svg width="240px" height="324px" viewBox="0 0 240 324" version="1.1" xmlns="http://www.w3.org/2000/svg" xmlns:xlink="http://www.w3.org/1999/xlink">
    <!-- Generator: Sketch 62 (91390) - https://sketch.com -->
    <title>peep-18</title>
    <desc>Created with Sketch.</desc>
    <g id="Introduction" stroke="none" stroke-width="1" fill="none" fill-rule="evenodd">
        <g id="variations" transform="translate(-606.000000, -1082.000000)">
            <g id="images" transform="translate(126.000000, 110.000000)">
                <g id="a-person/bust" transform="translate(480.000000, 972.000000)">
                    <g id="body/Fur-Jacket" transform="translate(31.056338, 135.052838)" fill-rule="evenodd">
                        <path d="M18.1058873,150.310469 C19.2199014,152.003596 21.411169,151.743213 22.3519437,150.431784 C33.0644789,152.928676 44.0468028,151.944629 54.9082817,151.332559 C85.5152535,150.086649 116.294831,153.99198 146.778,149.906578 C150.011662,149.259635 153.775394,149.568841 156.42131,147.325146 C160.653211,142.364121 159.741803,134.831807 159.067648,128.789303 C153.664056,94.7272438 145.98173,60.3528348 142.149547,26.0718172 C141.935533,22.8064552 143.280676,18.7491382 144.486592,15.6794865 C144.784479,15.108418 146.667085,14.5487624 147.643986,13.8899836 C150.642085,11.7371695 150.155958,7.87918121 147.556944,5.61540822 C139.141944,-0.318462622 127.427593,1.75503608 118.500908,3.94430372 C116.790197,-2.48346428 114.867218,-6.71098957 111.610028,-7.12964853 C105.410465,-7.92650193 90.3717939,-10.3615595 85.7394358,-7.12964853 C83.5233246,-5.58350854 82.1008944,-0.135500637 80.5056761,2.51849237 C68.8718028,2.31179178 45.2599014,-13.2592297 40.4056056,4.27502466 C36.461662,4.54745519 32.5553239,7.99204227 33.3097606,12.1256313 C28.1947606,16.6472595 32.2291268,23.4271656 32.1583521,29.0552125 C31.4858873,40.9962928 25.0270141,51.6754004 22.3399014,63.2104767 C16.1977183,85.582962 9.24574648,126.27825 16.8638451,148.116019 C16.6999014,148.030422 16.3418028,148.159346 16.5737746,148.340895 C17.4363803,148.584371 17.5485634,149.671346 18.1058873,150.310469 Z" id="ðŸŽ¨-Background" fill="#FFFFFF"></path>
                        <path d="M151.859852,144.620961 C150.431049,133.145908 149.437458,119.293376 149.426049,107.722582 C149.424993,106.632859 151.115134,106.634762 151.11619,107.722582 C151.127599,119.293376 152.12119,133.145908 153.549993,144.620961 C153.684359,145.699693 151.992528,145.686378 151.859852,144.620961 M141.275345,73.4709417 C139.067599,74.8216814 136.168373,73.8847656 133.983444,72.9903311 C132.988585,72.5830591 133.426754,70.9480532 134.432599,71.359975 C136.095486,72.0407342 138.525908,73.0429573 140.280908,72.0935718 C142.032528,71.1458771 142.111542,68.5390826 142.124641,66.8189025 C142.13288,65.7296031 143.82281,65.7304485 143.81481,66.8189025 C143.797035,69.1591843 143.484148,72.1191452 141.275345,73.4709417 M137.188796,125.982613 C134.961401,124.840476 133.060838,123.27902 131.531261,121.296977 C130.866401,120.435302 132.335345,119.594339 132.990697,120.443544 C134.336894,122.18803 136.090838,123.522284 138.041894,124.522816 C139.01119,125.019912 138.154923,126.478229 137.188796,125.982613 M126.482599,66.9731883 C122.660768,82.2941824 120.095979,97.8895092 118.838937,113.630879 C118.583303,116.826495 118.403725,120.017885 118.302317,123.211388 C118.200908,124.044108 118.103725,124.878942 118.01288,125.713775 C117.668514,128.871137 117.40443,132.079646 117.427669,135.258355 C117.438232,136.684969 117.482599,138.105243 117.579782,139.527419 C117.410768,139.051881 117.25443,138.574441 117.102317,138.098903 C116.791754,137.124578 116.586824,136.114323 116.269923,135.146339 C116.007951,134.345321 115.669923,133.57812 115.355134,132.802464 L115.355134,132.800351 C115.450204,129.623756 115.234711,126.417572 115.124852,123.255771 C114.983303,119.159803 114.807951,115.068061 114.717106,110.969979 C114.535415,102.773814 114.626261,94.5713096 114.922035,86.3795836 C115.515697,69.8729143 117.015697,53.4448673 118.528373,37.0058301 C118.948796,32.4343233 119.400908,27.8649299 119.713585,23.2847577 C120.028373,18.6563977 120.155134,14.0193722 120.191049,9.37833112 C120.193162,9.0441863 119.68612,8.95563053 119.593162,9.27878513 C119.510768,8.1776501 119.364993,7.07862857 119.122035,6.01553659 C122.766401,8.34038982 126.609359,10.3503311 130.376261,12.4638341 C132.360063,13.5776501 134.335415,14.7104877 136.380486,15.7080611 C137.50443,16.2573605 138.638937,16.762699 139.796683,17.2403507 C140.996683,17.7349104 142.143866,18.4154583 143.464289,18.070746 C143.578373,18.0413683 143.68612,17.9990982 143.789641,17.9441472 C143.639641,18.2292587 143.489641,18.5126795 143.345979,18.8003272 C142.847387,19.7913487 142.372035,20.7868086 141.911472,21.7907225 C141.788937,21.8816031 141.68119,22.0065112 141.596683,22.1690395 C141.372739,22.6065346 141.155134,23.0482568 140.943866,23.496108 C140.901613,23.4561628 140.859359,23.4160063 140.817106,23.3758497 C140.639641,23.208883 140.39457,23.4601785 140.550908,23.6421511 C140.622739,23.7243663 140.692458,23.8048908 140.762176,23.8873174 C139.384711,26.852562 138.264993,29.9699789 137.111472,33.0136344 C135.693866,36.7543233 134.350204,40.522699 133.084711,44.3164368 C130.589641,51.7792157 128.388232,59.3392157 126.482599,66.9731883 M71.8424577,122.574167 C64.7985845,126.347826 58.216331,130.857619 51.8854859,135.721846 C51.0224577,136.384852 50.1816127,134.915333 51.0323873,134.261838 C57.3632324,129.397822 63.9456972,124.887818 70.9895704,121.113948 C71.9491479,120.600155 72.8018239,122.060163 71.8424577,122.574167 M48.0516127,78.377016 C47.6854859,78.3497519 47.3297113,78.1373448 47.2367535,77.7564916 C46.6661197,75.41938 46.2192887,72.8734544 46.749993,70.4896344 C46.9866127,69.4263311 48.6156972,69.8788321 48.3797113,70.9389652 C47.9611901,72.8187147 48.2937254,74.8506364 48.7283028,76.7251022 C54.8717535,76.9941511 60.9328099,74.7887108 66.8104859,73.3077793 C67.8674577,73.0414779 68.3138662,74.6726795 67.2598521,74.9381354 C61.0249225,76.5088908 54.5757676,78.8601628 48.0516127,78.377016 M170.35443,140.717533 C170.360768,140.702738 170.367106,140.68583 170.371331,140.671036 C170.732599,139.576241 170.741049,138.303912 170.78119,137.156492 C170.850908,135.114636 170.776965,133.068766 170.593162,131.033462 C170.20443,126.749392 169.36781,122.535067 168.368514,118.35646 C166.388937,110.080194 163.591754,102.027748 162.072739,93.6392548 C159.091754,77.1729534 159.7995,60.0282176 153.9495,44.1454544 C151.51781,37.5426599 148.04457,31.1958106 143.324852,25.9500963 C143.669218,24.9017988 144.005134,23.8513879 144.332599,22.7967499 C144.905134,20.9622294 145.490345,19.0685307 145.843162,17.1790591 C145.851613,17.128335 145.862176,17.0754975 145.868514,17.0226599 C147.877669,16.1561237 149.705134,14.5223859 150.01781,12.3497049 C150.153021,11.4113096 149.996683,10.3714661 149.591049,9.46477339 C150.419218,8.69968532 150.951613,7.70633894 150.824852,6.37483209 C150.588232,3.86821761 147.662176,3.22338787 145.625556,2.73326654 C143.310063,2.17741526 140.907951,2.02312955 138.539641,2.28520391 C137.343866,2.4162411 136.160768,2.6360454 135.005134,2.96575186 C134.001613,3.25107476 132.909359,3.54485166 132.10443,4.23385362 C132.009359,4.31416673 132.087528,4.47056595 132.201613,4.47056595 C133.830486,4.46443679 135.453021,3.86610411 137.098796,3.78769315 C138.822739,3.70759139 140.542458,3.84919609 142.232599,4.20426458 C143.884711,4.55087906 145.532599,5.05811977 147.034711,5.84222935 C147.457246,6.06414716 148.076261,6.21420587 147.579782,6.66226849 C147.216401,6.98986145 146.502317,7.01754834 146.035415,7.06594755 C145.002317,7.1737362 144.110768,7.77819804 143.979782,8.88144658 C143.863585,9.85577143 144.44457,10.95902 145.479782,11.1788243 C145.536824,11.1917166 145.589641,11.2062998 145.63612,11.2253213 C145.663585,11.2781589 145.705838,11.3225425 145.701613,11.2506834 C145.701613,11.2506834 145.703725,11.2485699 145.703725,11.2506834 C145.729077,11.4049691 145.737528,11.4660493 145.737528,11.4768282 C145.73119,11.4641472 145.720627,11.4113096 145.712176,11.3690395 C145.718514,11.4070826 145.73119,11.4683742 145.748092,11.5592548 C145.724852,11.4599202 145.743866,11.7031843 145.724852,11.741016 C145.175556,12.7554975 143.550908,13.0410317 142.60443,13.4783155 C142.420627,13.5626442 142.262176,13.6621902 142.126965,13.7739945 C141.903021,13.6960063 141.674852,13.6178067 141.44457,13.531153 C140.310063,13.1063389 139.177669,12.6942059 138.028373,12.3114505 C135.810063,11.5698223 133.564289,10.9082959 131.345979,10.1643429 C127.145979,8.7567499 123.085415,6.97929393 118.963585,5.3688047 C118.832599,4.88269902 118.680486,4.40716086 118.500908,3.94430372 C118.464993,3.84729393 118.291754,3.81538004 118.272739,3.94430372 C118.209359,4.35432329 118.158655,4.76645636 118.116401,5.18070294 C118.0995,5.21874599 118.095275,5.26101605 118.103725,5.3011726 C117.864993,7.71056595 117.928373,10.1770239 117.805838,12.5843037 C117.653725,15.5854779 117.229077,18.565517 117.108655,21.5688047 L117.108655,21.6237558 C116.664993,24.1874348 116.263585,26.7595679 115.900204,29.340155 C115.492458,29.2133448 115.025556,29.2387068 114.548092,29.4944407 C111.172035,31.2972587 107.377669,32.3011726 103.560063,32.5252039 C101.637528,32.6370082 99.734007,32.5740258 97.8220352,32.3518967 C96.564993,32.2081785 95.3269648,31.9461041 94.0868239,31.6967108 C94.7396408,28.9597245 95.4410493,26.2354192 96.2333028,23.5388008 C96.8861197,21.3215249 97.6128803,19.1150278 98.5107676,16.9825033 C99.4171056,14.8288438 100.545275,12.7724055 101.595275,10.6842646 C102.079077,9.71839374 101.508655,8.24105519 100.251613,8.34250333 C99.8797817,8.37209237 99.5079507,8.3953409 99.134007,8.41224892 C95.4959789,8.58576751 91.7121761,8.17997495 88.1206268,7.8183546 C84.0325986,7.40410802 79.8896408,6.97485558 75.8375282,6.30085949 C75.5375282,6.25224892 75.414993,6.66015499 75.7107676,6.75948963 C77.6333028,7.40622153 79.5325986,8.13728219 81.5037254,8.62148571 C83.5318944,9.12238591 85.5727394,9.57890254 87.6304859,9.93608454 C89.6016127,10.2765699 91.5811901,10.5616814 93.5671056,10.8026207 C94.8621761,10.9611335 96.1720352,11.0414466 97.4755563,11.1471217 C95.7199225,13.9538536 94.5093592,17.1196697 93.4551338,20.2370865 C92.1009085,24.2402724 91.105838,28.3594896 90.1318944,32.4702528 C88.0487958,41.2814466 86.3311901,50.1814074 84.9875282,59.1363194 C84.0241479,65.5571413 83.2445704,72.0033252 82.6593592,78.4664172 C82.4861197,76.502973 82.2748521,74.5458693 82.0361197,72.5908791 C81.2375282,66.1001002 80.071331,59.6520141 78.5121761,53.3009378 C78.6516127,53.0557714 78.7171056,52.7619945 78.6706268,52.4766716 C78.3896408,50.7309182 77.6502042,49.2113096 77.0016127,47.5923663 C76.3572465,45.3309182 75.6621761,43.0842646 74.9142887,40.854519 C74.064993,37.8174153 73.1121761,34.8268086 71.893162,31.9059476 C70.9614718,29.680429 69.8987958,27.5117636 68.7156972,25.4090395 C67.3023169,22.4691569 65.7495,19.5928908 64.0445704,16.8430121 C63.955838,16.5872783 63.8121761,16.3484524 63.6072465,16.1476697 C63.2966831,15.657337 62.9818944,15.1733448 62.6607676,14.6935796 C62.4516127,14.3807812 61.8516127,14.5709965 62.0100634,14.968335 C62.084007,15.1545346 62.1579507,15.3403115 62.234007,15.5243977 C55.2896408,13.7868869 48.4804859,16.4435601 41.8656972,18.4048908 C40.1966831,18.901564 38.5107676,19.3496266 36.7995,19.6729926 C35.4537254,19.9266129 33.8861197,20.2351843 32.5445704,19.9559906 C31.6466831,19.7702137 31.2495,19.3623076 31.6868239,18.4027773 C32.1389366,17.4096423 33.3727394,16.7563585 34.4438662,16.3169613 C34.8473873,16.2300963 35.2445704,16.0758106 35.6269648,15.8433252 C36.5185141,15.3022685 36.9093592,14.1736579 36.4889366,13.2120141 C36.1065423,12.3433644 34.9910493,11.5951843 34.0044296,11.9925229 C33.8628803,12.0495875 33.7234437,12.1045386 33.584007,12.1594896 C33.5692183,12.1383546 33.5523169,12.1087656 33.5375282,12.0664955 C33.3959789,11.6797245 33.3347113,12.142793 33.3959789,11.5888438 C33.4973873,10.6842646 34.4544296,9.86211194 35.1093592,9.34430372 C36.7382324,8.05295342 39.0917535,7.0976501 41.1938662,7.58586928 C41.3523169,7.62179883 41.5107676,7.66618239 41.6671056,7.72113346 C43.8325986,8.47142701 44.8868239,5.35189667 43.1565423,4.18947006 C43.0509085,4.11972446 42.9178099,4.03095734 42.7720352,3.92739569 C42.0516127,3.4264955 40.9973873,2.58320783 41.2847113,1.82255812 C41.6396408,0.877610959 43.7333028,0.334440705 44.5255563,0.0131882583 C47.3903451,-1.14923836 50.4854155,-1.80865127 53.5741479,-1.94391546 C56.6818944,-2.07917965 59.8297817,-1.73679217 62.827669,-0.897942857 C64.2980915,-0.487711937 65.8086549,0.135771429 67.1987958,0.765806654 C68.4473873,1.32990059 71.1642887,2.07596712 71.3375282,3.65686732 C71.3755563,4.00580665 71.8720352,4.12395147 71.9797817,3.74352094 C72.8311901,0.708530724 69.5269648,-1.2506865 67.3466831,-2.50399374 C65.9164014,-3.32847123 64.2938662,-3.8418411 62.7241479,-4.3469683 C61.2199225,-4.83307397 59.684007,-5.19025597 58.1164014,-5.40604462 C54.7509085,-5.86657691 51.3452746,-5.80739883 48.0072465,-5.16066693 C44.9671056,-4.57078826 41.5847113,-3.56497221 39.127669,-1.60786849 C37.6192183,-0.407398826 36.9368239,1.50320783 37.543162,3.36731742 C37.5642887,3.428609 37.5854155,3.49201409 37.6065423,3.55330568 C34.8917535,4.03941135 32.3227394,5.59494951 30.6051338,7.76340352 C29.1938662,9.5450865 28.4544296,12.0242254 29.7178099,14.0977832 C29.664993,14.1356149 29.6121761,14.1757714 29.5614718,14.2180415 C28.3572465,15.1817988 27.4614718,16.5811491 27.1952746,18.1111139 C26.6734437,21.1291961 28.4966831,23.2405855 31.0466831,24.0479436 C30.414993,24.6652978 29.8086549,25.3202724 29.214993,25.9754583 C27.8861197,27.4443429 26.6164014,29.0440532 25.4966831,30.6758888 C23.227669,33.9814074 21.2882324,37.5807029 19.5917535,41.207474 C16.1037254,48.6554583 13.9044296,56.671975 12.7382324,64.8005072 C12.1509085,68.8964759 11.7579507,73.0135796 11.6079507,77.1475914 C11.4347113,81.8607029 11.6100634,86.575928 11.5192183,91.291153 C11.4304859,95.8225033 10.9297817,100.243951 9.91780986,104.661384 C8.94809155,108.886065 7.6551338,113.026417 6.48471127,117.196359 C5.16428873,121.892562 3.71076761,126.567631 3.01358451,131.409666 C2.66076761,133.873799 2.40724648,136.344695 2.60372535,138.836515 C2.8023169,141.374832 3.72344366,143.5454 4.57273944,145.906182 C4.78823239,146.508742 5.44527465,146.751584 5.97133099,146.62266 C6.08964085,147.753384 6.51640141,148.856632 7.1523169,149.811936 C8.5023169,151.836672 10.5811901,153.128022 12.9621761,153.59722 C15.6452746,154.123482 18.4107676,153.998785 21.127669,153.901564 C24.0748521,153.795889 27.0241479,153.700781 29.971331,153.578198 C33.0568944,153.450754 36.1422465,153.319717 39.2278099,153.188045 C39.1257676,150.024343 39.0040775,146.861697 38.8665423,143.699474 C38.122669,126.604617 36.9511901,109.499615 36.9201338,92.3823546 C36.8603451,92.3472705 36.8016127,92.3056344 36.7454155,92.2511061 C35.356331,90.907975 33.6509789,90.0257988 32.0487254,88.9745425 C31.1419648,88.3795914 31.9895704,86.916202 32.9018239,87.514746 C34.252669,88.4009378 35.6603451,89.188429 36.9262606,90.181564 C36.9336549,88.3996697 36.9492887,86.6179867 36.9845704,84.835881 C37.0061197,83.7476384 38.6962606,83.7476384 38.6747113,84.835881 C38.5686549,90.2065033 38.6041479,95.5783937 38.7256268,100.948382 C39.1187958,118.350542 40.3547113,135.720366 40.9175282,153.115764 C49.1992183,152.761752 57.481331,152.405204 65.7642887,152.102762 C72.5016127,151.857807 79.2389366,151.61264 85.9762606,151.367474 C87.3896408,151.316961 88.184007,150.306284 88.3572465,148.985345 C88.6741479,146.554816 88.0783732,144.042073 86.7304859,141.998315 C86.5910493,141.786965 86.4262606,141.598863 86.2424577,141.438237 C86.2741479,139.982034 86.3333028,138.523505 86.2509085,137.067513 C86.1283732,134.844108 85.9445704,132.620703 85.784007,130.399411 C85.4586549,125.950488 85.2072465,121.49311 85.1079507,117.033619 C84.9051338,108.114636 85.0530211,99.1872 85.5579507,90.2808986 C86.5699225,72.4873174 88.9255563,54.8078654 92.7811901,37.4031687 C93.0621761,36.1350669 93.3452746,34.8669652 93.6389366,33.6009769 C96.6368239,35.1586286 100.283303,35.7184955 103.560063,35.7398419 C107.667106,35.7652039 111.683303,34.8202568 115.393162,33.1024016 C115.36781,33.294519 115.342458,33.4847342 115.319218,33.677063 C114.284007,41.9197245 113.411472,50.1790826 112.650908,58.4494309 C111.134007,74.9368673 110.20443,91.4919358 110.333303,108.053133 C110.369218,112.64176 110.54457,117.21538 110.762176,121.797454 C110.984007,126.457728 111.324148,131.38219 112.621331,135.877611 C112.764993,136.374073 113.084007,136.659607 113.451613,136.763169 C113.470627,137.418355 113.51288,138.075654 113.559359,138.722386 C113.709359,140.825321 114.138232,145.193932 115.055134,147.1001 C115.948796,148.960194 117.438232,150.435419 119.337528,151.247216 C121.750204,152.27628 124.359359,151.98039 126.907246,151.815537 C137.98612,151.092719 149.056542,150.124734 160.129077,149.275106 C161.671331,149.15675 163.213585,149.040507 164.753725,148.920038 C166.124852,148.814362 167.542458,148.721157 168.759359,148.009118 C170.143162,147.199646 171.222739,143.224147 170.745275,141.579842 C170.658655,141.279724 170.527669,140.983834 170.35443,140.717533" id="ðŸ–-Ink" fill="#000000"></path>
                    </g>
                    <g id="head/Short-4" transform="translate(78.591549, 38.043053)" fill-rule="evenodd">
                        <path d="M90.9306761,30.4017464 C90.8596901,27.8744196 87.1851127,26.8250654 86.123493,29.3280869 C86.0575775,29.3950849 85.9859577,29.4595468 85.9187746,29.5172454 C86.2510986,29.2321339 85.5562394,29.7038677 85.4432113,29.7622004 C85.3464507,29.8120791 85.2475775,29.8570967 85.1489155,29.9035937 C84.4660986,23.5009479 82.1480704,16.5986701 76.1582113,13.3848775 C67.8038451,9.33202427 58.1503944,8.54094012 48.9849718,8.94356243 C44.3419437,9.21916321 38.9803944,9.96184814 34.8553944,7.61205558 C33.5700423,6.87993816 32.5396901,5.72744501 31.0872254,5.27494403 C26.5020845,4.03410646 24.4223662,8.7442591 25.0468732,12.6176759 C23.091169,12.6331045 21.1510986,13.7162748 20.3070845,15.4996485 C19.8114507,16.5551319 19.8201127,17.6940986 19.3927183,18.7533863 C18.0813803,21.4396485 16.2051127,23.3705448 17.2658873,26.6274528 C15.4001831,28.7513119 16.4639155,31.966584 17.9694085,33.9999851 C18.7128592,35.057582 19.5982817,36.0729088 20.1429296,37.2566818 C20.6715211,38.3901534 19.8735634,39.7343413 19.4294789,40.8088462 C16.1463803,48.5968932 16.3339859,57.1736994 18.1006056,65.2971593 C14.5555352,66.8360008 13.4915915,71.6463335 15.8032817,74.6751945 C16.5987042,75.7458951 17.5690563,76.1432337 18.6695493,76.8020125 C20.0622254,77.5687914 18.9247606,80.6401339 19.3707465,82.1233902 C19.976662,85.7444548 23.2724366,87.9744117 26.5312394,85.6229284 C28.5991268,85.3099186 30.2670845,91.3289636 31.7687746,92.8396955 C32.6939155,94.0570732 33.7210986,95.1501769 34.8378592,96.1589519 C38.1653239,104.723923 55.2158873,109.067171 63.6458873,108.571343 C72.4737042,107.646686 78.4291268,100.146709 83.388,93.4904431 C85.9344085,89.9437738 87.5905352,85.9741926 88.1928592,81.6446818 C88.7979296,77.293402 88.5332113,72.9343022 88.1241972,68.5777386 C87.2649718,59.3214411 85.9094789,45.986083 85.0341972,36.6298168 C88.1972958,36.3692219 91.0265915,33.6751397 90.9306761,30.4017464 L90.9306761,30.4017464 Z" id="ðŸŽ¨-Background" fill="#FFFFFF"></path>
                        <path d="M21.9755282,24.8366607 C21.9725704,24.8497644 21.977007,24.8596978 21.9799648,24.873647 C21.9805986,24.8696313 21.9812324,24.8675178 21.9822887,24.8626568 C21.9797535,24.8520892 21.9778521,24.8451147 21.9755282,24.8366607" id="Fill-4" fill="#4F66AF"></path>
                        <path d="M21.9747042,24.9712274 C21.9630845,24.9589691 21.9466056,24.949881 21.9301268,24.9376227 C21.9297042,24.9380454 21.929493,24.9384681 21.9292817,24.9388908 C21.9447042,24.9490356 21.959493,24.9606599 21.9747042,24.9712274" id="Fill-6" fill="#4F66AF"></path>
                        <path d="M90.4275634,31.5977777 C91.4665775,30.7342004 93.1032676,31.5293002 92.7512958,32.9510536 C92.3682676,34.4994059 90.7093944,35.5574254 89.3399577,36.1935898 C87.9303803,36.8481417 86.5573521,36.9743178 85.0195352,36.9028814 L85.0005211,36.8986544 L85.0005211,36.8986544 C85.427493,38.6112258 85.6696056,40.3914294 85.9962254,42.1143569 C86.4107324,44.3001417 86.8184789,46.4869832 87.2200986,48.6748814 C87.6086197,50.7896524 88.0998169,52.907171 88.398338,55.0325096 C88.6993944,57.1779264 88.9884085,59.3248227 89.2841831,61.4708736 C89.777781,65.0551824 90.1762213,68.6559102 90.5963279,72.2505087 L90.7965569,73.9519496 C91.2172608,77.5533321 91.5559974,81.1590565 90.7586197,84.7428658 C90.0113662,88.1016446 88.3279859,91.2347014 86.3754507,94.0384744 C84.4632676,96.7839147 82.3271408,99.4236798 79.9822817,101.811727 C75.4592535,106.417261 69.8817887,110.105958 63.3417887,110.790099 C60.5258028,111.084721 57.5181972,110.756917 54.8708028,109.732924 L54.6950151,109.664222 C52.0151588,108.605737 48.7333607,106.793408 48.0358732,103.819343 C47.6076338,101.994968 49.4868592,100.570678 51.1345352,101.436369 C51.897939,101.837582 52.471955,102.295917 53.0986311,102.870662 L53.2098169,102.973308 C53.7219296,103.449058 53.9190423,103.595312 54.5099577,103.9675 C55.722,104.730263 56.6304507,105.091249 58.0070704,105.437864 C60.5452394,106.076564 63.2845352,105.975539 65.8611549,105.220173 C71.3317183,103.616447 75.575662,99.4317112 79.2113662,95.2357738 C81.1854507,92.9572063 83.0591831,90.5670458 84.5042535,87.9114294 C86.0205211,85.1251984 86.7204507,82.199899 86.6784085,79.0296446 C86.6308732,75.4525409 86.1367183,71.8614881 85.8124225,68.3012924 C85.482,64.6717738 85.176507,61.0435233 84.9073521,57.4089323 C84.6552229,54.0004737 84.6308474,50.5766633 84.542722,47.1575884 L84.5253803,46.5165722 C84.4736197,44.7014959 84.4377042,42.8857855 84.396507,41.0702865 C84.3557324,39.2600712 84.212493,37.4268188 84.398831,35.6242121 C84.4121408,35.4929636 84.5889718,35.4597816 84.6320704,35.5925096 C84.7419296,35.9302474 84.8380563,36.2732689 84.9289014,36.6181926 C84.9428451,36.607625 84.9584789,36.5981143 84.977493,36.5915624 C86.1825634,36.1773159 87.2923521,35.3503022 88.1965775,34.4584039 C89.0593944,33.6072963 89.5100282,32.3605409 90.4275634,31.5977777 Z M24.4958451,6.23627084 C25.2528169,3.12603992 28.6592958,2.43133151 31.1782394,3.92917104 C32.3898592,4.64945284 33.36,5.68823953 34.4917606,6.51377378 C35.6169718,7.33465832 36.860493,7.99385988 38.1726761,8.45946458 C40.779507,9.38433346 43.5293662,9.72059178 46.284507,9.73263875 C52.9901408,9.76201644 59.558662,7.87677182 66.2742254,8.08706536 C71.4705634,8.24980509 76.9859155,9.78611037 80.7551408,13.5439186 C82.7856338,15.5682317 84.0940141,18.1707992 84.7958451,20.9337816 C85.1238624,22.2250994 85.3683528,23.547752 85.5612204,24.8673294 L85.6083803,25.1971397 C85.716338,25.9683569 85.8895775,26.7848031 85.9056338,27.564263 C85.9202113,28.2642552 85.743169,28.9967953 85.6472535,29.6896016 C85.4450704,31.1500321 83.1838732,30.9836994 82.8589437,29.6896016 C82.1190845,26.7431671 82.4288028,23.7022591 81.5245775,20.7659695 C80.7228169,18.1621339 79.1689437,15.8854685 76.9174648,14.3284509 C67.4190845,7.75968376 55.2384507,13.2604978 44.7730986,12.7494528 C42.2152817,12.6245448 39.6198592,12.2291084 37.2071831,11.347989 C35.9630282,10.8935859 34.7380986,10.3394254 33.6101408,9.64239217 C32.5766461,9.00418033 31.6813006,8.20231649 30.7246096,7.46441114 L30.3025551,7.14351501 C29.6467003,6.64988961 28.5302113,5.87813604 27.8685211,6.5311045 C27.580578,6.81533421 27.5631565,7.4579924 27.5684306,7.94874446 L27.5716901,8.17054873 C27.6016901,10.2540399 28.0261268,12.3337268 27.2467606,14.346627 C26.8912008,15.2647542 25.9031326,15.8436278 24.9633515,15.3236789 L24.9147887,15.2958012 C22.9269803,14.1127764 20.3152899,16.4899427 21.842314,18.4572925 L21.8898592,18.5167796 C22.7489975,19.5613076 22.2909517,21.4007074 20.7532634,21.3961119 L20.6978873,21.3951593 C17.9581669,21.3095814 16.74264,24.7348944 19.104104,26.2315375 L19.1767606,26.2762943 C21.0940141,27.4241378 19.4123239,30.1837386 17.4473239,29.2362552 C17.6138028,29.3165683 17.3243662,29.3155115 17.1587324,29.5378521 C16.9996479,29.7513159 16.9878169,29.936036 17.0256338,30.205719 C17.1403521,31.0227992 17.858662,31.7113785 18.440493,32.2283413 C19.7621831,33.4028149 21.4005634,34.2137659 23.0888028,34.7074802 C29.8514789,36.6852963 36.789507,34.2659695 43.3785211,32.8049049 C50.2478873,31.2817033 58.0064789,30.6681534 63.9971831,34.9904783 C64.0683803,35.041625 64.0060563,35.1559656 63.9272535,35.1103139 C59.6279577,32.6125761 54.3623239,32.8342826 49.6626761,33.8582748 C43.5,35.2011945 37.3911972,37.7008344 31.0795775,38.359402 C32.8514789,41.4886544 33.5930282,45.184537 33.1197887,48.7637542 C32.7939336,51.2276055 31.8137657,53.3647765 30.6560753,55.5305424 L30.4351457,55.9432885 C29.402931,57.8872991 28.6033891,59.723808 28.5906338,61.9758951 C28.578169,64.2134607 25.2530282,64.6851945 24.6893662,62.5042708 C23.4097183,57.5512767 28.0715493,53.6499616 29.9735915,49.5656172 C31.5992958,46.0741104 31.6493662,42.0032924 30.3338028,38.4283022 C28.8494366,38.5477151 27.3534507,38.5601847 25.8424648,38.4253432 C24.5446479,38.3093119 23.2094366,38.0753472 21.9080282,37.7050614 L21.3873786,39.8946133 C20.6976254,42.8110986 20.0585493,45.725636 19.8648592,48.7548775 C19.7222535,50.9808188 19.7298592,53.2177503 19.946831,55.4381965 C20.1344366,57.355989 20.5303521,59.2055155 20.9332394,61.0778677 C21.2788732,61.5339616 21.455493,62.2320517 21.3583099,62.7881143 C23.6019718,63.4344235 25.3666901,65.2055389 26.0114789,67.5513159 C26.0507746,67.6941886 25.8509155,67.7745018 25.7761268,67.6506505 C24.246338,65.1114881 20.3070423,64.1771084 17.8151408,65.8545957 C15.4354225,67.4562082 14.4967606,70.6898677 15.8438028,73.2497425 C16.5523402,74.5957078 17.6028533,75.5415756 18.9574288,76.1929189 L19.2297847,76.3208688 C19.9396403,76.6569055 20.5912425,77.0231151 21.0477465,77.6980321 C21.6399537,78.573439 21.659896,79.4988236 21.6039298,80.4991639 L21.5797295,80.904573 C21.5423155,81.575118 21.5338732,82.2653331 21.7335211,82.910353 L21.7788848,83.0537146 C21.8315441,83.2146583 21.8869014,83.3564665 21.9830282,83.5101652 C22.0117606,83.5558168 22.281338,83.8204274 22.3692254,83.9161691 L22.4799296,83.9495624 L22.4799296,83.9495624 L22.6037324,83.9546348 L22.6037324,83.9546348 C22.7410747,83.9567575 22.9215671,83.8972131 22.8623486,83.938481 L22.8784694,83.9292489 C22.9305733,83.8967901 22.9785046,83.8624688 23.0188831,83.8319386 L23.0955634,83.7720282 C23.2749296,83.5127014 23.4997183,83.2983922 23.7754225,83.1350184 L24.0388732,83.017719 L24.0388732,83.017719 C24.723169,82.294901 25.8957042,82.6746975 26.3862676,83.3947679 C26.7392958,83.9125761 26.9292254,84.4390497 26.9448592,84.9583374 C27,84.8697816 27.1225352,84.8213824 27.200493,84.9205057 L27.6656241,85.5134348 C29.4451984,87.7881433 31.1941521,90.0770555 33.216338,92.1505879 C34.3303521,93.2931476 35.528662,94.366807 36.7812676,95.3557151 C37.8507042,96.2000595 39.8792958,97.01249 39.9103521,98.5504861 C39.9200704,99.0496955 39.5657746,99.4032845 39.1322535,99.5727875 C37.7213057,100.124103 35.9777544,98.2486447 34.9586484,97.3360538 L34.8754225,97.2623061 C33.6280986,96.1694137 32.4897887,94.9697894 31.4393662,93.6868932 C29.3991549,91.1948618 27.693169,88.326627 26.9412676,85.1713785 C26.9059859,85.721946 26.6697887,86.2615233 26.2100704,86.7706661 C25.5980282,87.4482552 24.7603521,87.9233706 23.8656338,88.119081 C21.8385211,88.5622826 19.8593662,87.83249 18.6532394,86.1427444 C17.6338028,84.7141882 17.3336443,82.8278777 17.4651758,81.1020717 L17.4813799,80.8949829 C17.4998638,80.6181867 17.5234176,80.1103098 17.595,79.894173 L16.9567606,79.5435429 L16.9567606,79.5435429 C16.1742254,79.1269714 15.4489437,78.5808423 14.7980282,77.9806074 C12.1819014,75.5678325 10.8692958,71.6466505 12.0652817,68.2153785 C12.8133803,66.0689049 14.3854225,64.2012023 16.3983803,63.2304705 C16.0619311,62.4525901 15.9494161,61.5288395 15.8224606,60.7115239 L15.8011268,60.5763335 C15.5858451,59.2355272 15.4056338,57.8778129 15.3369718,56.520944 C15.2085211,53.986854 15.3646479,51.4290928 15.7626761,48.9243804 C16.4091549,44.8560986 17.7475352,40.5415937 20.2007746,37.1287092 C18.3291549,36.3851789 16.6064789,35.3087718 15.2767606,33.8141025 C13.8872535,32.2522239 13.0014085,30.0161378 14.0759155,28.0326153 C14.3497183,27.5270654 14.7065493,27.1020399 15.1166197,26.7645135 C14.405493,25.421171 14.1754225,23.8335076 14.6142254,22.3160125 C15.1385915,20.5017816 16.5623239,19.0867914 18.2822535,18.4261104 C17.8645775,16.7071984 18.2059859,14.8583061 19.4822535,13.4257738 C20.748169,12.0046544 22.7140141,11.4870575 24.5334507,11.8119029 C24.6321127,9.9837229 24.056831,8.0393002 24.4958451,6.23627084 Z M19.3926761,70.4233127 C21.0608451,69.6066552 23.0378873,69.7364243 24.7041549,70.510389 L24.8170548,70.5640006 C26.6362672,71.4465077 29.0456999,73.5084275 28.4674648,75.7013636 C28.1290141,76.9838372 26.7046479,77.421755 25.6001408,76.8682286 C24.6775352,76.4055828 24.4671127,75.5785691 24.0042254,74.7477511 C23.6769718,74.1601973 23.2723944,73.7009331 22.7972535,73.2285652 C21.7956338,72.2333166 20.6706338,71.4940133 19.3926761,70.9024438 C19.2084507,70.8170583 19.2147887,70.5106004 19.3926761,70.4233127 Z M61.4252958,26.0969636 C61.2689577,26.0255272 61.3824085,25.7805722 61.5398028,25.8253785 C65.7315634,27.0228892 69.6398028,29.7108423 71.9751549,33.441809 C72.1175493,33.6694333 72.1393099,34.0441573 71.9751549,34.2694568 L71.8995763,34.3717086 C71.7924629,34.5115816 71.6867879,34.6148295 71.4854366,34.646083 C71.1068451,34.7048384 70.7779014,34.6061378 70.5598732,34.2694568 C68.259169,30.7132767 65.3115634,27.875265 61.4252958,26.0969636 Z M89.487,26.8011405 C89.8421408,26.1994262 90.7837606,26.3205299 90.9711549,26.9951601 L90.998276,27.0538732 C91.0994903,27.2838654 91.0534476,27.3309409 90.8646761,27.2008039 C91.332,27.5858841 91.5434789,28.1594888 91.400662,28.776209 C90.6291127,32.1070896 86.8577746,34.4856258 83.5700282,34.1582442 C83.2831268,34.1297119 83.2440423,33.7769683 83.5041127,33.6717159 C84.7689718,33.1594027 85.8916479,32.3273166 86.7943944,31.3062834 C87.6717887,30.3137824 88.0408732,29.1781973 88.5128451,27.9796297 C88.6898873,27.529665 88.9653803,27.205665 89.3534789,27.0287648 C89.4048169,26.9577511 89.4496056,26.8820877 89.487,26.8011405 Z M70.7904104,24.6606057 L70.8131408,24.6620431 C72.5024366,24.8803679 73.9637746,25.7143562 75.1500423,26.9363836 C76.2925775,28.113182 77.7344789,30.0550685 77.6108873,31.7820117 C77.5291268,32.9268963 75.9019437,33.5814481 75.2947606,32.4097221 C74.9324366,31.7105753 74.8502535,30.9442192 74.5965211,30.2049159 C74.3637042,29.5273268 74.0421549,28.8839765 73.6572254,28.2805714 C72.8647606,27.037409 71.7750423,25.9842505 70.6591268,25.0340196 C70.528537,24.9228229 70.619528,24.6611951 70.7904104,24.6606057 L70.7904104,24.6606057 Z M27.4625915,24.1532595 C27.0880141,23.7965002 27.4775915,23.1882341 27.954,23.3087037 C30.4666056,23.9450795 32.9549155,24.7190442 35.5672394,24.7959757 C36.8720282,24.8342301 38.1694225,24.7313025 39.4619577,24.5624337 L40.116369,24.4754982 C41.1242924,24.3438956 42.1495307,24.2405547 43.145831,24.4476705 C43.8100563,24.5856822 43.9397746,25.4416509 43.5259014,25.8882341 C41.5714648,27.9972986 37.8016056,27.7956705 35.2095634,27.4401793 C32.3948451,27.0538309 29.5547746,26.1471382 27.4625915,24.1532595 Z M72.8355,17.5793566 C72.6635282,17.3407421 72.9529648,16.9641159 73.2267676,17.0700023 C75.7237394,18.0354505 78.3407113,20.5490395 79.0285986,23.1788712 C79.2102887,23.8735796 78.3345845,24.3981511 77.8203592,23.8824564 C76.8620493,22.9214466 76.1855704,21.7862841 75.3755704,20.7060728 C74.5683169,19.6292431 73.6237394,18.672883 72.8355,17.5793566 Z M31.9229366,18.7538301 C31.7226549,18.5536814 31.9242042,18.1550748 32.2119507,18.2569456 C33.8376549,18.8328751 35.4756127,19.3312391 37.1835,19.5926795 C38.9327958,19.8602489 40.6985704,19.6569299 42.4569507,19.7653526 C43.1682887,19.8091022 43.6527254,20.916155 42.8619507,21.260656 C39.3481479,22.7910434 34.5756127,21.4033174 31.9229366,18.7538301 Z M36.4116761,15.3211632 C36.1323803,15.1144626 36.2912535,14.5471984 36.6713239,14.7054998 C38.219493,15.3503295 39.7851972,15.5088423 41.4466056,15.4424783 C42.060338,15.4177503 42.1894225,16.3825644 41.5913239,16.5127562 C39.7547746,16.9124196 37.9125211,16.431175 36.4116761,15.3211632 Z" id="ðŸ–-Ink" fill="#000000"></path>
                    </g>
                    <g id="face/Loving-Grin-1" transform="translate(112.183099, 77.354207)" fill="#000000" fill-rule="evenodd">
                        <path d="M20.3417318,46.2582387 C20.3639789,43.9295812 22.381162,43.5280157 24.2973592,43.8384892 C27.5413732,44.3634834 30.7974296,44.7329237 34.0853873,44.799499 L34.652007,44.8094325 L34.652007,44.8094325 C34.7432746,44.6762818 34.8958099,44.5752564 35.1028521,44.5530646 C36.9254577,44.3560861 38.7873592,44.388 40.6198944,44.3338943 C42.2185563,44.2869746 43.8613732,44.1269824 45.4598239,44.2525245 L45.5870567,44.2637242 C47.540686,44.4529485 49.6023007,45.4504399 49.3663732,47.7440313 C49.1494014,49.8678904 47.1199648,51.7480626 45.499331,52.9282427 C45.1716549,53.1647436 44.8365845,53.3864501 44.4917958,53.588501 C44.3836268,53.7265127 44.2258099,53.8226771 44.0434859,53.8423327 C42.4475704,54.7046419 40.6866549,55.2148415 38.863838,55.3847671 C34.999331,55.7444853 30.5067254,55.3551781 26.7949648,53.6798043 C25.5882042,53.1351546 24.4625704,52.4550294 23.4675,51.619773 C21.9330634,50.3311703 20.3246831,48.3772368 20.3417318,46.2582387 Z M35.5682746,50.8756086 C34.0190493,50.8289002 32.4723592,51.0457456 30.9968662,51.52382 C29.9969366,51.8465519 29.0855282,52.4672877 28.1274296,52.8986536 C31.3564437,54.1306145 35.1077113,54.3992407 38.4203873,54.174998 C39.8736972,54.0765088 41.2826408,53.7413072 42.5954577,53.1647436 C42.3909507,53.0170098 42.1839085,52.8667397 41.9671479,52.7359139 C41.3122183,52.3392094 40.6272887,52.001683 39.912993,51.7330568 C38.5215845,51.2108102 37.0534859,50.9225284 35.5682746,50.8756086 Z M36.0875289,30.5120405 C35.6695544,30.2119271 36.0012775,29.2177885 36.8944406,29.3714319 C45.006466,30.7657101 40.8033244,44.7445605 30.4461973,37.0735516 C29.2131206,36.0784478 30.7063626,33.8866164 32.0353946,34.7388307 L32.5072827,35.102787 C34.0415412,36.2792126 36.579327,38.0577868 38.3974899,36.149264 C40.1137318,33.7442494 37.6828906,31.482148 36.0875289,30.5120405 Z M41.5792606,19.9322982 C43.3036762,18.4604301 45.4665003,19.5451528 46.7360144,21.0359296 L46.9597986,21.3024534 C47.2137254,21.6065814 47.4949648,21.9608384 47.6639789,22.3395781 C49.0708099,21.1412219 50.9785563,20.2979342 52.8041197,20.8453315 C54.5745423,21.3781456 55.5841901,23.0689479 55.2801761,24.8842356 C54.9352211,26.948539 53.3738961,28.3360216 51.6963293,29.4089104 L51.2205823,29.7111353 C49.2046239,30.9967858 47.3182042,32.2919481 45.6590493,34.0591632 C45.3884155,34.3463883 44.8034155,34.3083452 44.6259507,33.9260125 L44.483081,33.6183129 L44.483081,33.6183129 L44.3386268,33.3107718 C43.1616549,30.8001417 41.9005986,28.3059969 40.8651761,25.7361886 C40.0982746,23.8317112 39.8491901,21.4075233 41.5792606,19.9322982 Z M21.9222808,21.2655619 L22.1849789,20.9616798 C23.4483592,19.4906818 25.5885,18.5057894 27.2767394,19.9324039 C29.0744155,21.4520125 28.7215986,23.9649675 27.9208944,25.9030497 C26.956669,28.240584 25.8304906,30.5265675 24.7484812,32.8194245 L24.5173732,33.3108775 C24.4201901,33.5158873 24.3251197,33.7208971 24.2302606,33.9259068 C24.0525845,34.3084509 23.4654718,34.3464939 23.1969507,34.0590575 C21.5893963,32.3471202 19.7705743,31.0804158 17.827944,29.8354498 L17.2415282,29.4621886 C15.5363873,28.3800751 13.9244155,26.9830497 13.5737113,24.8843413 C13.2737113,23.0730693 14.2772324,21.3716994 16.0497676,20.8452258 C17.8793451,20.3022669 19.7828662,21.1392141 21.1920211,22.3396838 C21.3599789,21.9513276 21.6491514,21.5855595 21.9222808,21.2655619 L21.9222808,21.2655619 Z M24.2339577,10.7123953 C24.8510704,11.5138356 24.1921268,12.8235734 23.2910704,13.0306967 C22.1751549,13.2874873 21.047831,13.1312994 19.9521972,13.4498043 C18.9482535,13.7416791 17.9865634,14.3264853 17.1260704,14.9093894 C16.1447324,15.5738748 15.2409296,16.3157143 14.4104366,17.1609041 C13.916493,17.6637065 13.2940986,18.8548767 12.5322676,18.8770685 C11.7748732,18.8992603 12.791493,16.5298121 12.8755775,16.3248023 C13.472831,14.8654286 14.3117746,13.5225088 15.3611408,12.3461331 C17.4317746,10.0248728 21.8170563,7.57553425 24.2339577,10.7123953 Z M47.3575428,10.0709336 L47.8744437,10.2145808 C49.1534577,10.5702834 50.5188803,11.0073558 51.6162042,11.774346 L51.7023725,11.8353909 L51.8351984,11.9325932 C53.2128266,12.9600197 55.161279,15.0100972 54.1856408,16.7985652 C54.1182465,16.9217824 53.9754296,16.9340407 53.8605,16.8837393 C52.5624718,16.3149957 51.6001479,15.1791992 50.2195141,14.7040838 L49.9648205,14.617312 C48.6277072,14.1667473 46.9734898,13.693016 45.5342324,13.7360994 C44.5223142,14.0651483 43.1555955,13.7926016 42.8921681,12.5602901 L42.8802887,12.4999115 L42.8574718,12.372256 C42.7057817,11.5302364 42.9314155,10.4567883 43.8016268,10.0509957 C44.9939683,9.49509159 46.1571945,9.74243748 47.3575428,10.0709336 Z" id="ðŸ–-Ink"></path>
                    </g>
                    <g id="facial-hair/Full" transform="translate(104.577451, 109.479380)" fill="#000000" fill-rule="evenodd">
                        <path d="M24.8714257,20.1190753 C26.5818995,16.1103389 30.3151083,13.1641387 34.613341,12.0870037 C37.7697106,11.2980357 41.0822108,11.3232133 44.2997667,11.6363462 C45.9855551,11.79926 47.793716,11.9327646 49.3824502,12.5590305 C50.7390983,13.094107 51.8446716,14.1054418 52.6759615,15.2925964 C53.6654918,16.6993673 54.3385412,18.3094631 54.8111527,19.9597583 C54.8782466,20.1943964 54.9413318,20.4307272 55.0001973,20.6683274 C54.7946957,21.913454 54.358374,22.9732397 53.2055395,23.7560721 C52.0805554,24.5204973 50.7382544,24.8332071 49.4001731,24.9442846 C49.268939,24.8812349 49.1421356,24.8164925 49.0258817,24.7500576 C46.9406944,23.5559209 45.473067,20.733916 42.8412117,21.1158113 C40.4925014,21.4568723 38.9463867,24.4132281 37.5496509,26.1468844 C33.0661714,26.6694779 28.5860676,25.3217368 24.9380977,22.7570087 C24.7528508,21.8791786 24.7420905,20.9939433 24.8714257,20.1190753 M58.0474865,17.0780889 C57.6888081,16.0711973 57.2370843,15.0960421 56.7015987,14.1773777 C54.9314154,11.1393534 52.2138994,8.71870887 48.987904,7.33499979 C41.3564943,4.06614578 31.4822899,6.37042339 25.3193517,11.7315555 C23.2141207,13.5642296 21.0854701,16.2573844 20.4417479,19.1542873 C20.2495385,19.192371 20.0680894,19.2924466 19.9187104,19.4333564 C15.466035,16.6289124 10.8806486,13.9306797 7.29259907,10.0431766 C4.68690625,7.21863282 2.87452557,3.87593867 1.76473252,0.202762327 C1.67400799,-0.0995802223 1.18662739,-0.0553607732 1.2013965,0.279141375 C1.20561624,0.357424611 1.20983599,0.43549627 1.21405573,0.513779505 C1.16763853,0.369907613 0.94821177,0.443959322 0.931332788,0.583599688 C0.334238806,5.0457441 -0.412656141,9.77659043 0.275162369,14.2620082 C0.686587551,16.9384486 1.90187424,18.8978568 3.52647625,21.0136199 C5.26712125,23.2815064 7.23774238,25.3909222 9.25267083,27.4138033 C10.5312537,28.69786 11.8668031,30.1788941 13.4323287,31.1204087 C15.2531489,32.2142583 17.3187143,33.0459647 19.2619071,33.8899427 C21.2388578,34.7510582 23.2453468,35.5465852 25.2898135,36.2363239 C29.3766369,37.620033 33.6006021,38.576358 37.8984129,38.9952791 C41.3396153,39.3295696 45.2724181,39.6936925 48.5701492,38.3986339 C51.0977767,37.406341 53.1380236,35.6123854 54.756296,33.4540955 C56.5180397,31.1034826 57.9107667,28.4259844 58.6806593,25.6024985 C59.480723,22.6696277 58.2160653,17.550962 58.0474865,17.0780889" id="ðŸ–-Ink"></path>
                    </g>
                    <g id="accessories/*-None" transform="translate(88.521127, 88.978474)"></g>
                </g>
            </g>
        </g>
    </g>
</svg>