<?xml version="1.0" encoding="UTF-8"?>
<svg width="240px" height="324px" viewBox="0 0 240 324" version="1.1" xmlns="http://www.w3.org/2000/svg" xmlns:xlink="http://www.w3.org/1999/xlink">
    <!-- Generator: Sketch 62 (91390) - https://sketch.com -->
    <title>peep-104</title>
    <desc>Created with Sketch.</desc>
    <g id="Introduction" stroke="none" stroke-width="1" fill="none" fill-rule="evenodd">
        <g id="variations" transform="translate(-3486.000000, -1730.000000)">
            <g id="images" transform="translate(126.000000, 110.000000)">
                <g id="a-person/bust" transform="translate(3360.000000, 1620.000000)">
                    <g id="body/Thunder-T-Shirt" transform="translate(31.056338, 135.052838)">
                        <path d="M86.5087798,-10.9909136 C89.3480051,-11.7771367 92.6118784,-11.6856221 95.5248361,-11.4846279 C98.4830051,-11.2802522 101.657301,-10.9298334 104.433146,-9.82489407 C106.846245,-8.86430699 108.881174,-7.24895669 110.121104,-4.93424828 C111.14047,-3.03146159 111.618569,-0.944588788 111.918146,1.17504331 C112.040681,2.0424853 112.143275,2.91197609 112.240865,3.78228333 L112.44142,5.59292821 C112.520021,6.28532168 112.588551,6.80441121 112.726245,7.5768437 C113.10716,9.71338382 113.637653,11.4984484 114.822019,13.0529298 C117.690188,16.8162331 122.373569,18.0758809 126.632512,19.6821431 C129.357864,20.7099396 131.515963,22.558832 132.114695,25.529783 C132.692381,28.3959086 154.656401,52.4415156 156.812643,54.4685965 L156.871878,54.523239 C158.544484,56.0297439 158.347583,58.8616265 158.581667,60.9292664 C158.832442,63.1461196 159.071174,65.3646637 159.297864,67.5838417 C159.758005,72.0925776 160.168076,76.6061744 160.527864,81.1235756 C161.934562,98.7911412 162.572786,116.520192 162.437143,134.242989 L162.428639,135.246159 C162.407723,137.495349 162.424414,139.754472 162.323639,142.001548 C162.226667,144.161125 161.573428,146.322605 159.573146,147.450581 C157.719998,148.495729 155.376653,148.403681 153.305598,148.508013 L153.181667,148.514519 C150.959343,148.636257 148.736174,148.736014 146.511949,148.818441 C137.472653,149.153008 128.425118,149.189149 119.38054,149.147513 C101.437583,149.064875 83.4766671,148.670284 65.5506108,149.675255 C60.9811037,149.931411 46.4133573,148.374816 41.8582164,148.818441 C37.5044136,149.242198 41.2400474,151.378315 38.5503995,151.237556 C29.7050107,150.774644 21.3147657,148.800264 12.839977,146.42194 C11.781315,146.124992 10.9717375,145.097196 10.984882,143.986127 C11.1424418,131.783184 11.486808,119.583411 12.0249066,107.391458 C12.5042728,96.531012 13.1359629,85.677329 13.9195544,74.8346363 C14.2602499,70.1216568 14.6295754,65.4106191 15.0275309,60.7020896 L15.1998361,58.6843036 C15.4246249,56.0821588 15.5539206,53.4322488 16.0653995,50.8662449 C16.5713854,48.3283505 17.7192023,46.1275599 19.3835685,44.1611568 C20.8770192,42.3970159 37.7858221,28.5865423 41.8582164,25.9719278 C45.7561037,23.4691177 49.8492023,21.3577282 53.8508221,19.0381588 C55.5156108,18.0731333 57.1144887,18.4204039 58.5367422,17.2357855 C59.2865626,16.6114229 70.1661261,12.4038545 73.1014362,11.0155014 L73.1879347,10.9742997 C75.4345544,9.89599047 77.5020192,8.72680064 79.0544136,6.86226836 C79.5747657,6.23730554 80.5953995,2.29963822 80.5973009,1.04146992 C80.6008925,-1.2060291 80.4306108,-3.57357509 81.1083573,-5.75069446 C81.9187798,-8.35410738 83.8721601,-10.2609097 86.5087798,-10.9909136 Z M91.3221851,46.959635 L73.9375151,80.8286364 L85.2419718,80.8286364 L77.1388862,99.6466804 L94.933784,99.6466804 L88.6213624,126.005067 L124.720234,80.8286364 L111.17402,80.8286364 L124.720234,63.0416369 L115.324858,63.0416369 L124.720234,47.9783551 L91.3221851,46.959635 Z" id="ðŸŽ¨-Background" fill="#FFFFFF"></path>
                        <path d="M149.720873,66.0048658 C149.680732,66.044811 149.638479,66.0851789 149.598338,66.1274489 C149.644817,66.0619303 149.684958,65.9940869 149.720873,65.9266661 L149.720873,66.0048658 Z M115.934958,56.1388227 C114.37369,58.1341808 112.721577,62.19422 111.204676,64.2252963 C110.98707,64.5167483 110.77369,64.8086231 110.562423,65.1021886 C109.932845,65.9835194 110.77369,67.3319342 111.808901,67.275081 C113.877211,67.1649675 115.943408,67.0108932 118.009606,66.8544939 C113.765239,71.5864157 110.241296,77.4642787 106.343408,82.4772963 C106.079324,82.8133432 105.819465,83.1517151 105.559606,83.4896642 C104.572986,84.7767875 105.561718,85.3603256 106.909606,85.0134998 C107.188479,84.9418521 107.467352,84.869993 107.746225,84.8002474 C109.706789,84.2972337 111.665239,83.79422 113.625803,83.2933198 C114.709606,83.014126 115.799746,82.6698364 116.898338,82.4563726 C117.350451,82.369719 117.783549,82.4415781 118.21031,82.4648266 C118.00538,82.7774137 117.718056,83.341719 117.661014,83.4283726 C117.020873,84.425946 116.376507,85.4192924 115.727915,86.4084117 C114.464535,88.3319108 113.194817,90.2528736 111.87862,92.1402317 C106.744817,99.4994489 101.207493,106.524944 95.7187606,113.615746 C94.3370704,115.399332 92.9363662,117.164318 91.5124225,118.912185 C91.5187606,118.901406 91.5229859,118.890838 91.5293239,118.880482 C92.8117183,116.38211 94.0941127,113.886275 95.376507,111.387903 C97.8145352,106.641187 100.229324,101.881578 102.692704,97.1473315 C102.819465,96.9000517 102.948338,96.6548853 103.077211,96.4076055 C103.588479,95.4267288 102.749746,94.4082317 101.699746,94.6151436 C96.5773521,95.624764 91.5046056,96.8653902 86.4948169,98.3344861 C86.2693944,98.5747914 85.9379155,98.645171 85.6419296,98.5870497 C85.4405915,98.6472845 85.2384085,98.7051945 85.0370704,98.7662748 C85.0981268,98.6396759 85.1612958,98.5143452 85.2227746,98.3881691 C85.0180563,98.2102121 84.9162254,97.9348227 85.0493239,97.5909558 C87.9320704,90.1497346 91.8844648,82.9661495 96.5674225,76.3872376 C96.3789718,76.3908305 96.1909437,76.3935781 96.0018592,76.3990732 C90.8617183,76.5385644 85.8187606,77.2761769 80.8645352,78.677218 C80.8412958,78.2185879 81.1180563,77.5086622 81.2680563,77.1705018 C81.8680563,75.819762 82.5567887,74.5009362 83.2011549,73.1715429 C84.5194648,70.4408971 85.8377746,67.7125761 87.1560845,64.981719 C88.4448169,62.3144783 89.7229859,59.6389949 90.935662,56.9337112 C91.5715775,55.5153393 92.207493,54.0950654 92.8412958,52.6750027 C93.3589014,51.5187053 93.7666479,50.3541652 94.1955211,49.1708149 C95.4546761,49.5406779 111.622986,49.6207796 115.552563,49.8936329 C116.515944,49.961265 117.481437,50.0225566 118.44693,50.0753941 C119.215944,50.1197777 120.299746,50.2888579 120.830028,49.5935155 L121.030732,49.7623843 C119.285662,51.8505252 117.612423,53.9959421 115.934958,56.1388227 L115.934958,56.1388227 Z M52.8103099,17.3435742 C52.8905915,17.3076446 52.9687606,17.2717151 53.0469296,17.2357855 C53.0870704,17.2928501 53.135662,17.3456877 53.1863662,17.3985252 C53.3131268,17.5274489 53.4377746,17.6667288 53.5687606,17.7937503 C53.3152394,17.6455937 53.0617183,17.495535 52.8103099,17.3435742 L52.8103099,17.3435742 Z M165.804676,136.120326 C165.658901,133.040952 165.496225,129.961367 165.322986,126.881993 C164.980732,120.862948 164.627915,114.843692 164.156789,108.832889 C163.199746,96.6527718 162.308197,84.4766701 160.87369,72.3409362 C160.271577,67.2537346 159.430732,62.2047875 158.587775,57.1533041 C158.695521,57.056083 158.80538,56.9588618 158.913127,56.8639656 C158.79693,58.2459851 160.672986,59.1211867 161.602563,57.7429714 C161.672282,57.6396211 161.739887,57.5360595 161.807493,57.4282708 C162.612423,56.126353 164.467352,49.7391358 164.338479,49.1980791 C164.106085,48.2237542 163.459606,47.3574294 162.954676,46.4993472 C162.513127,45.7488423 162.067352,44.9985487 161.615239,44.254807 C160.713127,42.7645761 159.783549,41.2895624 158.809606,39.8458286 C156.792,36.8575468 154.586366,33.9874098 151.987775,31.4786818 C149.298338,28.8790732 146.211718,26.7421104 143.02369,24.8042395 C141.492,23.8740869 139.911718,23.0310106 138.301859,22.2445761 C136.713127,21.4710341 134.974394,20.6150654 133.263127,20.1754568 C133.165944,20.1500947 133.066648,20.2855703 133.15538,20.3574294 C133.609606,20.7167249 134.084958,21.054674 134.568761,21.3801534 C133.258901,20.9259616 131.908901,20.5981573 130.548338,20.4819147 C127.913831,19.5562004 125.247634,18.7088971 122.625803,17.7428149 C120.048338,16.7917386 117.508901,15.7225174 115.795521,13.4695233 C114.331437,11.5439108 113.406085,9.18756634 112.694113,6.89230215 C111.912423,4.36243914 111.601859,1.73303014 110.879324,-0.801059883 C110.822282,-1.00606967 110.486366,-1.0293182 110.442,-0.801059883 C109.926507,1.85772681 109.949746,4.84643131 110.243408,7.53036869 C110.551859,10.3455546 111.344113,13.1081143 113.068056,15.397038 C115.070873,18.0579382 117.787775,19.5392924 120.844817,20.7207405 C123.31031,21.6762552 125.807493,22.6482552 128.332141,23.5021104 C128.002563,23.717899 127.668761,23.933265 127.324394,24.1382748 C125.95538,24.9521847 124.531437,25.6750027 123.075803,26.3238481 C120.418056,27.5093119 117.618761,28.3971945 114.802563,29.117899 C109.561014,30.4534215 104.186366,31.1320673 98.7821408,31.2208344 C87.9694648,31.4004822 77.0363662,29.134807 67.1469296,24.759856 C64.3624225,23.5276838 61.6434085,22.172717 58.9518592,20.7505409 C58.1110141,20.3064939 57.2659437,19.8584313 56.4250986,19.3976877 C56.4948169,19.393672 56.5666479,19.3873315 56.6363662,19.3807796 C58.5145352,19.2034568 60.3694648,18.8420477 62.1863662,18.33058 C65.9067887,17.2801691 69.4729859,15.6422043 72.9758028,14.0293902 C75.9462254,12.6619538 79.0053803,11.1043022 80.820169,8.25551155 C81.7898873,6.73167593 82.235662,4.94365245 82.5969296,3.19367202 C83.0004507,1.24502231 83.4758028,-0.712292759 83.7694648,-2.67975264 C83.8729859,-3.3687546 83.7187606,-4.30080939 82.9793239,-4.62628885 C82.6835493,-4.75542387 82.4405915,-4.86109902 82.1089014,-4.86109902 C81.3758028,-4.86109902 80.6236901,-4.32828493 80.448338,-3.59701292 C80.0152394,-1.77305988 79.7532676,0.101617221 79.4131268,1.94438043 C79.1194648,3.53796164 78.8511549,5.2014998 77.9912958,6.6025409 C76.4891831,9.05652916 73.5441127,10.3117386 71.0553803,11.5060791 C67.9011549,13.0193472 64.7448169,14.4943609 61.4680563,15.7225174 C60.0250986,16.2633628 58.5567887,16.7539068 57.0673521,17.1552611 C57.126507,16.7898364 57.0758028,16.4049675 56.8603099,16.1154176 C56.5011549,15.6377659 56.0934085,15.3207405 55.6307324,14.9553159 C55.1279155,14.5577659 54.4518592,14.350854 53.8581972,14.5262748 C53.8581972,14.5281769 53.8560845,14.5262748 53.8560845,14.5262748 C53.6152394,14.4734372 53.3490423,14.4943609 53.0743944,14.6190575 C52.2250986,15.0081534 51.3779155,15.4010536 50.5307324,15.800717 C38.3427042,21.536764 26.5011549,28.2744 17.5328451,38.5354568 C16.2398873,40.0149088 15.0293239,41.5706583 13.8948169,43.1745957 C12.792,44.7324587 11.4272113,46.4232611 11.1229859,48.3547914 C11.0976338,48.515629 11.3321408,48.5896016 11.3722817,48.424537 C11.4441127,48.1265331 11.5412958,47.8348697 11.6617183,47.5516603 C11.4103099,48.4310888 11.4250986,49.3652571 11.7800282,50.2844196 C12.2004507,51.3665331 12.9715775,52.0832219 13.9455211,52.3683335 C12.9673521,56.6568423 12.3103099,61.0022043 11.7821408,65.3959656 C11.0236901,71.7259068 10.4849577,78.070854 10.0793239,84.4322865 C9.26805634,97.12831 8.90678873,109.887527 9.16876056,122.606588 C9.24270423,126.201445 9.36523944,129.796725 9.55115493,133.38968 C9.64411268,135.186157 9.74552113,136.98031 9.86171831,138.776787 C9.97580282,140.543887 9.88284507,142.490423 11.4229859,143.422478 C11.442,143.492224 11.4631268,143.559645 11.4821408,143.62939 C11.8560845,144.933422 13.5229859,144.515159 13.6793239,143.331386 C13.6814366,143.318917 13.6835493,143.303911 13.685662,143.291441 C14.9448169,142.329797 14.7546761,140.727762 14.6617183,139.191034 C14.5624225,137.532146 14.4567887,135.875159 14.3680563,134.218173 C14.1990423,131.039253 14.0553803,127.860756 13.926507,124.679723 C13.6750986,118.389938 13.5335493,112.091911 13.4870704,105.797688 C13.3941127,93.2075507 14.1208732,80.6364352 14.9828451,68.0824391 C15.3441127,62.830173 15.7666479,57.6013667 15.8955211,52.3514254 C16.5694648,52.000584 16.776507,51.0032219 16.4384789,50.331128 C24.420169,55.7795272 31.8272113,62.2933432 37.7743944,69.8641221 C38.7673521,71.1277855 39.7159437,72.4297033 40.6243944,73.755081 C40.920169,74.1860243 41.2011549,74.6342982 41.4842535,75.0821495 C41.2096056,76.3312297 40.9962254,77.601445 40.7173521,78.7998012 C40.1427042,81.2749245 39.8997465,83.8426192 39.570169,86.357899 C38.9004507,91.4662356 38.4293239,96.6208579 38.0300282,101.75667 C37.2441127,111.899371 36.6610141,122.040169 36.4772113,132.212459 C36.3758028,137.965202 36.2405915,143.754087 36.4941127,149.50514 C36.3060845,150.629312 37.3180563,151.728545 38.376507,151.87015 C39.3039718,151.994635 40.170169,151.512968 40.5758028,150.737101 C43.4659437,151.096396 46.4321408,151.261461 49.3032676,151.282384 C53.1715775,151.30986 57.0398873,151.305844 60.9081972,151.223206 C68.6469296,151.054126 76.3835493,150.855668 84.120169,150.625296 C99.5934085,150.16878 115.066648,149.71015 130.542,149.251519 C134.832845,149.124498 139.12369,148.997899 143.414535,148.871089 C145.349746,148.814024 147.762423,149.371778 149.287775,147.877742 C149.549746,147.619684 149.752563,147.317453 149.896225,146.994087 C150.352563,147.108216 150.912423,146.9962 151.212423,146.643245 C151.772282,145.981719 152.184254,145.369014 152.163127,144.451754 C152.144113,143.593461 151.907493,142.689093 151.784958,141.839465 C151.552563,140.24377 151.32862,138.647864 151.115239,137.050056 C150.694817,133.892482 150.301859,130.730893 149.940592,127.566768 C149.201155,121.097547 148.529324,114.613108 148.00538,108.122541 C146.965944,95.2874489 146.672282,82.3845135 146.708197,69.5090536 C146.712423,68.3571945 146.718761,67.2053354 146.725099,66.053265 C146.77369,66.1147679 146.826507,66.1716211 146.883549,66.2204431 C146.930028,66.2603883 146.976507,66.3005448 147.022986,66.3430262 C147.563831,66.8185644 148.463831,67.0637307 149.112423,66.6135546 C149.908901,66.0976485 150.458197,65.3241065 151.079324,64.6247483 C151.732141,63.8913628 152.403972,63.1767875 153.082141,62.4668618 C154.396225,61.0930849 155.754676,59.7761613 157.140592,58.4742434 C157.252563,58.3708932 157.364535,58.265218 157.476507,58.1635585 C157.484958,62.2616407 157.480732,66.3578207 157.590592,70.4537894 C157.75538,76.5385644 158.084958,82.6169988 158.38707,88.6933198 C158.98707,100.725281 159.608197,112.753226 160.206085,124.783285 C160.372986,128.141852 160.531437,131.50211 160.698338,134.860467 C160.782845,136.540701 160.865239,138.220936 160.945521,139.901382 C160.987775,140.809977 161.030028,141.721108 161.072282,142.629915 C161.118761,143.606353 161.057493,144.650212 161.38707,145.578251 C162.13707,147.699997 165.377915,148.000114 166.001155,145.578251 C166.392,144.058643 166.092,142.299997 166.022282,140.740232 C165.950451,139.201813 165.87862,137.660858 165.804676,136.120326 L165.804676,136.120326 Z" id="ðŸ–-Ink" fill="#000000"></path>
                    </g>
                    <g id="head/Gray-Short" transform="translate(78.591549, 38.043053)">
                        <path d="M60.7199366,107.677045 C56.0306408,107.70411 52.0452887,106.373025 49.0043028,104.170967 C45.2095141,102.817268 40.6321901,100.729339 37.8519085,98.5374247 C36.7674718,98.8142935 35.4698662,97.6618004 34.640007,97.0535342 C29.4797958,93.1987162 25.4293732,87.5562975 24.229162,81.9043679 C22.3763451,84.2440157 19.7397254,84.3412368 17.2140211,83.1783875 C11.9196549,80.1746771 12.1176127,73.8500196 14.023669,69.1246497 C10.0165563,60.1302153 7.23944366,36.3858552 13.3562746,26.8030215 C14.6074014,25.3692211 16.4435282,24.5115616 17.7654296,23.0411977 C18.9417676,21.7570333 20.0606408,20.4434912 21.4292324,19.427319 C25.6051479,16.2477652 32.7975423,14.5548493 37.3009225,13.7586928 C56.0999366,9.69273581 70.5438803,17.0008063 87.5724718,23.1652603 C86.5924014,25.6169237 85.2366972,27.8527984 83.6830352,29.9375577 C87.9105,31.5161331 85.9687394,35.0653386 82.6890211,36.8645636 L80.7364859,35.9151781 C83.7802183,46.8094403 90.785007,73.9007436 87.7626127,82.6005558 C85.3524718,96.1734716 74.7751479,107.774912 60.7199366,107.677045" id="ðŸŽ¨-Background" fill="#FFFFFF"></path>
                        <path d="M37.1261831,12.5463029 C45.5868169,10.9903421 54.2722394,10.910663 62.6295634,13.0979272 C66.8931549,14.2136454 71.019,15.7799624 75.149493,17.3012618 C79.4654789,18.8910387 83.7848451,20.4708822 88.1027324,22.0553753 C88.4901972,22.1976141 88.8645634,22.6416611 88.6885775,23.0876102 C87.8037887,25.3302481 86.6718169,27.4249409 85.2799859,29.3708431 C86.3944225,29.9254262 87.155831,31.1345613 87.1824507,32.5011523 C87.2289296,34.8889879 84.9975211,36.4624908 83.2163239,37.6196337 C82.9072394,37.8206278 82.6047042,37.8178802 82.3570986,37.6974106 C84.2606197,44.9602521 86.0863944,52.2473988 87.6309718,59.593301 L87.7342562,60.0883534 C89.2718699,67.5175691 90.2709764,75.0995666 88.8166056,82.6283695 C87.570338,89.0806826 84.677662,95.3095984 80.1529437,100.116761 C75.7351268,104.81064 69.807169,107.765951 63.3930845,108.42473 C57.4429437,109.035743 50.3551268,107.657951 46.3818169,102.814436 C46.1538592,102.536299 46.4382254,102.110217 46.7779437,102.300855 L47.1523744,102.509425 C49.9653714,104.063708 52.8879197,105.385359 56.0754085,105.952565 C59.3659014,106.538005 62.7163944,106.472276 65.9775211,105.728745 C78.5122394,102.871712 86.0124507,90.6742638 87.1556197,78.4715319 C87.8798451,70.7399155 86.2066056,63.0545847 84.4682958,55.5677119 C82.6505493,47.7388744 80.6635775,39.949982 78.3554789,32.2513362 C78.2690704,31.9634771 78.285338,31.7060524 78.3709014,31.4881503 C75.8249155,30.0907022 72.6265352,33.1901542 70.7037887,34.5064438 C69.4116761,35.3909448 68.000831,36.0342951 66.420338,36.1344751 C64.7620986,36.2393049 63.1387183,35.7147335 61.6340704,35.0701151 C58.5554789,33.7510779 55.6689296,32.24098 52.4109718,31.3640877 C49.1625211,30.4895202 45.8086479,30.0587883 42.4444225,30.0896454 C36.3692113,30.1452305 30.2959014,31.7375436 26.5786479,36.8691288 C25.0241408,39.0151796 24.0432254,41.4822716 24.830831,44.1214027 C25.2522589,45.5335142 26.0435563,46.817756 26.9128318,47.9984778 L27.1999136,48.3855103 C27.9404067,49.3919851 28.5487451,50.3781665 27.7868873,51.6156728 C27.3616056,52.3067883 26.7231549,52.8660211 26.253507,53.5298724 C25.8360423,54.1201738 25.4667465,54.7561268 25.1768873,55.4191327 C24.6102676,56.71471 24.3670986,58.1079311 24.3168169,59.5138333 C24.2162535,62.3157041 24.945338,65.0150701 25.1027324,67.7962286 C25.122169,68.1396728 24.6681549,68.1310074 24.5580845,67.8699898 C23.2894225,64.8595162 22.4591408,61.2686748 22.8489296,57.990209 C23.0344225,56.4321346 23.502169,54.9319703 24.2646338,53.558616 C24.7028028,52.7694341 25.2373099,52.0392188 25.8199859,51.3510622 L26.0267485,51.1133714 C26.3023293,50.7937654 26.5076561,50.4934556 26.2818169,50.0077198 C26.0916761,49.5989683 25.6661831,49.2031092 25.394493,48.8353597 C23.7140704,46.5597511 22.4380141,43.8531992 22.8461831,40.9617159 C23.247169,38.1207452 25.1213239,35.48098 27.1004789,33.4875241 C31.5155493,29.0405025 38.3673803,28.0477902 44.3557606,28.2927452 C47.8720986,28.4364634 51.3827324,29.0563538 54.7313239,30.1393127 C56.3830141,30.6736063 57.9979437,31.3243538 59.5657606,32.0693636 L59.9155817,32.2373823 C61.371954,32.9432553 62.817036,33.7098568 64.3972394,34.0981151 C68.0409718,34.9931836 70.1663239,32.3026943 72.9867465,30.6004791 L73.1261957,30.5179942 C75.3047452,29.2551778 78.2651408,28.7343628 80.2338592,30.6262638 C80.3942113,30.7805495 80.478507,30.9498411 80.504493,31.1174419 C80.6090704,31.2434067 80.6916761,31.4008626 80.7428028,31.59298 C81.149493,33.1195632 81.5540704,34.6474145 81.957169,36.1756885 C82.025831,36.0837511 82.1139296,35.9987883 82.2267465,35.9258724 L82.7150933,35.6110751 C83.6275982,35.0181529 84.5992817,34.3264059 85.0454789,33.3385221 C85.4016419,32.5499089 85.0836427,30.8162375 83.9225396,30.9220936 L83.8699859,30.928072 C82.9435775,31.0540368 82.2844225,30.1042286 82.9465352,29.3408313 C84.5122394,27.5354771 85.8134366,25.5310309 86.7719577,23.3463029 L80.2527148,20.9333959 C78.0795106,20.1294458 75.9059366,19.326526 73.7312535,18.5266708 L72.5406185,18.0890082 C68.5698986,16.6320377 64.5760679,15.2091437 60.4467465,14.2711327 C52.2157606,12.401528 43.6323803,12.8373323 35.4229437,14.5974575 L34.9299169,14.7040409 C31.4762893,15.4574048 27.9773547,16.3717336 24.8075915,17.956025 C23.2302676,18.7443616 21.7319577,19.7043147 20.444493,20.9153519 C19.1187887,22.1623186 18.0886479,23.6844634 16.664493,24.8318841 L15.8866074,25.4550089 C14.6779552,26.4292809 13.5975671,27.38506 12.9163944,28.8942481 C12.2194225,30.438162 11.8830845,32.1429135 11.6116056,33.8049722 C10.9380845,37.9239781 10.6718873,42.1089252 10.6972394,46.2811914 C10.7422394,53.6325886 11.9122394,60.8267413 13.3507606,68.0018724 C14.3633662,66.1553049 15.9480845,64.5936376 18.1232958,64.3081033 C20.4683662,64.0003773 22.7730845,65.1822481 23.8841408,67.2722912 C23.9266056,67.352393 23.8256197,67.4305926 23.7597042,67.3684556 C21.8513239,65.5692305 18.7325915,65.467571 16.7895634,67.2811679 C14.9561831,68.9922599 14.390831,71.7776454 14.3716056,74.1836571 C14.3519577,76.6602599 14.9644225,79.6024673 17.1109014,81.1315867 C17.9986479,81.7639468 19.0832958,82.1418411 20.1751268,82.1528313 C21.3117465,82.1642442 22.3887887,81.659117 23.4529437,81.3125025 C24.2599859,81.0497941 24.7537183,81.9708587 24.4592113,82.6222403 C24.402169,82.7488391 24.3375211,82.8665613 24.269493,82.9802677 L24.8466106,83.929529 C26.5794401,86.7725662 28.3446127,89.562054 30.6565352,92.0055593 C31.9881261,93.4129217 33.3999887,94.7405587 34.9500035,95.9044647 L35.1723803,96.0696141 C35.7396338,96.4861855 36.5813239,97.3406748 37.3201268,97.369207 C37.9442113,97.3935123 38.2868873,97.0754301 38.7233662,97.7200485 C38.9080141,97.9929018 38.8930141,98.4107413 38.7233662,98.6848626 C37.6101042,100.484958 35.3327057,98.7320644 34.1565932,97.8292156 L34.0154789,97.7211053 C32.3580845,96.4563851 30.7868873,95.0574575 29.4060423,93.4924086 C26.9282958,90.6844086 24.7120986,87.3490896 23.6959014,83.6973793 C21.9778732,85.3112501 18.7418873,84.8923538 16.7777324,83.9605104 C11.5554085,81.4830622 10.8592817,74.1536454 12.7387183,69.3192188 C12.7883662,69.1911405 12.8418169,69.0639076 12.8965352,68.9366748 C9.63794366,60.765027 8.6405493,51.6748509 8.91709859,42.9418568 C9.0455493,38.8828744 9.31977465,34.6239546 10.2770282,30.6651523 C10.6934366,28.9430701 11.4136479,27.3010896 12.5692817,25.9448548 C13.8415352,24.4514536 15.6770282,23.6033049 17.0023099,22.1549213 L17.2941652,21.8346235 C18.4075781,20.6086995 19.4690197,19.4093796 20.8144225,18.4068352 C22.2848451,17.3114067 23.9080141,16.4550153 25.5939296,15.7429761 C29.265338,14.1929331 33.2173099,13.2653166 37.1261831,12.5463029 Z M16.6983169,72.8005386 C18.2407817,72.0641941 19.955007,71.7363898 21.6571901,71.9673957 L21.83093,71.9920737 C23.3025264,72.2105617 25.7929181,72.8220249 26.0783873,74.4676697 C26.1755704,75.0273252 25.8392324,75.639607 25.1999366,75.6214309 C24.3979648,75.5986051 23.9798662,75.1926012 23.3743732,74.7392548 C22.7904296,74.3021824 22.1519789,73.9316853 21.4712746,73.6679202 C19.9869085,73.0926247 18.4283873,72.9060023 16.858669,73.1809691 C16.6427535,73.2185894 16.4712042,72.9091726 16.6983169,72.8005386 Z" id="ðŸ–-Ink" fill="#000000"></path>
                    </g>
                    <g id="face/Monster" transform="translate(112.183099, 77.354207)" fill="#000000">
                        <path d="M21.3723169,44.5256102 C22.9045739,44.2297198 24.8108537,44.8742816 26.3389908,45.1567196 L26.4528803,45.1772031 C28.3059085,45.5009918 30.1549225,45.8924125 32.0284437,46.0834732 C33.8170352,46.2662912 35.6436549,46.2990505 37.4324577,46.0934067 C38.2914718,45.9944947 39.1430915,45.8262599 39.9775986,45.6005378 C40.3346408,45.5039507 40.6887254,45.396162 41.0385845,45.2765378 L41.0781433,45.2613897 C41.3351747,45.1552347 42.030229,44.7551937 42.0220352,44.9781112 C42.2174577,44.7526004 42.4866127,44.5926082 42.7821761,44.5148313 C43.1992183,44.4051405 43.7345704,44.5080681 44.0835845,44.8031131 C44.5375986,44.4433949 45.2187254,44.7014536 45.523162,45.1321855 C46.0452706,45.8708971 45.8753742,46.7366555 45.8079129,47.593644 L45.8022465,47.6692344 C45.7449401,48.4770153 45.6572245,49.2792944 45.5490068,50.0810274 L45.5014014,50.4246082 C45.3330211,51.6104947 45.2867535,53.5663303 43.8503451,53.9550035 C42.7142535,54.2626943 41.6746995,53.0932814 40.9423394,52.1653313 L40.5414718,51.6512853 C40.0667535,51.0487256 39.6357676,50.4284125 39.2884437,49.7434262 C39.1302042,49.4316845 38.9772465,49.1123342 38.8447817,48.7887569 C38.8280915,48.7479663 38.815838,48.7114027 38.803162,48.6746278 C36.6964014,48.9582599 34.5397817,48.9176806 32.4275282,48.6391209 C31.0902042,48.4626434 29.7727394,48.207755 28.4751338,47.8653675 L27.8897133,48.9239762 C27.2046278,50.1584947 26.5097582,51.3892344 25.7793592,52.5958098 L25.7226839,52.6877235 C25.0389698,53.7759201 23.8941199,54.8657901 22.5406268,54.0507452 C21.3294296,53.321164 21.2778803,51.6616415 21.1502746,50.4233401 C21.0650546,49.5961415 20.9960097,48.7632793 20.962813,47.9315499 L20.950838,47.5751836 C20.9290775,46.7686708 20.7978803,45.8338685 21.1078099,45.0795593 C21.1528099,44.9696571 21.3106268,44.885117 21.4056972,45.0007256 C22.0532324,45.7882168 22.2490775,47.0087648 22.5287958,47.9752697 C22.8402042,49.05062 23.2912606,50.2250935 23.4530915,51.3406004 L23.4983028,51.2619781 L23.4983028,51.2619781 C23.6577042,50.9590074 23.8203275,50.6576748 23.983743,50.3567648 L24.4739366,49.4540877 C24.9135845,48.6391209 25.3612606,47.8292266 25.8129507,47.0212344 C25.2971761,46.8273558 24.7861901,46.6191053 24.2772387,46.4073793 L23.1221976,45.9243235 C22.4624167,45.6455319 21.7896761,45.3308548 21.2937254,44.8236141 C21.205838,44.7337902 21.2364718,44.5516063 21.3723169,44.5256102 Z M43.2845704,47.5031131 C42.1464718,47.9659703 40.9692887,48.2999037 39.7707676,48.5213988 C39.8480915,48.6006552 39.9252042,48.6799115 39.9970352,48.7631836 C40.2790775,49.0897198 40.5782852,49.4033401 40.8792535,49.7134624 L41.0599225,49.8991914 C41.5209085,50.3724047 42.2134437,51.1516532 42.9201338,51.6045769 L42.9583353,51.4001161 C42.9645891,51.3648793 42.9694912,51.3342863 42.9721056,51.3105886 L43.0473795,50.6382599 C43.0595704,50.5261738 43.0714014,50.4140407 43.0825986,50.3018137 C43.1434437,49.6954497 43.1918239,49.0878176 43.2425282,48.4806082 C43.2691479,48.1606239 43.2754859,47.8319742 43.2845704,47.5031131 Z M29.8161972,8.43131272 C32.5267606,7.27311311 35.7437324,7.81992935 38.0784507,9.56943405 C40.4674648,11.3597824 41.5121831,14.2704986 41.6503521,17.1744517 C43.5397183,15.5605808 46.2606338,16.7821855 47.8519014,18.2943969 C49.6882394,20.0395162 50.6169718,22.6731523 50.1889437,25.1725808 C49.7623944,27.6635554 47.960493,29.8611757 45.5226761,30.6019585 C44.3562676,30.956393 43.056338,30.9644243 41.8829577,30.6347178 C41.484507,30.5224908 40.9962676,30.3487609 40.5452113,30.1067648 C40.5709859,30.2103264 40.5971831,30.3140994 40.6216901,30.4174497 C41.2071127,32.8963773 41.5390141,35.6828196 40.6605634,38.1342716 C39.248662,42.0736297 34.2338028,44.2788587 31.1028169,40.7822795 C29.8734507,39.4095593 28.9178873,37.2597041 28.9922535,35.3881973 C29.031338,34.4047843 29.5882394,33.2670857 30.7379577,33.3336611 C31.6294752,33.385087 32.0522237,34.1314983 31.8240294,34.9213634 L31.8101408,34.9669761 C31.3267606,36.477074 32.1519718,38.6590544 33.3475352,39.6889644 C35.1809155,41.2683851 37.6969014,39.8939742 38.6993662,38.0419115 C39.8676761,35.883391 39.725493,33.1159703 39.3519718,30.7676571 C38.9852113,28.4618254 38.1673944,26.3527609 37.2992958,24.2191796 C37.2071831,24.2358763 37.1138028,24.2513049 37.0183099,24.2641973 C35.291831,24.4985847 31.7790845,24.5869292 29.8715493,23.3357354 C30.0764789,25.2668431 29.6744366,27.2548039 28.5777465,28.8900211 C27.3557746,30.7122834 25.5147887,31.6766748 23.3721127,31.9721425 C21.2911268,32.2595789 18.8788732,32.3177002 16.8242958,31.8244086 C12.4491549,30.7739977 10.9064789,25.3704047 12.2296479,21.4697237 C13.0123944,19.1624125 15.1964789,17.087164 17.6241549,16.5630153 C18.8748592,15.7400172 20.5542254,15.4963303 21.9976056,15.6085573 C24.1533803,15.7765808 26.2766197,16.7084243 27.7204225,18.3449096 C28.2720423,18.9700838 28.7256338,19.6778959 29.0752817,20.4353753 C29.1927465,20.3428039 29.3296479,20.2732697 29.4842958,20.2369174 C29.7257746,20.1802755 29.9370423,20.1675945 30.1732394,20.2508665 C30.2909155,20.2925025 30.4605634,20.4396023 30.5626056,20.5351327 L30.7957405,20.8090379 C31.0815544,21.142265 31.3533275,21.4217295 31.8621127,21.6288705 C33.2805634,22.2064908 35.2043662,22.3318215 36.711338,22.2136767 C40.5564085,21.9127139 40.0721831,16.8176924 39.1250704,14.200119 C38.0032394,11.0991875 34.7877465,9.17019335 31.5164789,9.72097221 C30.1109155,9.95747319 28.77,10.7058646 27.7411268,11.6837824 C26.5926761,12.775618 26.1008451,14.0944438 25.4119014,15.4764634 C25.3711268,15.558256 25.2304225,15.5405025 25.2128873,15.450256 C24.6466901,12.5361581 27.3314789,9.49313659 29.8161972,8.43131272 Z M9.33678169,31.9255397 C9.2199507,31.7883734 9.37333099,31.5472227 9.54065493,31.6609292 C10.7662183,32.4938607 12.1291056,33.0949409 13.6107254,33.2574693 C14.3066408,33.3335554 15.0080493,33.3388391 15.7012183,33.2321072 C16.2917113,33.1408039 16.8238944,32.9607335 17.413331,33.1234732 C17.7270634,33.2101268 17.7841056,33.5742834 17.5924859,33.8025417 C16.701993,34.8628861 14.509669,34.5796767 13.3143169,34.2954106 C11.7684718,33.9280838 10.3671338,33.1365769 9.33678169,31.9255397 Z M50.5786268,29.9895499 C51.1803169,29.6165166 51.8965141,30.3551859 51.5407394,30.9518278 C50.6272183,32.482638 47.9794014,32.6073346 46.4432746,32.2408532 C46.3230634,32.2125323 46.3505282,32.0237965 46.4722183,32.0271781 C47.3551056,32.0489472 48.1530634,31.8792329 48.9136268,31.4184892 C49.5634859,31.0247436 49.951162,30.3784344 50.5786268,29.9895499 Z M21.2203014,17.7525122 L21.0997183,17.7535515 C19.6952113,17.7761659 18.4090141,18.3119389 17.0556338,18.5951483 C16.9434507,18.6188196 16.8308451,18.6067726 16.7292254,18.569575 C15.0809155,19.6696532 13.9447183,21.399344 13.790493,23.6753753 C13.6835915,25.2518372 14.0683099,26.969481 15.0040141,28.2631562 C16.0690383,29.735599 17.7846971,29.962811 19.4742802,30.0067251 L19.6459859,30.0106004 C22.8399296,30.0729487 26.3537324,29.8842129 27.4922535,26.3119703 C28.3347887,23.6681894 27.435,20.4586239 25.0880282,18.8749761 C23.948173,18.1058784 22.5868205,17.7512289 21.2203014,17.7525122 Z M46.9525352,19.6485182 L46.8588153,19.5390983 C45.6061029,18.1012424 43.6198592,16.7916415 41.6615493,17.5157824 L41.6672613,17.7579429 C41.6679577,17.7983342 41.6683803,17.8387256 41.6683099,17.8790935 C41.6623944,20.6558137 40.586831,23.2471796 37.9432394,24.061935 C38.6524648,25.0740916 39.2222535,26.197207 39.6785915,27.3628039 C39.8395775,27.2575515 40.0354225,27.1907648 40.2627465,27.1677276 C41.1933803,27.0734654 41.7266197,27.9478215 42.533662,28.273935 C43.2891549,28.5795476 44.1460563,28.6583812 44.9435915,28.5005025 C46.6882394,28.1553675 47.9123239,26.6503421 48.3411972,24.9802521 C48.8260563,23.0922599 48.185493,21.1129644 46.9525352,19.6485182 Z M20.3946127,21.9854395 C20.976413,21.0022925 22.411623,21.1445815 22.9869484,22.0113412 L23.0145423,22.0545511 L23.020669,22.0465198 C23.9789789,23.2888368 23.5158803,25.2510129 22.1244718,25.9495256 C21.0083451,26.5093926 19.588838,26.3625041 18.8468662,25.2725706 C18.6805986,25.0282497 18.5739085,24.7408133 18.5348239,24.449784 C18.5082042,24.2517487 18.5234155,24.0539249 18.5677817,23.8571577 L18.5565581,23.9032057 C18.5785563,23.8038975 18.6134155,23.648238 18.6225,23.611146 C18.7205282,23.2104258 18.955669,22.7805393 19.2499648,22.4903554 C19.5531338,22.1915061 19.9741901,22.0097448 20.3946127,21.9854395 Z M44.3033662,20.9641949 C44.8186479,20.9641949 45.275831,21.1797722 45.6480845,21.5215256 C46.1775211,22.0078427 46.2512535,22.7078348 46.1369577,23.3721088 C46.1018873,23.5747937 46.0537183,23.7707155 46.0032254,23.9702301 L45.9597512,24.1506763 C45.9521455,24.1806411 45.944,24.2103945 45.9347746,24.2397018 C45.9030845,24.3633417 45.8525915,24.4768368 45.7925915,24.5854708 C45.5722394,25.406144 44.6800563,25.8136274 43.893507,25.6346137 C43.5233662,25.5502849 43.1542817,25.2429816 42.965831,24.9208838 C42.9037183,24.8147859 42.8601972,24.7091108 42.8293521,24.6030129 L42.6761831,24.2397018 L42.6761831,24.2397018 C42.6474507,24.1526254 42.629493,24.0592086 42.6064648,23.9702301 C42.5551268,23.7709268 42.5056901,23.5745824 42.4699859,23.3721088 C42.348507,22.6856431 42.4452676,22.0351068 42.9588592,21.5215256 C43.3036479,21.1763906 43.8159718,20.9641949 44.3033662,20.9641949 Z M32.9535211,13.8451773 C33.8478169,13.7251303 34.7585915,14.1419131 35.2210563,14.9321519 C35.6228873,15.6190403 35.6211972,16.5432751 35.2210563,17.2301636 L35.1872535,17.2882849 L35.1872535,17.2882849 C34.4501408,18.5534278 32.7310563,18.7157448 31.6969014,17.7382497 L31.646831,17.6909072 L31.646831,17.6909072 C30.9817606,17.0625628 30.8319718,16.0203945 31.176338,15.2041597 C31.4911268,14.4576705 32.1511268,13.9531773 32.9535211,13.8451773 Z" id="ðŸ–-Ink"></path>
                    </g>
                    <g id="accessories/Glasses-2" transform="translate(88.521127, 88.978474)" fill="#000000">
                        <path d="M78.6572746,20.1750129 C76.0922746,22.8264023 71.8103028,23.5872634 68.3976972,22.1652986 C59.635162,18.5028094 63.9241056,7.07932603 70.6819225,4.01157652 C71.5261479,3.80107162 72.6536831,3.30165088 73.6819225,3.18836712 C73.7748803,3.14271546 73.9772746,3.27480939 74.2225563,3.14990137 C81.6741761,3.98219883 83.3710775,15.5540501 78.6572746,20.1750129 M50.3943169,20.8536587 C47.5174859,24.6708564 42.1690352,25.8485002 37.7991761,24.0740031 C29.1663592,20.6729542 32.2282606,10.543146 38.134669,6.57187397 C50.6115,1.88179961 55.7636831,13.8154826 50.3943169,20.8536587 M31.6802324,12.3958427 C31.6722042,12.3920384 31.6641761,12.3901362 31.6559366,12.3863319 C31.7015704,12.3662536 31.7472042,12.3461753 31.7926268,12.3256744 C31.777838,12.3643515 31.7617817,12.4026059 31.7474155,12.441283 C31.7250211,12.4258544 31.7053732,12.4078896 31.6802324,12.3958427 M84.5964296,8.26965088 C83.8920634,8.27113033 82.8745986,8.38695029 82.2915,8.87580352 C80.8536127,4.02468023 75.5461479,-0.465034051 70.9303732,2.808782 C67.2955141,3.97818317 64.5982606,6.57166262 63.0653028,10.0196313 C60.3012887,8.37490333 55.9550915,9.07722035 53.5582606,11.2522262 C51.9885423,6.06336517 48.1253028,4.24638669 43.5270634,3.97818317 C38.5081901,3.15581918 33.5057958,8.0318818 31.9449507,11.943553 C30.6471338,11.7958192 28.7079085,11.3826294 27.486993,12.1838583 C19.5629789,10.1050168 5.70910563,8.95886419 4.09819014,10.1138935 C2.95016197,10.5545589 2.32016197,13.2653378 3.9236831,13.4115922 C5.32100704,13.2131342 3.76058451,11.4253221 5.16910563,11.2302458 C12.6739648,10.7648524 19.9595282,12.2768524 27.3849507,12.911326 C28.0479085,13.8034356 30.1899507,14.1018622 31.3326972,13.7434121 C29.5329085,20.3789659 33.4181197,24.8934082 39.2395986,26.2456274 C48.2537535,28.3170716 56.0962183,20.2502536 53.7391056,11.859647 C56.4697394,10.5006646 59.6106549,10.5589973 62.5853028,11.2748407 C57.6145986,29.5756626 87.0773451,28.7545667 82.4757254,9.50287984 C85.5380493,11.0267155 86.2031197,8.57716556 84.5964296,8.26965088" id="ðŸ–-Ink"></path>
                    </g>
                </g>
            </g>
        </g>
    </g>
</svg>