<?xml version="1.0" encoding="UTF-8"?>
<svg width="240px" height="324px" viewBox="0 0 240 324" version="1.1" xmlns="http://www.w3.org/2000/svg" xmlns:xlink="http://www.w3.org/1999/xlink">
    <!-- Generator: Sketch 62 (91390) - https://sketch.com -->
    <title>peep-87</title>
    <desc>Created with Sketch.</desc>
    <g id="Introduction" stroke="none" stroke-width="1" fill="none" fill-rule="evenodd">
        <g id="variations" transform="translate(-3006.000000, -758.000000)">
            <g id="images" transform="translate(126.000000, 110.000000)">
                <g id="a-person/bust" transform="translate(2880.000000, 648.000000)">
                    <g id="body/Dress" transform="translate(31.056338, 135.052838)" fill-rule="evenodd">
                        <path d="M161.739486,136.423804 C161.226951,131.66187 160.911106,126.866543 160.729838,122.080516 C160.548782,117.300195 160.785613,112.461119 160.889556,107.678895 C161.101458,97.9506528 161.445824,88.199373 160.671528,78.4859249 C159.939908,69.3059249 158.26012,60.189964 155.609345,51.3694708 C154.3185,47.0737761 152.958148,42.6051969 150.83512,38.6360384 C148.700261,34.6453221 145.318711,31.9878035 141.604204,29.5507233 C137.649486,26.9559757 133.726458,24.3121949 129.787162,21.6933534 C126.480401,19.495099 120.529647,16.9365879 117.816548,13.997762 C114.961689,10.9054959 114.425036,3.2404227 112.523839,-0.422700587 C110.67229,-3.99071624 105.431162,-6.31822011 101.395648,-6.31822011 C94.7158947,-6.31822011 89.6547676,-6.65971115 84.1622324,-0.478349119 C81.4218803,2.60588571 83.6022444,5.72378026 80.72985,8.68395248 C78.089005,11.4055102 71.335331,14.202465 67.9315986,15.7816744 C63.8549789,17.6730481 59.6754718,19.3429268 55.435331,20.8304102 C51.1100493,22.3479053 46.6757535,23.4788407 42.3261761,24.9109503 C38.1570211,26.2836705 32.7130211,31.9417203 29.4764014,34.9354972 C26.4673169,37.7189806 25.7205423,37.4072477 23.4329366,40.7886411 C18.4123732,48.2093613 13.3863169,55.7152556 9.38828873,63.749737 C7.39688028,67.7518661 5.46864085,71.9617526 4.74610563,76.4064493 C3.97540141,81.1470364 4.73955634,85.7282654 5.98941549,90.3181597 C7.26166901,94.9892125 11.3017365,99.4365088 12.6179337,104.095726 C13.224483,106.242834 11.1424437,108.586011 12.1001197,110.609479 C12.5784296,111.619944 13.1807535,112.519663 13.8665282,113.400148 C14.3949085,114.078582 16.4554742,113.928237 16.7220939,114.758632 C16.9914601,115.59727 15.5006831,117.337604 15.4785,118.20562 C15.4470211,119.447725 15.3975845,120.689831 15.3568099,121.931937 L15.1159648,129.275303 C14.9577254,134.100852 14.7994859,138.926614 14.6412465,143.752164 C14.5894859,145.327357 14.5140634,146.86641 14.8915986,148.361079 C14.755331,148.234692 14.6258239,148.097103 14.5075141,147.942606 C14.1612465,147.490316 13.4268803,147.873706 13.7207535,148.402715 C14.2113169,149.285526 14.9167394,149.906895 15.7455423,150.353267 C16.7087113,151.773753 162.572937,154.946543 163.290613,150.79351 C163.693289,148.463373 162.960401,145.968805 162.667373,143.653674 C162.362303,141.242379 161.999768,138.84144 161.739486,136.423804 Z" id="ðŸŽ¨-Background" fill="#FFFFFF"></path>
                        <path d="M13.5693592,76.4147554 C13.9261901,75.3922427 15.5584437,75.8347082 15.1990775,76.8640861 C13.3517535,82.1575656 14.6622465,87.9179178 16.6593592,92.971092 C17.0601338,93.9849393 15.4249225,94.4205323 15.0296408,93.4204227 C12.9287958,88.1049628 11.6290775,81.9739022 13.5693592,76.4147554 M25.9557676,106.650951 C31.1656268,107.384125 36.3797113,107.836415 41.6254859,108.202051 C41.859993,108.218959 42.0628099,108.183241 42.238162,108.106943 C42.0818239,110.509996 41.9550634,112.915162 41.8557676,115.320329 C40.4254859,115.280384 38.9656268,115.37528 37.5480211,115.337237 C35.6952042,115.286513 33.8445,115.193519 31.9959085,115.052125 C28.4170352,114.781386 24.8445,114.350231 21.3057676,113.754223 C19.9832324,113.532305 18.3036549,113.397041 16.7973169,112.957432 C15.3733732,112.541284 14.1057676,111.85207 13.4402746,110.55438 C12.8740775,109.455358 12.7705563,108.109268 12.7705563,106.894004 C12.7705563,106.056845 12.9142183,105.207217 13.000838,104.36393 C13.1085845,104.288055 13.2057676,104.196963 13.2839366,104.095726 C14.8557676,104.592188 16.4867535,104.941127 18.0839366,105.279076 C20.6846408,105.832814 23.3233732,106.281088 25.9557676,106.650951 M23.0174577,87.1088689 C23.0461901,88.7242192 23.4930211,90.1916243 24.3623873,91.5516634 C24.9505563,92.4720939 23.4871056,93.3189746 22.9029507,92.4050959 C21.8795704,90.8036947 21.3611197,89.0061605 21.3273169,87.1088689 C21.3078803,86.0185127 22.9980211,86.0221057 23.0174577,87.1088689 M156.565627,104.731679 C157.271049,104.771202 157.980908,104.795295 158.688444,104.832916 C159.312528,105.366787 160.176613,105.640485 160.965697,105.47056 C160.992951,105.538826 161.017669,105.615546 161.040275,105.70389 C161.179711,106.247061 161.24943,106.830387 161.329711,107.384125 C161.409993,107.929409 161.471261,108.479131 161.513514,109.028642 C161.534641,109.305299 161.667739,109.930896 161.498725,110.172047 C161.346613,110.389526 161.010697,110.370505 160.778303,110.39798 C160.152951,110.465613 159.519148,110.497526 158.88957,110.550364 C157.700134,110.653714 156.510697,110.757276 155.323373,110.860838 C154.159289,110.962497 152.88112,110.930795 151.742387,111.237252 C151.548021,108.952344 151.370556,106.667859 151.205768,104.380838 C152.969852,104.64101 154.814218,104.634458 156.565627,104.731679 M8.6529507,100.94238 C9.36280986,102.313832 10.0177394,103.662247 11.3761901,104.486513 C11.5536549,104.592188 11.7522465,104.649252 11.9550634,104.664047 C11.8029507,105.317119 11.7078803,105.984986 11.6233732,106.602129 C11.4374577,107.961323 11.3973169,109.366591 11.7374577,110.706552 C12.0691479,112.010583 12.6184437,113.175335 13.6959085,114.010168 C14.1966127,114.399053 14.7437958,114.694732 15.3184437,114.929331 C15.2212606,115.201973 15.1642183,115.472712 15.1937958,115.770716 C15.0564718,116.46162 14.9656268,117.165628 14.866331,117.839624 C14.6487254,119.335984 14.4311197,120.834458 14.259993,122.339272 C13.9177394,125.331992 13.6494296,128.324712 13.4233732,131.328 C13.1973169,134.322834 13.0346408,137.322106 12.8994296,140.32328 C12.8297113,141.857683 12.7684437,143.391875 12.7114014,144.928391 C12.6543592,146.507389 12.3987254,148.121894 13.0959085,149.586763 C13.6578803,150.770325 15.5571761,150.702481 16.1402746,149.586763 C16.8797113,148.168391 16.6621056,146.48393 16.6811197,144.928391 C16.7001338,143.463734 16.7254859,141.997174 16.7571761,140.532305 C16.8205563,137.533456 16.9135141,134.536297 16.9874577,131.537448 C17.0592887,128.610247 17.1480211,125.684947 17.2071761,122.757746 C17.2367535,121.225456 17.2388662,119.693166 17.2473169,118.160877 C17.2515423,117.311249 17.2874577,116.404767 17.2240775,115.518998 C17.7522465,115.643695 18.2846408,115.74937 18.8106972,115.857159 C22.8268944,116.681425 26.8853451,117.281659 30.9691479,117.653636 C33.0205563,117.839624 35.0783028,117.970661 37.1360493,118.044845 C38.6487254,118.099585 40.216331,118.20526 41.7522465,118.148407 C41.6318239,121.817237 41.5768944,125.488391 41.5832324,129.159757 C41.5874577,131.807765 41.6233732,134.455984 41.6888662,137.104204 C41.7247817,138.497002 41.7543592,139.8898 41.7966127,141.282599 C41.8156268,141.908407 41.8156268,142.540133 41.8578803,143.163616 C41.8705563,143.358059 41.8980211,143.546372 41.9339366,143.73236 C41.7945,144.127585 41.6783028,144.518372 41.5832324,144.884219 C41.1184437,146.65935 41.1184437,148.365159 41.3254859,150.174106 C41.5029507,151.708509 42.7937958,153.130896 44.4987254,152.592164 C44.7754859,152.505299 45.0522465,152.414419 45.3268944,152.321425 C47.8367535,152.606748 50.3614014,152.672477 52.9071761,152.720877 C56.6275986,152.792947 60.3501338,152.815984 64.072669,152.835006 C71.3740775,152.87326 78.6775986,152.892282 85.9811197,152.913205 C100.65788,152.955476 115.334641,152.995632 130.011401,153.037902 C134.084641,153.050795 138.15788,153.061151 142.23112,153.074043 C144.33957,153.080172 146.443796,153.082286 148.550134,153.16281 C149.532528,153.200853 150.517035,153.253691 151.49943,153.268485 C152.638162,153.287507 153.645908,152.959703 154.733937,152.66191 C155.348725,152.490505 155.591683,151.873362 155.460697,151.351538 C156.445204,151.585926 157.638866,151.08735 157.974782,149.977761 C158.219852,149.172305 158.129007,148.299429 157.763514,147.553362 L157.763514,147.551249 C157.05788,143.093871 156.162106,138.657628 155.458585,134.198137 C154.687458,129.313832 153.945908,124.41917 153.293092,119.515843 C152.802951,115.812775 152.39943,118.437746 152.050838,114.71798 C153.569852,114.836337 155.287458,114.373691 156.791683,114.176924 C157.871261,114.037644 158.959289,113.925417 160.040979,113.777472 C159.960697,114.868039 159.983937,115.979742 159.954359,117.025926 C159.897317,119.103499 159.922669,121.172618 159.975486,123.250403 C160.076894,127.259507 160.302951,124.9262 160.664218,128.918607 C161.029711,132.940603 161.477599,136.947804 162.020556,140.95099 C162.29943,143.011656 162.597317,145.069996 162.912106,147.126434 C163.05788,148.085965 163.20788,149.043593 163.362106,150.003123 C163.545908,151.133636 163.605063,152.205393 164.452246,153.05481 C165.096613,153.699429 166.41281,153.644477 166.83957,152.746239 C167.380415,151.611288 167.135345,150.639076 166.934641,149.447272 C166.771965,148.489644 166.615627,147.532227 166.461401,146.575022 C166.131824,144.522599 165.819148,142.468274 165.525486,140.412047 C164.959289,136.449229 164.424782,132.479859 163.947317,128.506685 C163.465627,124.501386 162.967035,126.841033 162.493796,122.836157 C162.255063,120.815436 162.016331,118.799155 161.737458,116.785198 C161.595908,115.74937 161.507176,114.646333 161.321261,113.578802 C161.380415,113.57056 161.43957,113.559781 161.498725,113.549213 C162.783232,113.314614 163.879711,112.589683 164.202951,111.26663 C164.511401,110.000642 164.143796,108.544438 163.883937,107.30191 C163.662106,106.243468 163.461613,104.892305 162.780486,103.985401 C165.180486,100.927162 166.741542,97.0788963 167.737246,93.3792094 C168.821894,89.3485479 169.275908,85.1411977 169.372035,80.9759061 C169.483585,76.1503562 169.119993,71.3527045 168.293303,66.6345205 C168.273866,65.6346223 168.22781,64.6351468 168.153655,63.636728 C167.426894,53.8387397 164.37619,42.2419491 154.704359,37.6638904 C154.666331,37.6450802 154.62619,37.6279609 154.586049,37.6110528 C153.827599,36.7043601 152.88112,35.8885479 152.116331,35.1257847 C150.762106,33.7729315 149.346613,32.4794677 147.846613,31.2874521 C144.87619,28.9268806 141.618444,27.041636 138.231824,25.3442818 C134.807176,23.6260039 131.331824,22.0136125 127.985345,20.1387241 C125.069852,18.5028728 122.445908,16.5330881 119.955063,14.309683 C117.155768,11.809409 115.163514,8.43837182 114.381824,4.75876321 C114.341683,4.56664579 114.056472,4.61948337 114.052246,4.80314677 C113.847317,11.5473346 118.398021,17.5074129 123.635345,21.2779022 C129.897317,25.7819883 137.458585,27.9143014 143.809289,32.2810098 C145.387458,33.3652368 146.864218,34.588955 148.269148,35.8885479 C146.116331,35.6687436 143.925486,35.8082348 141.90788,36.4042427 C141.113514,36.3556321 140.314923,36.3410489 139.518444,36.3027945 C137.697317,36.2119139 135.874077,36.1275851 134.050838,36.0470607 C130.334641,35.8824188 126.616331,35.7323601 122.898021,35.6013229 C115.602951,35.3432642 108.305768,35.1488219 101.008585,35.0201096 C86.3445,34.7599374 71.6614014,34.7092133 56.9994296,35.1342387 C53.0233732,35.2483679 32.116331,34.4558043 30.1811197,34.6796243 C33.0268944,32.2152798 36.1494296,30.2034364 39.5825282,28.5483523 C43.8775986,26.4834599 48.316331,25.105456 52.9029507,23.8458082 C62.3487254,21.2525401 72.1578803,18.7522661 79.7170352,12.1644775 C81.5952042,10.5265127 83.2642183,8.64359295 84.6311197,6.55756556 C85.9367535,4.56664579 87.388162,2.0175499 87.4240775,-0.410864971 C87.4494296,-2.13527202 85.0494296,-2.76319374 84.1959085,-1.28585519 C83.6656268,-0.370708415 83.4036549,0.633205479 82.9705563,1.59273581 C82.5395704,2.54381213 82.0283028,3.46107241 81.459993,4.33838748 C80.3423873,6.06300587 78.9564718,7.60142466 77.4480211,8.98999609 C74.2325282,11.9531272 70.3367535,14.1236947 66.3057676,15.7658865 C57.1536549,19.4919922 47.1437958,21.0644384 38.4712606,25.9764305 C34.6768944,28.1256517 31.0452042,31.0911076 28.7656268,34.8740665 C28.3980211,34.9313425 28.0325282,34.9987632 27.6670352,35.0748493 C27.9395704,34.7303483 28.2142183,34.3860587 28.4909789,34.0434599 C28.672669,33.8194286 28.3916831,33.5237495 28.1698521,33.7222074 C23.8578803,37.5603288 19.8860493,41.704908 16.2860493,46.2235773 C12.8423873,50.5478043 9.63111972,55.0793659 7.35788028,60.143319 C3.27196479,69.2398356 2.37196479,79.6443992 4.48252817,89.3709511 C5.05717606,92.0210724 5.86844366,94.616454 6.90154225,97.125182 C7.43393662,98.4207593 8.01069718,99.6973151 8.6529507,100.94238" id="ðŸ–-Ink" fill="#000000"></path>
                    </g>
                    <g id="head/Medium-Bangs-3" transform="translate(78.591549, 38.043053)" fill-rule="evenodd">
                        <path d="M54.2062587,8.23792153 C66.2021695,8.23792153 81.2265966,21.9272691 85.6238351,27.7526268 C89.3208234,32.6503094 88.7978181,57.8814922 88.7978181,72.848684 C88.7978181,75.9789906 87.3833653,81.9034493 86.8698864,84.8977081 C84.9882891,95.8698987 76.7905704,105.071902 60.5655366,105.071902 C47.3544685,105.071902 37.1877755,100.885755 27.3563474,90.179007 C25.1134108,87.7363755 14.1595085,96.4808926 11.9193032,93.3317782 C6.06789915,93.3317782 1.17515391,38.6390076 12.6636029,22.2343594 C24.1520519,5.82971124 42.2103478,8.23792153 54.2062587,8.23792153 Z" id="ðŸŽ¨-Background" fill="#FFFFFF"></path>
                        <path d="M18.1514155,12.0902724 C25.0831056,5.78146614 34.3176127,2.74647593 43.6345141,2.97050724 C48.4598662,3.0867499 53.2683169,4.00612368 57.8253592,5.58068337 C60.1049366,6.37113346 62.3126831,7.4025229 64.4232465,8.56917652 C65.1838099,8.98862556 65.8849683,9.48010879 66.5599553,10.002068 L66.7281761,10.1331687 L66.7302887,10.1331687 C68.5408521,10.7841276 70.1570493,11.9528947 71.6232465,13.3203311 C74.5619789,13.0857323 77.5239507,13.3499202 80.3655,14.2566129 C84.3204296,15.5204877 87.9816972,17.8347734 90.5528239,21.1212705 C93.5477353,24.9473925 94.5433874,29.5884231 94.188126,34.379394 L94.1225292,35.1932853 C93.7712165,39.4254951 93.1419085,44.8691178 89.6697254,47.6499593 C89.4056408,47.8613096 89.1140915,48.0219358 88.8119789,48.1191569 C91.0493028,51.9530513 92.8852183,56.2096462 93.9838099,60.5085112 C98.1774718,76.9283155 94.9535282,94.0519162 89.9105704,109.877826 C89.4964859,111.181858 87.5253592,112.048394 86.521838,110.773951 C84.7302887,108.495595 82.1274718,106.758296 79.1993028,106.432816 C77.3929648,106.232034 75.5950775,106.595556 73.8880352,105.775517 C73.2183169,105.452151 72.571838,104.923775 72.1070493,104.28127 C69.2253592,105.373951 66.121838,105.889646 63.043669,105.762836 C57.9922606,105.555713 52.5922606,103.805732 49.1169085,99.967611 C48.559162,99.3515249 48.4178239,98.6597753 48.5462746,98.036292 C48.9821197,97.8807382 49.4295845,97.7649182 49.8905704,97.692425 C54.2976127,100.290766 59.1555,102.027008 64.3763451,102.136065 C67.3930352,102.199047 70.3355704,101.776981 72.7816268,99.8925816 C73.3108521,99.4846755 73.7976127,99.03302 74.2476127,98.5477597 C79.3617676,95.2566129 82.9674718,89.666609 84.6816972,83.6788438 C86.2788803,78.0949691 86.0824014,72.2807225 85.5331056,66.5531295 L85.2433139,63.5306972 C84.8208915,59.0946479 84.4289898,54.6453252 84.319162,50.1903898 L84.352331,50.188699 L84.352331,50.188699 C85.432331,50.1189534 85.4401479,48.427517 84.352331,48.4978967 C81.5384577,48.6800806 78.7459225,48.2182802 75.9407113,48.4194857 C75.9172606,47.0928399 75.8217676,45.7721119 75.4319789,44.4925973 C75.2095141,43.7615366 73.9370493,43.6173957 73.8022606,44.4925973 C73.621838,45.6634779 73.5559225,46.8278067 73.5362746,48.003971 C69.3381761,47.9481746 65.1440915,47.5947969 60.9453592,47.7399945 C60.1708521,46.9136149 59.9243028,45.4483233 59.5619789,44.4289808 C59.509162,44.2789221 59.4563451,44.1309769 59.4014155,43.9809182 C59.0830352,45.4375444 58.6317676,46.8622568 58.0381056,48.2569573 L57.0083737,48.2604481 C51.1657999,48.2878641 45.204338,48.4625659 39.499162,49.6763859 C39.1026127,49.3718301 38.8666268,48.8404955 38.8028239,48.3579828 C38.3889955,45.2182141 37.7983619,42.1619141 36.7515986,39.1698117 L36.6018465,38.7476651 C36.5896099,38.7126486 36.5766972,38.6754341 36.5631761,38.636292 C35.791838,39.8817793 34.8715563,41.0427264 33.8678239,42.1237832 C33.2762746,42.7610043 32.655993,43.3703272 32.0194437,43.9623194 C31.4010634,44.6492078 30.7619789,45.3257401 30.1425423,46.0147421 C30.166838,46.1400728 30.1879648,46.2673057 30.2050775,46.3968634 C30.3945845,47.8266481 30.4142324,49.2767225 30.2754296,50.7120023 C30.0244437,53.3067499 29.2921901,55.8070239 28.1158521,58.1200415 L28.0786348,58.3516391 C27.900008,59.4355975 27.6458521,60.5558254 27.052331,61.3720885 C27.7930352,62.2022724 28.363669,63.193928 28.6945141,64.2956971 C28.9890211,65.2765738 27.6324718,66.1266247 26.9289507,65.3239162 C26.3701479,64.6862724 25.7492324,64.1585307 25.0672606,63.7375209 C25.024162,63.796065 24.9464155,63.8248086 24.859162,63.7759867 C22.9598662,62.7213487 19.7338099,63.0404877 17.8366268,64.0338341 C15.4767676,65.2681198 14.5556408,67.8022098 14.8176127,70.3701159 C15.0690211,72.8238928 16.1422606,75.6919162 18.2232465,76.9494505 C19.1781761,77.5264368 19.921838,77.5750474 20.9359225,77.2981785 C21.2601627,77.2100788 21.6621447,76.9398783 21.8346936,76.8056543 L22.0045066,76.6694912 C22.6693028,76.1438583 23.2884577,75.7839241 24.0732465,75.7701159 C24.8758873,75.5197098 25.6825793,75.8670792 25.9895475,76.7090488 L26.0084577,76.7634622 C26.1521197,77.1925033 26.4140915,77.7314466 26.3570493,78.3866325 C26.2978944,79.0883155 25.9767676,79.7265933 25.4971901,80.2401746 C25.4147958,80.3289417 25.3260634,80.4177088 25.2352183,80.5001354 C33.4957817,89.4465933 34.5563451,103.387259 30.3204296,114.563462 C30.1366268,115.053795 29.9401479,115.537787 29.7352183,116.017552 C29.0274718,117.661858 26.3021197,117.152503 25.9556408,115.522993 C25.8521197,115.034773 25.7380352,114.548668 25.6133873,114.066789 C25.3842793,113.1763 25.1217859,112.29416 24.8259069,111.424823 L24.7133873,111.099431 C24.4619789,110.38084 24.2274718,109.655908 23.9739507,108.937317 L23.9485986,108.855155 C23.9390915,108.82266 23.9285282,108.785145 23.9169085,108.742875 L23.4880352,109.679157 L23.4880352,109.679157 L22.1845141,112.50491 C21.5745442,113.823546 19.636479,113.106901 19.5644123,111.836192 L19.5626831,111.79266 C19.5563451,111.558061 19.5478944,111.325576 19.5331056,111.095204 C19.4401479,109.368472 19.1422606,107.690351 18.6690211,106.048159 L18.4982855,106.260418 C15.9559009,109.404836 12.9721089,112.352134 8.87888028,113.07767 C7.85211972,113.259431 6.69014789,112.185771 7.39578169,111.148041 C7.68733099,110.719 7.9683169,110.279392 8.23451408,109.833443 C8.00423239,109.725654 7.78662676,109.613638 7.58592254,109.499509 C6.03310563,108.626632 4.74014789,107.383893 3.6711338,105.974186 C1.40423239,102.985693 0.592964789,99.2236579 0.394373239,95.5419358 C0.183105634,91.6509769 0.525359155,87.5486677 1.58803521,83.7950865 C2.04859859,82.1719162 2.67183803,80.6142646 3.39226056,79.10311 C3.34155634,78.9678458 3.29296479,78.8325816 3.24437324,78.6973174 C2.46690845,76.5288634 1.82888028,74.3117988 1.29859859,72.0693722 C0.229584507,67.5422489 -0.34506338,62.8714074 -0.41478169,58.2195875 C-0.541542254,49.8860454 0.895077465,41.4193526 3.92254225,33.6480023 C7.04930282,25.6335992 11.7521197,17.912973 18.1514155,12.0902724 Z M14.2577535,84.9511726 C13.6836027,84.0467923 12.2470099,84.8617789 12.780125,85.7724653 L12.800007,85.8050278 C13.7105704,87.2400963 14.137331,88.8717205 14.6612746,90.4716423 C14.9971901,91.5009182 16.6302887,91.0613096 16.2901479,90.0214661 L16.1775457,89.6742849 C15.6561761,88.0518411 15.1805704,86.4030082 14.2577535,84.9511726 Z M19.2584577,67.6880595 L19.6398984,67.5033977 C20.8431242,66.9289899 21.8973894,66.5377157 23.3190211,67.0392141 C25.2225423,67.7091945 27.2612746,69.841719 25.9746549,71.9108384 C25.5014155,72.6738129 24.6605704,72.9781573 23.7943732,72.7985096 C22.3340915,72.4955486 21.9572544,71.1800261 21.2162081,70.100132 L21.0886881,69.9172774 C20.6368984,69.2638399 20.065564,68.3605377 19.3133873,68.1044196 C19.1422606,68.0452415 19.0704296,67.7789401 19.2584577,67.6880595 Z M20.3313895,23.7570499 L20.4542324,23.6469065 C21.271838,22.9240885 20.071838,21.7320728 19.2584577,22.4506638 C15.5359225,25.7413879 14.2429648,30.8919945 12.3119789,35.2817401 C11.8788803,36.268746 13.3345141,37.1310552 13.771838,36.1355953 C15.6138001,31.9467297 16.8364459,26.935916 20.3313895,23.7570499 L20.3313895,23.7570499 Z M65.0655,22.3175131 C64.0928545,21.8790249 63.2418714,23.2950676 64.1769681,23.7613147 L64.2119789,23.7779436 C67.4993028,25.2637362 68.8978944,28.6284329 70.237331,31.7521902 C70.6640915,32.7497636 72.1197254,31.8895679 71.6971901,30.9004485 L71.4554824,30.3399536 C70.057865,27.1207863 68.4277659,23.8395139 65.0655,22.3175131 Z M70.2183169,20.2843233 C69.187331,19.9271413 68.7457817,21.5587656 69.7683169,21.9159476 C72.5549366,22.8860454 74.4669085,24.9784133 76.0788803,27.3708986 C76.6831056,28.2670239 78.1471901,27.4216227 77.5366268,26.5170434 C75.6647958,23.7399006 73.4422606,21.4087068 70.2183169,20.2843233 Z" id="ðŸ–-Ink" fill="#000000"></path>
                    </g>
                    <g id="face/Smiling" transform="translate(112.183099, 77.354207)" fill="#000000" fill-rule="evenodd">
                        <path d="M30.968993,50.9198978 C29.548794,50.3403012 28.2816173,49.3734958 27.3551889,48.1384646 C27.0331038,47.7091169 26.9495926,47.2557326 27.017159,46.8410547 C27.0931327,46.3747786 27.3688808,45.9521824 27.7449394,45.6687178 C28.1221628,45.3843752 28.5940214,45.2441445 29.0502103,45.3156301 C29.4466117,45.3777469 29.8412104,45.5948709 30.1535058,46.0451781 L30.2187521,46.1352289 C30.7695298,46.8806513 31.4872438,47.4922614 32.3050288,47.8864795 C33.0932406,48.2664417 33.9747757,48.4437847 34.8870208,48.3406561 C36.6244504,48.1443157 37.8219743,47.2043274 39.0948115,45.9278391 C39.2525834,45.7666792 39.4104563,45.6004672 39.5690946,45.4315797 C39.6692778,45.278484 39.8083069,45.1800892 39.962667,45.1284632 C40.1340565,45.0711416 40.327938,45.0743848 40.5055187,45.1363808 C40.6767961,45.1961763 40.8299095,45.309486 40.9325762,45.4602937 C41.0301525,45.6036243 41.0854754,45.7806897 41.0675245,45.9843589 C40.9510195,47.3072301 40.2596776,48.4878363 39.2776553,49.4148615 C38.1869942,50.4444414 36.7412431,51.1567117 35.3801317,51.4065272 C33.8805866,51.6817086 32.3525901,51.4845569 30.968993,50.9198978 L30.968993,50.9198978 Z M36.0875289,30.5120405 C37.6828906,31.482148 40.1137318,33.7442494 38.3974899,36.149264 C36.3773089,38.2698449 33.4687045,35.8384541 32.0353946,34.7388307 C30.7063626,33.8866164 29.2131206,36.0784478 30.4461973,37.0735516 C40.8033244,44.7445605 45.006466,30.7657101 36.8944406,29.3714319 C36.0012775,29.2177885 35.6695544,30.2119271 36.0875289,30.5120405 Z M17.5274577,21.5886716 C17.7037243,19.3998697 21.0359789,18.9028321 21.3674577,21.0687499 C21.6642887,23.0089456 21.3148521,24.7912626 20.4412606,26.5380728 C19.6065423,28.2068947 17.5085456,27.4283107 17.3498837,25.9087021 C17.1372039,23.8717299 17.4178099,22.9502317 17.5274577,21.5886716 Z M42.8930282,20.6196517 C43.3576056,20.0109628 44.0283803,19.5954481 44.8320423,19.8302583 C47.3429577,20.5642779 46.6028873,24.1303914 45.7210563,25.8662114 C45.2419014,26.8088337 43.6930986,27.0478708 42.993169,26.2178982 C41.8523239,24.864411 41.3059859,22.1614521 42.756338,20.8282544 C42.7956338,20.7593542 42.8393662,20.68982 42.8930282,20.6196517 Z M20.4058944,12.0111429 L20.802522,11.9416942 C22.0295218,11.7294045 23.5551549,11.5254176 24.4231479,12.5122544 C24.8835,13.0355577 25.0419507,14.0081918 24.4231479,14.509092 C23.3346972,15.3904227 22.1313169,15.0488806 20.8269507,15.1234873 C19.7520211,15.1852016 18.7189225,15.3631585 17.6835,15.6592603 C15.4119507,16.3087397 13.5610352,17.4944149 11.6209648,18.7963327 C11.3663873,18.9671037 11.1065282,18.6414129 11.228007,18.4032211 C12.3479366,16.208771 14.5182887,14.4061644 16.6922324,13.3073542 C17.8525141,12.7208571 19.1222324,12.2343288 20.4058944,12.0111429 Z M40.6041287,11.0281289 L40.9077055,11.0902829 C44.2113469,11.7811043 48.5035506,13.1610768 50.0679842,16.4073021 C50.1275964,16.8663298 50.0646105,16.9647086 50.0133917,17.0289838 L49.9963385,17.0503723 C49.9541341,17.1052595 49.9204583,17.1809212 49.7215736,17.2433957 C49.6663832,17.2302408 49.6106433,17.216308 49.5543131,17.2015401 C48.8372041,17.0135386 48.2698321,16.7545401 47.720556,16.4857982 L47.1250012,16.192275 C46.4340388,15.8533498 45.7369757,15.5267598 44.9982488,15.2856588 C43.4217423,14.7712438 41.8001698,14.4088706 40.1534741,14.2153715 C39.7965654,14.1734678 39.4528848,14.0529641 39.1817455,13.8464404 C38.92438,13.6504079 38.7277692,13.3789964 38.6381257,13.0182314 C38.5219478,12.5513438 38.5553348,12.1978716 38.8057421,11.7766707 C38.9940329,11.4603578 39.263447,11.2411116 39.5728025,11.115213 C39.888177,10.9868648 40.2472278,10.9566068 40.6041287,11.0281289 Z" id="ðŸ–-Ink"></path>
                    </g>
                    <g id="facial-hair/*-None" transform="translate(104.577451, 109.479380)"></g>
                    <g id="accessories/Glasses-3" transform="translate(88.521127, 88.978474)" fill="#000000" fill-rule="evenodd">
                        <path d="M77.5634366,20.7796016 C76.1409718,22.691265 73.5039296,23.3001652 71.0716056,23.0898716 C65.8256197,22.5847444 64.1745634,16.6244548 64.0025915,11.9918677 C67.5204085,12.9818325 63.7051268,5.97049785 75.7302676,5.19949198 C79.9693521,4.84611429 78.8006197,7.40725714 80.673507,9.27855264 C80.6350563,13.2058638 79.9816056,17.4732376 77.5634366,20.7796016 M52.5766056,16.2668501 C49.4794225,30.7766818 32.5192817,27.3253315 30.737662,14.2457072 C32.3828028,13.084126 31.949493,10.2158912 33.9932958,9.1766818 C37.2324507,7.10629432 41.2816056,7.1948501 44.9599859,7.24346067 C49.6617465,7.56661526 51.0016056,9.51505362 53.4168169,11.6408149 C53.3006197,13.0606661 52.9655493,14.7434372 52.5766056,16.2668501 M84.2819577,2.79643914 C84.1080845,2.76748415 83.934,2.74021996 83.7599155,2.71464658 C83.6240704,2.63750372 83.4645634,2.57811429 83.2790704,2.54239609 C82.8554789,2.43481879 82.4348451,2.36232564 82.0148451,2.32322583 C75.9869577,0.966145597 62.0418169,2.89302622 61.4663239,8.03898317 C59.5467465,8.68000861 57.8857606,8.10598121 55.6609014,8.16304579 C53.9673803,1.08175421 24.6892817,2.08122975 23.2811831,6.35050568 C23.2759014,6.34902622 23.2706197,6.34775812 23.2651268,6.34606732 C21.912169,5.92717104 19.9175915,6.02819648 18.369,5.96183249 C15.0624507,5.89250959 11.7520986,6.18734325 8.51695775,6.88501057 C2.45885915,7.84813386 -5.80909859,8.97568767 -1.59578873,16.543719 C-1.59494366,16.5449871 -1.59430986,16.5464665 -1.59325352,16.5477346 L-1.59261972,16.5471006 C-0.866492958,17.2916877 0.365830986,16.6920869 0.411676056,15.6841573 C-1.00487324,12.098811 2.19456338,11.6682904 4.65625352,10.6379577 C10.7815352,8.43653307 17.0177324,8.13134325 23.3528028,8.81231389 C23.8294225,9.37366027 24.5525915,9.86314755 25.3169577,10.1193041 C29.552662,10.8226779 27.3204085,13.9658795 29.9978028,14.4230301 C29.5059718,25.3798521 42.8033662,31.3606427 50.5080845,24.158036 C53.5843521,21.1492532 54.317662,16.6920869 55.0309014,12.6745292 C55.4080141,12.5897777 55.6478028,12.3834998 55.7878732,12.1104352 C56.6948451,11.2045879 57.2646338,10.3680634 59.0580845,10.1193041 C60.8515352,9.87075616 62.232169,10.3697542 62.4189296,10.5225605 C62.4660423,10.6174568 62.5165352,10.7125644 62.5752676,10.807672 C62.6572394,10.9494881 62.7687887,11.0625605 62.8955493,11.1515389 C61.124493,22.0622865 69.5914648,28.9624509 78.1391408,23.3035468 C81.8532254,19.808447 82.6380845,14.4574802 82.7931549,9.6813863 C83.2966056,9.37746458 83.6154085,8.78843131 83.4411127,8.04785988 C83.2009014,7.02703796 83.7641408,6.14317104 84.6611831,5.69933542 C85.8267465,5.12298317 85.6205493,3.0181456 84.2819577,2.79643914" id="ðŸ–-Ink"></path>
                    </g>
                </g>
            </g>
        </g>
    </g>
</svg>