<?xml version="1.0" encoding="UTF-8"?>
<svg width="240px" height="324px" viewBox="0 0 240 324" version="1.1" xmlns="http://www.w3.org/2000/svg" xmlns:xlink="http://www.w3.org/1999/xlink">
    <!-- Generator: Sketch 62 (91390) - https://sketch.com -->
    <title>peep-98</title>
    <desc>Created with Sketch.</desc>
    <g id="Introduction" stroke="none" stroke-width="1" fill="none" fill-rule="evenodd">
        <g id="variations" transform="translate(-3246.000000, -2054.000000)">
            <g id="images" transform="translate(126.000000, 110.000000)">
                <g id="a-person/bust" transform="translate(3120.000000, 1944.000000)">
                    <g id="body/Gym-Shirt" transform="translate(31.056338, 135.052838)" fill-rule="evenodd">
                        <path d="M11.9520451,138.193359 C11.6645099,138.202658 11.7551437,138.118752 11.8607775,138.098463 C11.8912,138.129954 11.9216226,138.161868 11.9520451,138.193359 Z M20.4418338,144.507026 C28.4757071,145.459793 36.5195099,144.588185 44.5138761,143.714251 C60.7096507,142.513148 76.7915521,146.012263 93.0192282,144.945155 C113.299228,144.090243 133.634369,142.484827 153.846975,145.190322 C159.437749,145.318823 168.354932,146.828075 166.327397,138.170322 C163.664158,115.91112 160.103454,93.7641456 156.289228,71.6763491 C153.056623,59.2935467 152.822961,37.875308 143.97127,29.264263 C142.677045,28.0821808 138.035285,24.2584313 136.808031,23.7450614 C130.706834,21.4726231 119.70782,19.6993941 115.170003,14.8822982 C111.494369,8.66056827 113.204158,0.17041563 107.488735,-4.83858633 C102.47958,-8.92990531 91.5464817,-8.06505991 86.1910592,-4.99287204 C81.9657071,-2.25208143 81.3038057,3.07140976 78.6709888,7.00823168 C78.0215521,7.95148804 76.4788956,10.2253646 75.6078392,10.9589615 C73.4874205,13.0011906 66.0399956,15.1467473 63.8892914,15.5409156 C51.7526012,18.0289313 45.7009888,19.5662434 36.1552845,27.6343295 C11.2134535,53.1073237 14.7490169,98.1608657 7.84753806,131.47094 C7.56507327,135.132795 5.33979158,140.102063 9.30993242,142.459676 C12.7292986,144.098275 16.7497212,143.919895 20.4418338,144.507026 Z" id="ðŸŽ¨-Background" fill="#FFFFFF"></path>
                        <path d="M112.387606,6.41403757 C112.417394,6.32738395 112.55662,6.31258943 112.577746,6.41403757 C112.918099,7.97147789 113.555915,9.67939961 114.202394,11.1398301 C114.859437,12.6192822 115.757324,13.9782646 116.891831,15.1322372 C119.268592,17.5500845 122.325634,18.6533331 125.678451,18.6554466 L125.758732,18.6575601 C125.774225,18.5448399 125.791596,18.4321198 125.807715,18.3193996 L125.830563,18.1503194 C126.136901,15.8339202 128.885493,15.9015523 129.422113,17.6494192 C129.694648,17.7360728 129.967183,17.8227264 130.237606,17.913607 L130.291656,17.9330564 C130.746881,18.1063979 132.288924,18.8746213 132.572113,18.6702411 C133.195352,18.2219671 133.907324,18.7357597 134.143944,19.308519 C134.530651,20.2462978 134.595271,21.4053561 134.720849,22.4227745 L134.737606,22.5546481 L134.75662,22.7131609 C143.577042,25.0065229 148.527042,33.8346247 151.053803,41.967384 C152.422817,46.3761511 153.318592,50.9244094 154.218592,55.4473057 C155.181972,60.2851139 156.069507,65.1356031 157.009437,69.9755249 C158.862254,79.5135523 160.615775,89.0731374 162.139014,98.6684407 L162.580684,101.454959 C163.976156,110.278209 165.335392,119.096352 166.478451,127.959478 C167.095352,132.738108 167.674225,137.520965 168.231972,142.308049 C168.331972,143.161764 168.431033,144.015666 168.529218,144.870194 L168.675845,146.152511 C168.80662,147.302257 169.028451,148.439321 168.460141,149.515094 C167.228451,151.84819 163.497465,151.831282 163.286197,148.843 C163.244155,148.249106 163.444648,147.794703 163.776338,147.477677 L163.771745,147.427501 C163.768474,147.397599 163.765141,147.375525 163.763873,147.365662 C163.653803,146.771768 163.624225,146.144057 163.55662,145.543611 C163.408732,144.26304 163.26507,142.982257 163.119296,141.69936 C162.83831,139.25594 162.555211,136.812942 162.261549,134.371846 C161.668099,129.419908 161.040423,124.474312 160.375141,119.532942 L159.71561,114.647152 C157.509966,98.3611269 155.211165,82.0785955 152.186197,65.9218262 C151.362254,61.5236266 150.515282,57.1317675 149.646761,52.7420219 C148.822817,48.5847616 147.897465,44.4465229 146.515775,40.4329808 C144.259437,33.8768947 140.31507,27.7371687 134.839014,23.4340767 C134.923521,24.2562294 134.984789,25.082609 135.062958,25.9047616 C135.263662,28.0161511 135.477042,30.125427 135.692535,32.2347029 C136.476338,39.8771295 137.539014,47.5068751 139.35169,54.9800102 C140.249577,58.6830787 141.343944,62.3373252 142.677042,65.9070317 C143.334085,67.6654661 144.050282,69.4006521 144.836197,71.1041354 C145.613662,72.7885973 146.976549,74.5893018 147.058732,76.4660924 C147.096761,77.3347421 146.18831,78.1061706 145.347676,78.0131765 C145.740423,81.4708673 145.962254,84.9644877 146.196761,88.4137245 C146.539014,93.4098341 146.811549,98.4148204 147.210845,103.406914 C147.92493,112.349145 148.820704,121.278695 149.758732,130.199791 C149.944648,131.96837 150.146789,133.735597 150.346766,135.502553 L150.514189,136.986182 C150.626943,137.947969 150.797279,139.100642 150.286901,139.953607 C150.743239,141.054742 151.055915,142.185466 151.237817,143.364801 C151.467887,144.831572 150.629366,146.475877 148.917887,146.412472 C148.723521,146.40592 148.529155,146.389012 148.334789,146.368088 C146.748169,146.735838 145.165775,147.059204 143.517887,147.069771 C141.413662,147.084566 139.305211,147.042296 137.200986,147.027501 C133.13007,147.000026 129.058732,146.97255 124.987606,146.938734 C110.249577,146.820378 95.5052113,146.826719 80.7692958,146.590006 L74.8733834,146.496386 C69.468338,146.409419 64.0625352,146.309192 58.6601408,146.112355 C54.9397183,145.97709 51.219507,145.839713 47.5009859,145.689654 L46.7439349,145.660797 C43.4629937,145.541213 40.1781489,145.479813 36.9333803,144.977404 C36.8520423,144.963648 36.8168603,144.879211 36.8294618,144.805 L36.8340845,144.785075 L36.6925352,144.753372 C36.6101408,145.108441 34.8988732,143.616308 34.9115493,142.625075 C34.2016901,141.701474 34.5333803,140.226249 34.6094366,139.156816 C34.6833803,138.114859 34.776338,137.070789 34.8587324,136.028832 C35.0340845,133.803314 35.1840845,131.575681 35.363662,129.350163 C36.0883099,120.376229 36.713662,111.379047 37.1192958,102.386092 C37.3242254,97.8526286 37.4890141,93.3170513 37.6622535,88.7835875 C37.74026,86.719508 37.8488691,84.6536277 38.0512244,82.5990789 L38.1038028,82.0856853 C38.3256338,80.0019828 38.304507,77.7616697 39.0714085,75.7980141 C39.0819718,75.7707499 39.1178873,75.7707499 39.1284507,75.7980141 C39.9038028,77.7088321 39.9777465,79.9301237 40.1340845,82.0267186 C40.1615493,82.0182646 40.1890141,82.0140376 40.2185915,82.0076971 C41.2897183,81.4983429 42.3714085,81.0397127 43.385493,80.4098888 C43.5228169,80.3253487 43.6559155,80.2363703 43.7911268,80.149928 C45.3861972,75.2677362 47.2347887,70.4658575 48.935493,65.6153683 C54.4305634,49.931063 57.4643662,33.227838 58.1361972,16.6201432 C53.9446479,19.3233775 49.3796225,21.4264314 44.9419787,23.6847396 L44.526338,23.8969339 C40.1552113,26.13302 35.97,28.671337 32.8580282,32.5496149 C30.1453521,35.9269926 28.3728169,40.0419828 26.7143662,44.0090278 C24.9333803,48.2719632 23.3277465,52.6109847 21.8594366,56.9901628 C18.8805634,65.8753292 16.5735211,74.9781863 14.7735211,84.1740376 C12.9967606,93.2494192 11.7270423,102.392222 10.8777465,111.598852 C10.4446479,116.295055 10.0495775,120.995486 9.71788732,125.702257 C9.54887324,128.084175 9.39887324,130.468206 9.25943662,132.854351 C9.19183099,134.01255 9.14112676,135.172863 9.06507042,136.331063 C9.01859155,136.99893 9.01014085,137.687721 8.79042254,138.321771 C8.60661972,138.850147 8.28126761,139.292081 7.97704225,139.759165 C7.42140845,140.610906 6.01859155,140.765192 5.49676056,139.759165 L5.27080563,139.323445 C4.97171831,138.743162 4.69859155,138.15882 4.65802817,137.489263 C4.62,136.855212 4.69816901,136.193685 4.73408451,135.55731 C4.80380282,134.270398 4.88408451,132.981161 4.9643662,131.694038 C5.13338028,128.98664 5.32140845,126.279243 5.53267606,123.573959 C5.95309859,118.154938 6.49394366,112.750711 7.17422535,107.357051 C9.56788732,88.4137245 13.0242254,69.5697323 19.62,51.5922763 C21.2509859,47.1475796 23.07,42.7386012 25.1235211,38.4716501 C27.1094366,34.3460924 29.6214085,30.4509065 33.2678873,27.6103585 C36.624507,24.9950254 40.5262986,23.2445175 44.403168,21.5454316 L44.8876056,21.3332548 C49.2333803,19.4332157 53.5707042,17.3873448 58.1087324,15.9755249 C58.0073239,15.9882059 57.9080282,16.0008869 57.8216197,16.0304759 C57.7221127,16.0621785 57.663169,15.9332548 57.7244366,15.8635092 C57.9819718,15.5781863 58.0897183,15.2844094 58.3857042,15.0033135 C58.5900423,14.8088712 58.8026282,14.6252501 59.0212986,14.4481216 L59.3359821,14.1975946 C59.9116976,13.7404126 60.5170394,13.2732845 61.241831,13.1138419 C62.2666901,12.8898106 62.769507,13.8218654 62.4819718,14.5510239 C62.6298592,14.3586951 63.0270423,14.4157597 63.1305634,14.6799476 C66.5023944,23.3791256 68.7164789,32.5876579 73.254507,40.8070708 C76.6052113,46.8791648 81.1009859,52.4862881 87.0671831,56.1532157 C90.2721127,58.1230004 93.9399296,59.6362685 97.7277465,59.8750943 C101.129155,60.0885581 104.40169,59.2239241 107.294155,57.4382254 C112.901197,53.9784211 116.562465,47.9042137 119.173521,42.018108 C122.044648,35.538108 124.093944,28.6332939 125.298169,21.6333722 C121.482676,21.6862098 117.455915,19.9446834 114.918592,17.1062489 C113.58338,15.6120023 112.58831,13.7922763 112.08338,11.8520806 C111.574225,9.89497691 111.736901,8.28660117 112.387606,6.41403757 Z M80.3783873,1.33099961 C80.8433873,0.500392955 81.8743732,0.225637573 82.717331,0.563798043 C83.6530352,0.940001566 83.9342324,1.84880783 83.8011338,2.77240861 C83.6466972,3.85452211 82.9516268,5.02350059 82.410993,5.96802505 C81.8447958,6.95714442 81.1159225,7.86827554 80.3614859,8.71980587 C78.9419789,10.3260681 77.4227535,11.7738176 75.6208521,12.9575906 C73.8271901,14.1346004 71.7988099,15.0159311 69.7138099,15.5083773 L69.2181039,15.6240945 C67.5961608,15.995099 65.2885645,16.420122 63.9375423,15.5381777 C63.8722606,15.4956963 63.874162,15.4090427 63.9375423,15.3667726 C64.6685282,14.8574184 65.6469085,14.7665378 66.4875423,14.5258098 C67.4044437,14.2616219 68.323669,13.9615045 69.2002183,13.5850896 C70.9307113,12.8411366 72.5870493,11.8604712 74.0614859,10.6895906 C75.5426831,9.51469432 76.9748662,8.11344188 77.9659225,6.49640078 C78.4645141,5.68502701 78.889162,4.83307397 79.2966972,3.97520313 C79.7088803,3.11479609 79.9157113,2.15949276 80.3783873,1.33099961 Z" id="ðŸ–-Ink" fill="#000000"></path>
                    </g>
                    <g id="head/Long-Afro" transform="translate(78.591549, 38.043053)" fill-rule="evenodd">
                        <path d="M86.3056901,58.1095796 C84.8555493,40.4248438 80.4400563,24.7616736 59.6925211,24.0938067 C50.3295634,24.1775014 40.7720282,26.1673644 32.1620282,29.8490865 C11.2347042,40.3460102 4.59477465,78.7020728 23.0323099,94.1420571 C22.922662,94.2044055 22.8962535,94.3846873 23.0257606,94.4717636 C26.8349155,97.0354427 31.0689296,99.1447186 35.309493,100.917102 C46.6051268,105.694464 59.9025211,107.769501 71.4223099,102.587404 C89.0025211,95.1039123 89.2661831,74.2806247 86.3056901,58.1095796 L86.3056901,58.1095796 Z" id="ðŸŽ¨-Background" fill="#FFFFFF"></path>
                        <path d="M120.909676,49.866728 C121.632211,49.2157691 122.170944,48.3619139 122.443479,47.4044971 C122.692775,46.5316204 122.709676,45.5784305 122.445592,44.7076673 C122.162493,43.773499 121.55193,43.029546 121.689254,42.0573346 C121.704042,41.962227 121.723056,41.8628924 121.752634,41.7635577 C122.280803,39.9332642 123.580099,38.6123249 123.11531,36.583362 C122.984324,36.0106027 122.737141,35.494908 122.392775,35.0891155 C122.430803,34.6495068 122.464606,34.2056712 122.49207,33.7618356 C123.254746,31.9759256 123.227282,29.8539687 122.413901,28.0955342 C122.314606,27.195182 122.164606,26.3032838 121.953338,25.42618 C122.050521,24.6505245 121.91531,23.7966693 121.666014,23.1182348 C121.228056,21.9245284 120.686789,20.7481526 120.099465,19.5912211 C120.168549,19.2748297 120.137493,18.9404736 119.962986,18.6431037 C119.645662,18.102681 119.226296,17.6275656 118.797634,17.163229 C118.494465,16.6215382 118.189183,16.0842857 117.886437,15.5540078 C117.746155,15.3103209 117.591296,15.0400039 117.420592,14.7536243 C117.885803,13.890047 118.134254,13.0484501 117.642211,12.0329119 C117.457352,11.6514247 116.949042,11.3701174 116.530521,11.3950568 C116.073127,11.4223209 115.611507,11.4428219 115.147352,11.460364 C114.279887,10.4124892 113.296859,9.47176908 112.243479,8.93028963 C111.176577,8.02571037 110.094887,7.13803914 109.042775,6.23134638 C108.744887,5.97349902 108.444887,5.71565166 108.147,5.45780431 C108.144887,5.4514638 108.142775,5.44300978 108.140662,5.43666928 C107.920944,4.63565166 107.673761,3.84520157 107.426577,3.05052446 C107.272352,2.55807828 107.225873,2.04238356 106.746296,1.77396869 C105.744887,1.21389041 104.204746,1.12512329 103.055451,1.03001566 C102.941366,0.928567515 102.827282,0.829232877 102.713197,0.727784736 C103.235028,-0.662900196 103.14207,-2.14023875 102.485028,-3.53303718 C102.261085,-4.00646184 101.48362,-4.21992564 101.056859,-3.9071272 C100.072352,-3.1843092 98.9040423,-2.92857534 97.7484085,-3.03425049 C96.0498169,-4.3403953 89.1984085,-10.2467906 88.1397465,-10.870274 C88.1266479,-10.8926771 88.1160845,-10.9150802 88.1021408,-10.937272 C87.507,-11.8879256 86.7842535,-12.6513229 85.9717183,-13.2633933 C85.8557324,-13.3844971 85.7397465,-13.5058121 85.6237606,-13.6271272 C85.7258028,-14.3518474 85.9943239,-15.0516282 86.4265775,-15.6370685 C86.4730563,-15.7047006 86.5258732,-15.7702192 86.5786901,-15.8336243 C87.3350282,-16.7339765 86.4117887,-17.8921761 85.3554507,-17.420865 C85.2793944,-17.3870489 85.203338,-17.3532329 85.1272817,-17.3173033 C84.315169,-16.9550489 83.4166479,-16.5613033 82.4809437,-16.2290607 C82.1384789,-16.3573503 81.7894648,-16.473593 81.4710845,-16.6016712 L78.0620704,-17.9727006 C77.5009437,-18.1984227 76.9077042,-18.3896947 76.3649577,-18.6549393 C76.175662,-19.9143757 74.9139718,-20.7403327 73.6036901,-20.6972172 C73.6793239,-20.939002 73.7921408,-21.1738121 73.9512254,-21.396364 C73.9977042,-21.4618826 74.0484085,-21.5252877 74.1012254,-21.5865793 C74.775169,-22.3706888 73.875169,-23.8247789 72.9117887,-23.1273229 C72.8441831,-23.0787123 72.7744648,-23.0301018 72.7068592,-22.9814912 C72.4391831,-22.7936008 72.165169,-22.6173346 71.8881972,-22.4465636 C71.4447465,-22.6401605 70.9453099,-22.6843327 70.4226338,-22.4795342 C69.2653099,-22.0261879 68.1984085,-21.5652329 67.1794648,-20.8546732 C67.1380563,-20.8257182 67.095169,-20.8014129 67.053338,-20.7741487 C66.5475634,-21.3853738 65.7445352,-21.7941252 65.0213662,-21.7896869 C65.0065775,-21.7896869 64.995169,-21.7898982 64.9820704,-21.7901096 C64.4414366,-22.6141644 63.4503803,-23.0930841 62.493338,-22.9766301 C62.5579859,-24.159135 61.3746761,-25.214407 60.2974225,-25.3426967 C59.0386901,-25.4923327 57.9041831,-24.761272 57.5264366,-23.5329041 C57.4212254,-23.1909393 57.3162254,-22.8487632 57.2110141,-22.5065871 C56.2336901,-23.00009 55.2022817,-23.3781957 54.1248169,-23.5669315 C51.6713662,-23.996818 49.2724225,-23.5390333 46.9081268,-22.8576399 C46.6719296,-22.7895851 46.4359437,-22.7196282 46.1999577,-22.6498826 C45.8627746,-23.0406693 45.546507,-23.4407554 45.2441831,-23.8142114 C44.7223521,-24.4588297 43.4695352,-23.943135 43.5540423,-23.1146419 C43.6127746,-22.5429393 43.3805915,-22.1316517 43.0068592,-21.8393542 C42.5963662,-21.7793307 42.1996056,-21.7611546 41.6012958,-21.7732016 C40.8105211,-21.7892642 40.4507324,-21.8139922 39.623831,-22.1365127 C39.2384789,-22.2865714 38.7586901,-22.6811624 38.5341127,-23.0353855 C37.6731972,-24.3937339 35.4863662,-24.7595812 34.4448169,-23.4644266 C33.3487606,-23.9444031 31.9649577,-23.282454 31.356507,-22.3491311 C31.0381268,-21.8611233 30.3739014,-21.5882701 29.5377042,-21.3536712 C28.9100282,-21.1778278 28.2681972,-21.0446771 27.6234085,-20.9282231 C27.3360845,-21.3181644 26.7310141,-21.5796047 26.2871408,-21.2526458 C25.986507,-21.0305166 25.6945352,-20.8024697 25.4065775,-20.5687162 C23.1861549,-20.262681 20.9773521,-20.2516908 18.8602394,-21.1178043 C17.0678451,-21.8511898 15.4220704,-19.8482231 15.7178451,-18.1667202 C15.1987606,-17.8964031 14.6355211,-17.716544 14.1227746,-17.4333346 C13.0041127,-16.8149237 12.0855211,-15.8374286 11.525662,-14.6889511 C11.4253099,-14.4833072 11.3346761,-14.2744932 11.2482676,-14.0646223 C10.830169,-13.724137 10.4167183,-13.3745636 10.0131972,-13.0057573 C9.3413662,-13.3502583 8.67164789,-13.6947593 7.9998169,-14.0392603 C7.497,-14.2971076 6.6498169,-14.1174599 6.55052113,-13.449593 C6.38784507,-12.3505714 5.99277465,-11.4396517 5.42869014,-10.6766771 C3.59488732,-9.71291977 1.83080282,-8.63080626 0.142774648,-7.42822309 C-1.79877465,-6.81953425 -3.86285915,-6.46446575 -5.55933803,-6.0650137 C-6.14032394,-5.92763601 -6.45722535,-5.16888845 -6.12976056,-4.66376125 C-5.78328169,-4.12904501 -5.43680282,-3.59432877 -5.09243662,-3.05961252 C-6.05792958,-2.11699022 -6.96426761,-1.13209785 -7.81990141,-0.113389432 C-10.2008873,2.7187045 -12.1931408,5.82344031 -13.9762394,9.11205088 C-14.6818732,9.39737378 -15.387507,9.68058317 -16.0931408,9.96590607 C-16.7734225,10.2406614 -17.0797606,11.0311115 -16.5283521,11.6123249 C-16.2663803,11.8891937 -16.0318732,12.1808571 -15.831169,12.4873151 C-16.8304648,14.1421879 -18.0072254,15.651229 -19.653,16.6403483 C-20.1537042,16.9404658 -20.5297606,17.4117769 -20.7304648,17.9464932 C-20.9015915,18.0606223 -21.0706056,18.1832055 -21.237507,18.3079022 C-21.7022958,18.6587436 -21.9832817,19.4238317 -21.4382113,19.8782348 C-21.0558169,20.1994873 -20.696662,20.5799178 -20.3924366,21.0005049 C-20.3269437,21.2393307 -20.259338,21.4802701 -20.1917324,21.7190959 C-21.7213099,23.1266888 -22.9931408,24.7625401 -23.9480704,26.5970607 C-24.1741268,26.5611311 -24.4065211,26.5843796 -24.5945493,26.7238708 C-26.3015915,27.9856321 -26.3522958,29.9955734 -25.6656761,31.7920509 C-26.0797606,34.4994481 -25.8135634,37.2744775 -25.0149718,39.8973346 C-26.0649718,40.9456321 -26.696662,42.4589002 -26.9544085,43.9172172 C-27.4086338,46.4787828 -27.4403239,50.4183523 -27.5586338,53.0327554 C-28.7037042,54.1381174 -29.5191972,55.5689589 -29.9734225,57.107589 C-30.3558169,57.2978043 -30.7382113,57.4880196 -31.1206056,57.6782348 C-31.4607465,57.8473151 -31.7100423,58.2932642 -31.6901643,58.6694677 C-31.5917324,60.4891937 -30.8417324,61.9263757 -29.846662,63.2282935 C-29.4938451,64.2322074 -28.9720141,65.1579217 -28.287507,66.045593 C-27.8142676,66.6542818 -27.3515915,67.2376086 -26.9438451,67.894908 C-26.9015915,67.9604266 -26.8762394,68.0217182 -26.8572254,68.0639883 C-27.0177887,68.2372955 -27.1508873,68.5247319 -27.2670845,68.7297417 C-28.2431408,70.4501331 -28.2579296,72.4664149 -26.8720141,73.9648885 C-27.3938451,74.391816 -27.4107465,75.2541252 -26.9501831,75.782501 C-23.9522958,79.2084892 -21.453,83.3742035 -17.2931408,85.1939295 C-17.2741268,85.2256321 -17.2572254,85.2573346 -17.2424366,85.2890372 C-18.0853944,87.318 -18.1994789,88.372638 -17.5107465,90.4692329 C-17.5065211,90.4882544 -17.5001831,90.5051624 -17.4938451,90.524184 C-17.1262394,91.6232055 -16.4501831,93.3837534 -15.231169,93.7261409 C-14.846662,93.8339295 -14.468493,93.8825401 -14.0945493,93.8804266 C-13.1269437,94.8124814 -12.1614507,95.7466497 -11.1959577,96.680818 C-11.1114507,97.1436751 -11.0586338,97.6107593 -11.0417324,98.0820705 C-11.0142676,98.870407 -10.2727183,99.5086849 -9.47412676,99.2761996 C-9.19314085,99.193773 -7.63821127,97.6826184 -7.353,97.6910724 C-7.20933803,97.8347906 -7.06990141,97.9785088 -6.93046479,98.1243405 C-6.41708451,98.6632838 -5.70511268,99.5129119 -5.64595775,100.077217 C-5.53187324,101.140309 -4.83469014,102.357687 -3.7086338,102.573264 C-3.28609859,103.002305 -2.61004225,103.131229 -2.09243662,102.571151 C-2.0586338,102.535221 -2.02483099,102.499292 -1.98891549,102.467589 C-1.93398592,102.461249 -1.88116901,102.454908 -1.82623944,102.448568 C-1.57694366,103.192521 -1.32764789,103.936474 -1.07623944,104.678313 C-0.583985915,106.140857 1.29629577,107.081366 2.63150704,106.227511 C2.847,106.356434 3.05826761,106.493812 3.26953521,106.63119 C3.59066197,106.8362 3.91601408,107.045436 4.2498169,107.241992 C4.26883099,107.296943 4.28784507,107.351894 4.30474648,107.404732 C4.52023944,108.062031 5.41601408,108.414986 5.96742254,108.036669 C6.1385493,108.09162 6.31390141,108.136004 6.4913662,108.171933 C7.42305634,108.355808 8.36108451,108.305084 9.26108451,107.994399 C9.9054507,107.774595 10.5202394,107.354008 11.2131972,107.296943 C11.256507,107.29335 11.3010845,107.296309 11.3450282,107.295041 C11.9103803,108.453663 13.2022817,109.452082 14.2203803,109.791299 C15.5539014,110.235769 16.9186901,110.076834 18.1330563,109.532607 C18.4607324,110.188004 18.8722817,110.808528 19.3639014,111.382344 C19.6364366,111.69937 20.1286901,111.631738 20.4096761,111.382344 C20.943338,110.909131 21.4736197,110.433593 22.0030563,109.957421 C22.3862958,109.809687 22.7731268,109.632364 23.1766479,109.467511 C24.4387606,108.951816 25.8223521,108.738141 26.9896056,107.99292 C27.5437606,107.639119 28.0649577,107.187675 28.4942535,106.664583 C29.3029859,106.197499 30.0460141,105.615652 30.7153099,104.948841 C31.0491127,104.950955 31.3977042,104.872755 31.7357324,104.701562 C33.1491127,103.982971 33.8927746,102.520427 33.9582676,101.024067 C35.103338,98.3293503 35.7793944,95.4549863 35.9653099,92.5129902 C36.0244648,91.5471194 36.0350282,90.5727945 35.9610845,89.6069237 C35.9103803,88.9263757 35.7392535,88.4719726 35.481507,87.8569432 C35.3948873,87.6561605 35.3167183,87.4722857 35.2554507,87.2693894 C35.2702394,86.6184305 35.2786901,85.9674716 35.2871408,85.3186262 C35.462493,84.771229 35.775169,84.2618748 36.2103803,83.8328337 C36.8843239,83.1691937 37.1927746,81.7911898 36.5800986,80.9711507 C36.1808028,80.4406614 35.7836197,79.9101722 35.3843239,79.379683 C35.4962958,77.1034403 36.0413662,73.4808963 34.8329155,73.1004658 C34.881507,72.7623053 34.9850282,72.4283718 35.0441831,72.0923249 C35.3272817,70.4776086 35.1582676,69.0340861 34.3005211,67.6222661 C34.1209437,67.3284892 33.968831,67.0685284 33.8441831,66.814908 C33.7660141,66.3499374 33.6878451,65.8849667 33.6096761,65.4199961 C33.4892535,64.7035186 33.3709437,63.9807006 33.2695352,63.2536556 C33.2167183,62.3279413 33.1681268,61.402227 33.1153099,60.4743992 C33.0667183,59.620544 33.0117887,58.7666888 32.9547465,57.9107202 C32.9779859,57.5281761 33.0117887,57.1456321 33.0603803,56.7630881 C33.3498169,54.4826184 34.281507,53.6393307 35.8955915,52.0542035 C36.1491127,52.014047 36.4005211,51.9696634 36.6477042,51.9189393 C37.7991127,51.6801135 39.003338,51.3102505 40.1885493,51.4434012 C41.475169,51.5871194 42.6265775,52.1429706 43.8772817,51.4328337 C44.2448873,51.2214834 45.0540423,50.6381566 45.1237606,50.1752994 C45.1279859,50.1457104 45.1343239,50.1203483 45.1427746,50.1013268 C45.2293944,50.0886458 45.3413662,50.0780783 45.4110845,50.0759648 C46.4040423,50.0421487 47.3526338,50.4331468 48.3540423,50.3253581 C49.5392535,50.1985479 50.5998169,49.6722857 51.297,48.8924031 C52.190662,49.1122074 53.103338,49.2115421 54.0308028,49.0889589 C54.8082676,48.9875108 55.5054507,48.7338904 56.1941831,48.3576869 C56.6948873,48.0871585 56.5364366,48.0089589 57.081507,48.2287632 C58.3216479,48.7317769 59.4434789,49.3954168 60.8399577,49.0509159 C61.5646056,48.8733816 62.1899577,48.4823836 62.7160141,47.9561213 C62.840662,47.8335382 63.0519296,47.6496634 63.1934789,47.4763562 C63.8568592,47.8124031 65.5258732,48.5711507 65.8005211,48.6387828 C66.5779859,48.828998 67.4019296,48.799409 68.1582676,48.5457886 C68.7139014,48.3598004 69.3941831,47.8525597 69.8822113,47.748998 C70.5139014,47.6137339 71.9167183,48.4929511 72.6709437,48.795182 C73.9934789,49.3256712 75.3941831,49.4567084 76.7336197,48.9093112 C77.1941831,48.7212094 78.0899577,47.9709159 78.4343239,47.9772564 C78.9941831,48.6683718 80.5575634,52.4494286 81.0265775,53.829546 C82.9258732,59.4091937 83.4181268,76.8307984 82.5413662,81.2754951 C82.5075634,81.4065323 82.4716479,81.535456 82.4357324,81.6664932 C81.3582676,85.53209 80.2364366,89.4632055 78.4343239,93.0646145 C76.7336197,96.4589002 74.3822113,99.5150254 71.0082676,101.368568 C67.5096761,103.291855 63.4026338,103.796982 59.468831,103.537022 C56.9357324,103.372168 54.4448873,102.862814 51.9941831,102.224536 C50.7139014,101.892716 49.4441831,101.522853 48.1808028,101.138196 C47.6293944,100.971229 47.0695352,100.81483 46.5286901,100.620387 C45.5737606,100.275886 45.0730563,100.248411 44.1582676,100.690133 C43.3258732,101.091699 43.112493,102.277374 43.5455915,103.02344 C44.2512254,104.240818 45.5441831,104.325358 46.7927746,104.680427 C48.0646056,105.041836 49.340662,105.38845 50.625169,105.699135 C53.0864366,106.290916 55.5878451,106.745319 58.1103803,106.954556 C62.6272817,107.332873 67.281507,106.749546 71.3927746,104.777648 C71.8575634,104.553616 72.3054507,104.314791 72.7385493,104.056943 C72.5779859,104.280975 72.4153099,104.505006 72.2505211,104.726924 C71.7941831,105.341953 72.1322113,106.388137 72.7723521,106.724184 C72.975169,106.829859 73.1779859,106.931307 73.3829155,107.030642 C73.4103803,107.09616 73.4399577,107.161679 73.4737606,107.227198 C74.0589718,108.402305 75.2843239,109.095534 76.5329155,109.395652 C78.0160141,109.75072 79.6765775,109.499213 81.1850282,109.45483 C82.5836197,109.41256 83.9822113,109.37029 85.3786901,109.32802 C85.7082676,109.319566 86.0378451,109.308998 86.3674225,109.298431 C88.0279859,109.247706 89.6864366,109.199096 91.3448873,109.148372 C92.8237606,109.103988 92.7540423,109.218117 94.1420704,108.626337 C94.7610845,108.360035 95.2681268,107.983832 95.6948873,107.482932 C95.9610845,107.364575 96.218831,107.229311 96.4660141,107.075025 C97.2603803,106.580466 97.9660141,105.916826 98.6167183,105.185554 C99.7216479,105.534282 101.270239,105.210916 101.485732,103.822344 C101.832211,101.601053 104.718127,100.65209 106.066014,99.0458278 C107.154042,97.7502505 107.931507,96.0531076 107.891366,94.4235969 C110.63362,93.096317 112.125169,89.5984697 112.473761,86.6311115 C112.636437,85.2552211 112.611085,83.7821096 112.845592,82.3829706 C112.949113,82.270955 113.04207,82.1525988 113.120239,82.0257886 C113.808972,80.9119726 114.408972,79.7643405 114.937141,78.5892329 C115.655451,78.0714247 116.519535,77.7522857 117.423761,77.6994481 C119.646296,77.5705245 120.064606,74.5714638 117.945592,73.8486458 C117.935028,73.8444188 117.926577,73.8423053 117.916014,73.8380783 C118.490662,72.4008963 118.44207,70.6995264 117.744887,69.3384305 C117.774465,69.1904853 117.80193,69.0446536 117.829394,68.8967084 C119.018831,67.6180391 119.701225,65.8405832 119.625169,64.1096243 C120.168127,63.7270802 120.776577,63.4311898 121.44207,63.2473151 C122.470944,62.9641057 122.477282,61.7086849 121.716718,61.1464932 C121.41038,60.9203483 121.156859,60.6561605 120.945592,60.3644971 C121.471648,58.7835969 121.264606,56.9554168 120.189254,55.657726 C120.871648,54.7827358 121.554042,53.9077456 122.236437,53.0327554 C122.688549,52.4536556 122.927282,51.4708767 122.236437,50.9213659 C121.794887,50.568411 121.353338,50.2175695 120.909676,49.866728 Z" id="ðŸ–-Ink" fill="#000000"></path>
                    </g>
                    <g id="face/Eyes-Closed" transform="translate(112.183099, 77.354207)" fill="#000000" fill-rule="evenodd">
                        <path d="M38.5022324,47.7578114 L38.6483595,47.7239991 C39.8155361,47.4486776 40.9386549,47.0742284 42.0257535,47.7977566 C43.0615986,48.4869699 43.2054718,49.7618348 42.3984296,50.6917761 C41.5689498,51.6478731 40.4669977,51.594373 39.3040769,51.6074863 L39.2313169,51.6084023 C38.2656127,51.6217174 37.2838521,51.6073456 36.3219507,51.5217487 C35.4252465,51.4418583 34.5227239,51.3142049 33.6362531,51.1466461 L33.1120563,51.0438477 C32.57645,50.9354201 32.0489313,50.7943867 31.7729366,50.2758387 C31.291669,49.3718935 34.8688521,48.662602 35.3034296,48.5385393 C36.3580775,48.2373652 37.4325845,48.0002301 38.5022324,47.7578114 Z M40.4860971,36.8583586 C39.9158655,37.4500012 39.162674,37.8540537 38.3171646,38.1055558 C36.1921796,38.7376462 33.4807651,38.400933 31.7451626,37.7568385 C31.3851066,37.6232358 31.0486135,37.3508907 30.8552771,37.0103214 C30.6786787,36.6992367 30.6189037,36.3333917 30.7533203,35.9602721 C30.7916023,35.8542875 30.838155,35.7502275 30.8849219,35.6477456 C31.0122416,35.3689561 31.2717165,35.1520654 31.5764872,35.0280314 C31.8930016,34.8992181 32.2529291,34.8729251 32.5415926,34.9637345 C32.580371,34.9759348 32.6201465,34.9884779 32.6608695,35.0013198 C33.7605356,35.3480979 35.5641657,35.9223733 37.0584293,35.8110697 C37.9550516,35.7442827 38.7437145,35.4273752 39.1516166,34.6065468 C39.3665807,34.1737351 39.3070443,33.7456796 39.1163794,33.3537661 C38.8289083,32.7628669 38.2531034,32.2487015 37.7679835,31.8944056 C37.0841526,31.3948406 36.3547845,31.1954052 35.6003906,30.9848385 C35.3161296,30.9054955 35.028219,30.8250543 34.7376159,30.7288095 C34.6418552,30.6971841 34.55791,30.6350504 34.4950532,30.5542797 C34.4329714,30.4745047 34.392222,30.3770903 34.3794486,30.2793506 C34.3662206,30.1781326 34.3825639,30.0771964 34.4294569,29.9902011 C34.4729549,29.909504 34.5425229,29.8386271 34.6464802,29.7920648 C36.1224326,29.1305523 38.0313496,29.5676772 39.4721611,30.6083696 C40.1922606,31.1284945 40.7928761,31.7966468 41.1630661,32.5432658 C41.5066184,33.2361606 41.6525805,33.9963801 41.5179814,34.7716354 C41.3672735,35.6395481 41.0000644,36.325093 40.4860971,36.8583586 Z M16.2963803,22.0977088 C16.7110986,21.9148908 17.0518732,22.7706481 17.1372254,23.0039789 L17.3137423,23.4880548 C17.6016858,24.2685761 17.9322399,25.0621153 18.5377183,25.6414192 C19.0445493,26.1264681 19.856662,26.5375444 20.4446197,25.9700689 C21.0023662,25.4317597 20.7304648,24.8253957 20.8126479,24.164926 C20.9609577,22.9703742 22.5891972,21.7764564 23.5682113,23.0230004 C25.7797606,25.8394544 22.3580704,29.756198 19.2063803,29.0690982 C17.6035148,28.7195285 16.3132468,27.4338407 15.7831531,25.9049272 L15.7559577,25.8242372 C15.4386338,24.8556188 15.1177183,22.6178419 16.2963803,22.0977088 Z M44.8351961,24.059205 L44.8199155,24.0234904 C43.7665352,21.6265667 47.5241408,20.5964454 47.8427324,22.7486254 L47.862898,22.893839 C48.1728002,25.2829982 47.5197972,28.495874 44.5947042,28.7340658 C41.3111831,29.0016352 39.9438592,25.3366098 40.2370986,22.6471773 C40.2897042,22.1657213 40.8736479,22.099146 41.0540704,22.5366411 L41.0924605,22.6321203 C41.6226109,23.9837277 42.1260547,26.5830892 43.9940704,26.5804063 C45.2421097,26.5785313 45.1825503,24.8931573 44.8351961,24.059205 L44.8351961,24.059205 Z M47.217507,17.1205151 C49.1049718,17.053517 49.1024366,20.0086168 47.217507,20.0530004 C40.9213099,20.2011569 34.6202535,20.3981354 28.3221549,20.4319515 L27.1774144,20.4389467 C21.2615306,20.4786061 15.3253367,20.5594725 9.42680282,20.0627225 C8.92335211,20.0204524 9.01694366,19.3132744 9.43757746,19.3418067 C15.6215915,18.4613213 21.8810282,18.2038967 28.1121549,17.8693292 C34.4749014,17.5275757 40.8499014,17.3466599 47.217507,17.1205151 Z" id="ðŸ–-Ink"></path>
                    </g>
                    <g id="facial-hair/*-None" transform="translate(104.577451, 109.479380)"></g>
                    <g id="accessories/Glasses" transform="translate(88.521127, 88.978474)" fill="#000000" fill-rule="evenodd">
                        <path d="M82.2021338,13.3747538 C80.1879085,27.0045229 66.1272042,28.5118732 63.6289648,14.9808047 C64.0299507,14.8051726 64.318331,14.4594035 64.2581197,13.788155 C64.2439648,10.8393957 65.1589648,7.72282427 67.8179789,6.08295734 C70.5657254,4.39088689 73.7814296,4.22307476 76.9612183,4.26576751 C83.0292465,4.12120391 82.9016408,9.19509041 82.2021338,13.3747538 M61.4277676,7.44701213 C59.5234014,7.36669902 57.1141056,7.43390841 55.4081197,8.59464423 C54.9391056,7.33119217 53.7205141,5.98214325 52.4892465,5.2608047 C57.0657254,5.39480078 61.7765704,4.94420196 66.3872746,4.59441722 C65.2836127,5.34703562 64.2568521,6.47775969 63.5894577,7.78496125 C62.9702324,7.45462074 62.083331,7.48547789 61.4277676,7.44701213 M53.0336831,14.8197558 C47.7530493,33.0034896 34.5718521,25.0778536 33.1348099,22.7475053 C30.5427676,18.8912078 30.055162,9.51697691 32.3129789,7.01057378 C35.5449507,4.74405323 40.1203732,5.32738004 43.9384014,5.27179491 C50.9526972,5.36647984 55.9343873,7.46561096 53.0336831,14.8197558 M88.4372746,6.45641331 C87.0025563,6.26873425 85.4693873,6.23090254 84.1354437,6.86283992 C83.7247394,5.11645245 82.4353732,3.65644462 80.9795282,3.01393973 C80.803331,2.79286732 80.8297394,2.67408845 80.227838,2.70727045 C76.5317113,1.59599061 72.3957254,2.18396712 68.8438944,3.32356791 C63.2343169,3.79614716 57.3490352,4.16875773 51.6923451,4.81992798 C46.393331,2.43927828 30.4018521,2.09033894 29.4080493,7.95805714 C28.1579789,7.77101213 26.0290352,6.78675382 24.9786127,8.12185362 C17.2734718,6.81507476 9.31185211,8.63120783 1.57333099,9.4400454 C-0.374556338,9.7989182 -1.3778662,13.6662059 0.833260563,13.6133683 C2.07635915,13.2758419 0.795021127,11.2052431 2.46889437,11.0494779 C9.93530282,10.2336658 17.2384014,9.07631155 24.7812887,8.94083601 C24.5188944,10.2438106 29.770162,10.328562 29.8476972,9.56770098 C29.8588944,9.57340744 29.8707254,9.57721174 29.8821338,9.58228415 C28.5845282,14.4200924 29.7557958,21.3823937 32.1008662,24.3822998 C35.3865,28.3104564 43.6354437,29.4373761 47.2931197,26.9100493 C52.0113592,24.5773761 56.9197394,12.8681472 55.541007,8.97803366 C58.0432606,8.18462466 60.516993,8.42281644 63.1138944,8.8269182 C62.5193873,10.5069417 61.4930493,14.6426442 62.9695986,15.0013057 C62.6985423,23.2122646 70.168331,28.335607 77.0543873,24.9673174 C83.0144577,22.1684055 85.0988239,13.3090239 84.3695282,7.93163836 C85.1115,9.36586145 91.3413592,7.80440548 88.4372746,6.45641331" id="ðŸ–-Ink"></path>
                    </g>
                </g>
            </g>
        </g>
    </g>
</svg>