<?xml version="1.0" encoding="UTF-8"?>
<svg width="240px" height="324px" viewBox="0 0 240 324" version="1.1" xmlns="http://www.w3.org/2000/svg" xmlns:xlink="http://www.w3.org/1999/xlink">
    <!-- Generator: Sketch 62 (91390) - https://sketch.com -->
    <title>peep-89</title>
    <desc>Created with Sketch.</desc>
    <g id="Introduction" stroke="none" stroke-width="1" fill="none" fill-rule="evenodd">
        <g id="variations" transform="translate(-3006.000000, -1406.000000)">
            <g id="images" transform="translate(126.000000, 110.000000)">
                <g id="a-person/bust" transform="translate(2880.000000, 1296.000000)">
                    <g id="body/Killer" transform="translate(31.056338, 135.052838)" fill-rule="evenodd">
                        <path d="M121.824887,19.89751 C116.593479,15.0320149 118.273056,10.3389816 116.524606,4.41039452 C113.144535,-2.92494012 106.171225,-10.1493159 98.0967887,-11.7141534 C94.0649577,-14.0762043 88.7948873,-12.7373002 86.040169,-9.0333863 C83.4527746,-8.3475546 83.3672113,-4.76854873 82.5022817,-2.65124149 C80.9036197,1.50728689 79.6814366,5.74422622 78.6791831,10.0644376 C47.5349577,16.5507781 23.6471408,37.7644297 18.6669296,69.9393417 C17.8155211,74.6150442 17.1187606,79.3220266 16.4642535,84.029009 C16.0808028,88.0839757 14.0505211,94.5187468 18.2241127,97.1426607 C18.3434789,100.051475 18.692493,102.989032 19.7995352,105.727287 C20.2246056,108.455819 20.5681268,111.202316 21.4664366,113.832571 C23.4468592,118.386747 23.7521408,123.382434 25.9761549,127.922238 C27.5302394,131.271295 29.8117183,133.959882 32.6331972,136.301854 C33.825169,137.34677 35.4622817,138.480453 35.7126338,140.115459 C35.6378451,142.579804 37.5069296,146.14169 40.4589718,144.984336 C42.5541127,145.772461 44.8041127,145.977471 47.0234789,145.961408 C84.6335493,144.334856 122.322423,144.197267 159.933761,146.015937 C161.252704,146.07744 162.505099,144.811874 162.450169,143.498121 C161.850803,129.175757 160.370028,114.894183 158.04038,100.749776 C152.842352,71.4602184 147.289394,38.6994434 121.824887,19.89751 L121.824887,19.89751 Z" id="ðŸŽ¨-Background" fill="#FFFFFF"></path>
                        <path d="M81.5871947,5.34583051 L81.7278803,4.95789746 C82.5795,2.60345519 83.6229507,2.42803444 83.1201338,4.71061761 L83.0440815,5.05450411 C82.6086191,7.00746367 82.0876338,9.02565088 81.0203451,10.734101 C79.1802042,13.6805354 74.3588662,14.7730051 71.1435845,15.8210912 C71.1539366,15.8952751 71.1539366,15.9694591 71.1454859,16.0392047 C73.1102746,16.3393221 75.1278803,17.2859601 76.7736549,18.3471499 C78.279993,19.3212634 79.6405563,20.4139444 80.6546408,21.8659209 L85.6154155,19.7101479 C87.2527394,19.000011 88.9025282,18.1546098 90.6814014,17.8692869 C93.1891479,17.4677213 97.0553451,18.8119092 96.7597817,21.9760344 C96.7215423,22.4027507 96.4532324,22.7197761 96.1238662,22.8761753 C96.3750634,22.8552517 96.6287958,22.8484885 96.879993,22.8571538 C98.5574577,22.9142184 100.92788,24.400011 100.051331,26.3592282 C99.8271761,26.864144 99.1809085,26.5325354 99.129993,26.1098348 C98.7983028,23.3307898 95.9271761,23.9838622 93.9351338,24.438054 C92.1328099,24.8480736 90.3520352,25.3510873 88.6090775,25.9659053 C86.7454859,26.623416 84.9433732,27.4603632 83.2806972,28.5361362 C81.5654155,29.6476274 79.9618944,30.9962536 80.0675282,33.2154317 C80.0715423,33.2619288 79.9978099,33.2851773 79.9764718,33.2405824 C79.0912606,31.3513221 80.8152042,29.3582888 82.2161197,28.2698348 C84.2440775,26.6954865 86.6189366,25.5624376 89.0187254,24.6789933 C90.2526791,24.225647 91.5248873,23.8688855 92.8016887,23.5528668 L93.0964014,23.4806372 C93.8464014,23.2988759 94.6236549,23.0896391 95.4053451,22.962829 C95.1165698,22.8920726 94.8643275,22.682282 94.7521574,22.3031232 L94.7377394,22.2503671 C93.6095704,17.7805198 87.5630915,21.3757996 85.1147113,22.4555883 C83.3630915,23.2270168 81.5905563,23.9667429 79.8583732,24.7846685 L79.6351607,24.8910901 C78.2921681,25.5357782 76.8925208,26.2975139 75.9898521,27.5110873 C73.6743592,30.6179366 75.7532324,34.8132399 76.4842183,38.0933965 C76.6933732,39.0339053 76.8940775,40.0314787 76.9067535,40.9975609 C76.9169611,41.7882557 76.6746026,42.5338047 76.4784102,43.2945886 L76.364007,43.7427898 L76.364007,43.7427898 C76.4652042,43.7451147 76.5687254,43.8507898 76.5349225,43.9583671 C75.7133028,46.6425159 74.3229507,49.1873847 72.9687254,51.6348211 C71.5870352,54.1327703 70.1652042,56.6184611 68.6398521,59.0297566 C63.2145,67.6063515 57.0032324,75.7031812 50.1898521,83.2209112 C46.9236549,86.824645 43.3912606,90.1870168 40.2032324,93.8621871 C38.7201338,95.5722223 37.3323169,97.3644728 36.1743592,99.3173495 C35.549007,100.371987 34.9870352,101.466782 34.5137958,102.601733 L34.4203821,102.826443 C34.0324302,103.753888 33.6511197,104.571674 32.9292887,105.313357 C32.5703451,105.68322 31.8518239,105.526821 31.7377394,104.998445 C31.2074577,102.512966 32.9654155,99.8288172 34.2414718,97.7998544 C35.6187254,95.6102654 37.2285845,93.5686215 38.9398521,91.6305393 C39.4236549,91.0810286 39.9159085,90.5401832 40.4145,90.0050442 C38.1837254,90.6181714 35.8342183,90.7806998 33.5609789,91.1824767 C31.2328099,91.5924963 28.9194296,92.0807155 26.6633028,92.7908524 C24.5905563,93.4418114 22.6173169,94.302007 20.7309085,95.3798935 C19.8264718,95.8977018 18.9414718,96.4662341 18.1133028,97.1023984 C18.0349225,97.1615765 17.9588662,97.2249816 17.8828099,97.2864845 C19.2349225,100.684997 20.2743592,104.210109 21.3602746,107.695486 C22.1016429,110.078189 22.8263166,112.467103 23.5462402,114.857614 L25.1630915,120.237013 C26.3295,124.115079 27.3011197,128.333631 29.3569648,131.861279 C30.2442887,133.38279 31.4440775,134.758469 32.8173169,135.861929 C33.4830211,136.398759 34.207669,136.806665 34.9595704,137.20189 C35.4328099,137.451283 35.8511197,137.774649 36.2905563,138.070328 C36.5798421,137.740372 37.0186236,137.535995 37.5570807,137.622255 L37.6173169,137.633044 C39.3180211,137.966978 41.0717535,137.364629 42.5842183,136.620676 C44.1602746,135.842907 45.7302042,134.929874 47.0630915,133.78034 C49.6849225,131.516567 51.8588662,128.69504 53.9780915,125.972849 C61.5328099,116.259189 67.9661197,105.619815 73.2095704,94.4901088 C75.8736549,88.8301479 78.3604859,83.0750795 80.6968944,77.271189 C81.8654155,74.3718857 83.0166127,71.4658192 84.1384437,68.5468603 L84.2865155,68.1566506 C85.2915535,65.4784186 86.1714767,62.5709061 87.7870352,60.2090912 C87.7997113,60.1877448 87.8168239,60.1710481 87.8356268,60.1585785 C87.8398521,60.090735 87.8611901,60.0273299 87.894993,59.9723789 C88.3956972,59.1713613 89.3546408,58.9365511 90.1851338,58.5647859 C91.120838,58.1439875 92.0546408,57.7257252 92.9884437,57.307463 C93.7238662,56.9775452 94.8011197,56.6985628 95.3525282,56.0731773 C95.9778803,55.3693808 96.1872465,54.1158622 96.4912606,53.245099 C97.1802042,51.2774278 97.9257676,49.3330051 98.6715423,47.3864689 C99.3264718,45.676645 99.8928803,43.8421245 100.811683,42.2487546 C101.596179,40.8894037 102.717236,40.1725366 104.013232,39.3896399 L104.294537,39.2198048 C104.836077,38.889553 105.413725,38.4939053 105.628585,37.8757057 C105.979289,36.8654513 105.199711,35.8993691 104.371542,35.4177018 C102.531401,34.3501714 100.32788,35.5823436 98.714007,36.5232751 C97.0912606,37.4699131 95.5090775,38.6069777 93.7743592,39.3405746 C93.736331,39.3551577 93.7088662,39.2980932 93.736331,39.2727311 C95.1306972,37.9948747 96.8348692,36.9421252 98.4362526,35.9033668 L98.8342183,35.6438466 C99.8968944,34.9482928 101.107669,34.2700697 102.387739,34.0819679 C102.121754,33.9932008 102.203937,33.6486998 102.457458,33.6172086 C104.975768,33.310328 107.532317,33.7036509 110.025275,33.1160971 C112.249711,32.5919483 114.191261,31.3344141 115.74619,29.6795413 C117.212387,28.1197761 118.374359,26.3148446 119.458162,24.4763084 C120.087951,23.4066646 120.702739,22.3287781 121.340556,21.2633613 C121.435627,21.1029464 121.530908,20.9254121 121.628092,20.7349855 C120.487035,20.4707977 119.325063,19.6213808 118.549711,18.9619679 C117.345486,17.9390325 116.466613,16.5568016 115.854148,15.1153926 C114.417528,11.7316744 114.531401,7.86185049 115.606965,4.39993268 C115.672246,4.18858239 115.985134,4.17801487 116.046401,4.39993268 C116.872246,7.3651773 116.94619,10.5800266 118.243373,13.4076822 C118.763092,14.5405198 119.487951,15.5592282 120.379289,16.4257644 C120.831401,16.8632595 121.287739,17.2307977 121.841261,17.5353534 C122.434923,17.8629464 123.068725,17.9705237 123.539852,18.4906568 C123.567317,18.5202458 123.592669,18.5498348 123.615908,18.5815374 C123.891965,18.5442552 124.129557,18.5839308 124.319582,18.7027981 L124.35957,18.7294826 L124.368021,18.7170129 C123.516613,18.1357996 122.660979,17.5607155 121.754641,17.0534748 C121.514007,16.9182106 121.689359,16.5948446 121.929993,16.6371147 L122.526299,16.7426167 C124.51858,17.0977186 126.548495,17.5015374 128.367317,18.3870951 C130.385134,19.3719875 132.311683,20.5090521 134.149711,21.7961753 C137.770838,24.3279405 141.066613,27.3187585 143.950415,30.6644337 C149.270134,36.8379757 153.030697,44.260598 155.356754,52.0425159 C158.263796,61.7667429 159.387739,71.9813025 160.615415,82.0265706 C161.202018,86.8353358 161.728439,91.652803 162.196308,96.4758792 L162.322458,97.7914004 C162.556754,100.272653 162.810275,102.749678 163.049007,105.22459 C163.471542,105.88823 163.501331,106.676567 163.251824,107.361553 C163.435627,109.367056 163.600627,111.374884 163.731613,113.389052 C164.065415,118.586156 164.280697,123.800168 164.373866,129.009952 C164.466613,134.29371 164.274359,139.569013 164.213092,144.85277 C164.187951,147.076387 160.820134,147.067721 160.767317,144.85277 C160.632317,139.015275 160.213796,133.175667 159.915908,127.342398 C159.624359,121.648622 159.353937,115.957169 159.005556,110.26762 C158.971542,109.726351 158.939852,109.183181 158.910275,108.642124 C158.419029,108.829413 157.810593,108.90685 157.294339,109.009249 L157.167317,109.035447 C156.129289,109.256115 155.089485,109.414802 154.035051,109.511347 L153.693524,109.540128 C152.736974,109.606218 147.833514,109.711553 144.934923,109.183181 C145.165204,112.90506 145.397599,116.626939 145.653232,120.346704 C145.944782,124.588504 145.999711,128.836645 146.213303,133.082672 C146.320838,135.204629 146.449711,137.311792 146.720134,139.421068 C146.843454,140.381202 146.969568,141.342734 147.120294,142.299407 L147.19781,142.77731 C147.333021,143.599463 147.501824,144.303259 147.153232,145.036645 C147.457458,145.977154 146.984218,147.162829 145.737951,147.067721 C137.747599,146.4696 129.738444,146.21598 121.727176,146.180261 C107.895963,146.114607 94.072862,146.668883 80.2477251,147.049309 L76.5114141,147.150505 C63.5614644,147.504904 50.5475885,147.883352 37.657669,146.450578 C37.629993,148.101224 34.5454859,148.082414 34.7102746,146.241342 L34.7507368,145.797459 C34.9363001,143.794272 35.1769356,141.71932 35.7983028,139.790931 C35.2828099,139.805725 34.7652042,139.784802 34.2792887,139.623964 C33.5886549,139.398031 32.9250634,138.9878 32.3250634,138.582007 C30.9898521,137.681655 29.8616831,136.572066 28.8879507,135.291283 C26.9757676,132.778328 25.7060493,129.800614 24.7025282,126.826704 C23.6355211,123.657204 22.659232,120.451257 21.7471037,117.234246 L20.7654252,113.750126 C19.5192573,109.318991 18.2956207,104.820488 17.5532324,100.272653 C17.473162,100.378328 17.3630915,100.469209 17.2175282,100.534727 C13.2454859,102.31007 9.84830282,98.6685041 9.17647183,94.986782 C8.78094973,92.8155586 8.87331106,90.5933055 8.90695951,88.3955447 L8.91027465,88.1601675 C8.94407746,85.6284023 8.95464085,83.0962145 9.08372535,80.5663515 C9.51027465,72.1081127 11.4814014,63.9121597 14.5468944,56.0328094 C17.4349225,48.6163162 20.9250634,41.1410677 25.4210493,34.5532791 C27.5567535,31.4252947 30.0201338,28.4198935 32.9884437,26.0422027 C36.1194296,23.5377018 39.6393592,21.6332243 43.3259789,20.0821245 C47.0928803,18.4969973 50.999007,17.24369 54.9097817,16.0601284 C59.2238662,14.7541949 63.5886549,13.6317135 68.0273873,12.8433769 C68.3504155,12.7863123 68.6673169,12.88142 68.8471056,13.1773104 C69.0032324,13.4372712 69.149007,13.7035726 69.2905563,13.974101 C69.8968944,13.5936705 70.8285845,13.5006763 71.4351338,13.3146881 C73.3384437,12.7250207 76.7630915,12.3720658 78.2717535,11.0278779 C79.9917969,9.4963605 80.8187063,7.45438838 81.5871947,5.34583051 Z M17.2130915,97.8759405 C16.944993,98.1211068 16.6764718,98.3662732 16.3999225,98.596645 C16.7609789,98.4444728 17.0884437,98.5459209 17.3292887,98.7699523 C17.2872465,98.4719483 17.249007,98.1739444 17.2130915,97.8759405 Z M104.534218,40.716465 C104.124359,40.969874 103.718725,41.2234943 103.349007,41.5278387 C102.020926,42.6267282 101.57194,44.4206583 101.018499,45.9850189 L100.983021,46.0845511 C100.302528,47.9782497 99.6159085,49.8761753 98.8954859,51.7550795 C98.6696408,52.3447468 98.4583732,52.9766841 98.2321056,53.6128485 C101.278585,56.5419523 104.39288,59.4397761 107.652528,62.1302654 C113.618725,67.0526137 120.11943,71.3282301 127.02788,74.811283 C130.5795,76.6035335 134.246894,78.2351577 138.020134,79.501146 C139.383021,79.9576626 140.770838,80.3592282 142.180204,80.6572321 L142.182317,80.6358857 L142.182317,80.6358857 C142.188444,80.585373 142.271049,80.5621245 142.2795,80.623416 L142.287951,80.6804806 L142.287951,80.6804806 C142.891965,80.8051773 143.500627,80.9108524 144.11119,80.9932791 C145.268725,81.1475648 146.439148,81.217099 147.607458,81.2069542 C148.332106,81.2004023 149.050415,81.1114239 149.7645,81.1475648 C146.602035,78.2964493 143.422246,75.4664689 140.234218,72.6491695 C134.191965,67.3062341 128.11612,62.0055687 122.029289,56.7133573 C119.326941,54.3631421 116.594547,52.0413156 113.903476,49.6751432 L111.311957,47.3853078 C109.021678,45.3591971 106.745682,43.3007882 104.761814,40.9848449 L104.534218,40.716465 Z M77.5278592,56.4238708 C77.3440563,56.197726 77.6231408,55.9102896 77.8491972,56.1026184 C79.1991972,57.2458121 80.724338,57.7469237 82.3447606,58.361953 C82.7229296,58.5056712 82.6935634,59.1080196 82.2456761,59.1016791 C80.3630704,59.067863 78.6665915,57.8504853 77.5278592,56.4238708 Z M96.4406831,28.2718215 L96.5756702,28.2178703 C98.4792578,27.4711657 100.948888,27.0999136 102.447021,28.8321112 C103.532937,30.0896454 103.809486,32.4694497 102.394204,33.5663577 C102.054063,33.8305456 101.33343,33.6044008 101.549134,33.0739115 C102.170049,31.5585299 102.301246,29.5737393 100.347021,28.9906239 C98.6519264,28.4843452 96.6690898,29.4719155 95.1254825,30.1588789 L94.6838758,30.3538895 C91.6732053,31.6909031 88.6832204,33.3110907 86.8385704,36.1425065 C86.7899789,36.2143656 86.6608944,36.1680798 86.6927958,36.0812149 C88.1651197,32.0023656 92.6737817,29.8062247 96.4406831,28.2718215 Z M74.1372465,19.5368407 L73.4053715,19.2599615 C71.54406,18.5648356 69.2262887,17.858973 68.0717535,19.8602067 C67.6390958,20.6082029 67.2667465,21.534101 67.1057619,22.3955979 L67.0851338,22.5126528 C67.0407676,22.7787429 66.9835141,23.0642771 67.1738662,23.2692869 C67.4673169,23.5905393 68.4222465,23.7467272 68.8067535,23.8864297 L71.2246408,24.7647076 L71.2246408,24.7647076 L72.4321056,25.2052556 C72.9814014,25.4060384 73.6912606,25.6068211 74.0968944,26.0485432 C75.5166127,24.1844337 77.7750634,23.1234552 79.9067535,22.1914004 C77.986331,21.2973886 76.1252746,20.2852321 74.1372465,19.5368407 Z" id="ðŸ–-Ink" fill="#000000"></path>
                    </g>
                    <g id="head/Bun" transform="translate(78.591549, 38.043053)" fill-rule="evenodd">
                        <path d="M31.5816549,13.4983624 C63.6034693,11.9230137 85.3303856,37.1862439 86.2650622,47.2604358 C86.9138737,54.2534984 86.4735714,63.5798475 86.4735714,69.8287286 C86.4735714,73.0183935 88.0824383,82.7137735 86.2650622,87.362702 C82.2199911,97.7101722 77.6499664,105.815241 64.9872084,105.815241 C52.3244503,105.815241 33.0205532,99.2495806 26.391941,90.7814249 C25.1816707,89.2352857 10.1426284,77.9174 10.1426284,69.0211488 C10.1426284,50.0407527 8.73273411,14.6224405 31.5816549,13.4983624 Z" id="ðŸŽ¨-Background" fill="#FFFFFF"></path>
                        <path d="M9.73643662,-7.00150685 C11.5613662,-7.57215264 12.7260845,-6.75063405 13.557,-5.47788258 C13.740169,-5.51360078 13.9174225,-5.51127593 14.1147465,-5.46372211 C14.1635493,-5.4518865 14.2816479,-5.40729159 14.3710141,-5.37220744 C14.4400986,-5.34325245 14.5024225,-5.3081683 14.5624225,-5.27097065 L14.5981268,-5.28978082 L14.5981268,-5.28978082 C14.7350282,-5.43920548 14.8789014,-5.57552642 15.0341831,-5.68542857 C15.3831972,-5.93228571 15.7427746,-6.00414481 16.0839718,-5.95342074 L16.242,-6.01154207 L16.242,-6.01154207 C17.5928451,-6.48243053 19.0573521,-6.26389432 19.9731972,-5.09977691 C20.1504507,-4.8749002 20.2936901,-4.6244501 20.4160141,-4.36026223 C20.690662,-4.27022701 20.9484085,-4.14003523 21.1704507,-3.9798317 C21.3263662,-4.05317025 21.4911549,-4.11488454 21.6675634,-4.16032485 C22.6641127,-4.41605871 23.7111549,-4.17469667 24.5232676,-3.56347162 C24.9187606,-3.26610176 25.2096761,-2.89370254 25.4302394,-2.46846575 C25.6814366,-2.40949902 25.9296761,-2.30340117 26.1622817,-2.16095108 C26.3621408,-2.26049706 26.565169,-2.35391389 26.7732676,-2.41795303 C27.5340423,-2.65170646 28.350169,-2.73772603 29.142,-2.6787593 C30.8482859,-2.55217104 32.4984577,-0.602504715 31.358117,1.07172788 L31.3227042,1.12237573 C31.1779859,1.32421526 31.0520704,1.532818 30.9354507,1.74480235 C31.343831,1.92254795 31.7372113,2.16031703 32.1005915,2.45832094 C33.8780178,3.91563043 34.0380087,6.16223654 33.7055702,8.28155964 L33.6914366,8.36978865 L33.695662,8.36978865 C34.6400607,8.45947921 35.4554246,9.44620985 34.8974744,10.3743147 L34.8703099,10.417773 C34.1150282,11.5850607 33.4677042,12.8745088 32.7462254,14.1028767 C30.7495352,14.8229472 28.8242535,15.709773 27.0113662,16.7842779 C25.8821408,17.77382 24.807,18.8200039 23.8611549,19.98391 C23.3889718,20.5651233 22.9552394,21.180364 22.5565775,21.8182192 C22.8753803,21.9714481 23.2696056,21.9636282 23.6025634,21.6550568 C26.5643239,18.9094051 30.1425634,16.9825245 33.9525634,15.6911742 C34.227,15.5979687 34.407,15.4225479 34.5079859,15.215002 C36.1993944,14.7329119 37.9205915,14.3590333 39.6589014,14.0944227 C40.1380563,13.6376947 40.6400282,13.201045 41.1170704,12.7462192 C41.7261549,12.1658513 42.4890423,12.1743053 43.0590423,12.5388845 C43.3421408,12.4097847 43.6316948,12.2958023 43.9256258,12.1933904 L44.1079859,12.1311898 C44.1840423,12.1062505 44.2567183,12.0772955 44.331507,12.0544697 C46.371326,11.4306887 48.2365977,11.6622902 50.2429646,12.1748155 L50.4998873,12.241726 C51.4351766,12.4899569 52.0237377,12.4502811 52.9295248,12.2218093 L53.031507,12.1956517 C53.993831,11.9445675 55.0231268,11.7585793 56.0067887,12.0229785 C57.0360027,12.299711 57.7187686,12.9151098 58.4198459,13.6586618 L58.4900282,13.7334364 C58.8171249,14.0835279 59.0061604,14.1217078 59.434429,14.1131954 L59.8930801,14.0995976 C61.624269,14.0521249 63.3194696,14.1251473 64.6161549,15.4646067 C65.0954306,15.9599715 65.6097738,16.6610314 65.9184658,17.3008657 L65.9631972,17.3963483 C65.9775634,17.4274168 65.9902394,17.4534129 66.0020704,17.4766614 C66.1879859,17.4466497 66.4774225,17.3289276 66.615169,17.3020861 C68.5017887,16.9360274 70.0759437,17.5001213 71.2875634,18.9873933 C71.552493,19.3128728 71.9528451,19.9519961 72.2302394,20.3032603 C72.3274225,20.3856869 72.4191127,20.4740313 72.5059437,20.5668141 C72.9608028,20.8574207 73.6053803,20.8390333 74.1153803,20.9409041 C75.5053099,21.217773 76.9909437,21.7465714 77.6976338,23.0698356 C77.9929859,23.6220939 78.1022113,24.2263444 78.2268592,24.8299609 C78.6941831,25.1370528 79.0603099,25.5796204 79.3446761,26.0587515 C79.6903099,26.6403875 79.8373521,27.3528493 80.2353803,27.9021487 C80.5243944,28.3011781 80.9661549,28.5142192 81.3863662,28.7581174 L81.5467909,28.8524162 C82.7921255,29.5942237 83.7671233,30.4174614 84.1771609,31.8708802 L84.2126764,32.0001863 C84.279158,32.2228095 84.5126318,32.8582346 84.3092535,32.7627828 C84.4843944,32.8593699 84.7818592,32.8933973 84.9415775,32.9462348 C85.8054507,33.2321918 86.556507,33.6942035 87.0166479,34.5055773 C87.3667375,35.123114 87.4303902,35.7668407 87.5306349,36.4476028 L87.573338,36.7224569 C87.5842315,36.7889332 87.5972641,36.8661834 87.61072,36.9410893 L87.6242535,37.014728 L87.6267887,37.0164188 C87.783338,37.0840509 87.9369296,37.1573894 88.0879859,37.2364344 C88.8039718,37.6580783 89.2934789,38.3899843 89.2934789,39.2372877 C89.2934789,39.6485753 89.1650282,39.9689824 88.9780563,40.2549393 C89.1293239,40.4840431 89.2463662,40.7281526 89.3348873,41.0001605 C89.5085493,41.5312838 89.5205915,42.1120744 89.4622817,42.6615851 C89.3921408,43.320998 89.2229155,43.9214442 89.0236901,44.5512681 C88.947,44.7943209 88.9159437,45.1339609 88.8003803,45.3660235 C89.0135493,45.6380313 89.1407324,45.9704853 89.1012254,46.298501 C89.0448169,46.7676986 88.8308028,47.3161526 88.4059437,47.5792838 C88.1982676,48.6043327 87.7512254,49.6517847 87.3111549,50.4897886 C87.2604507,50.5870098 87.1991831,50.6736634 87.1315775,50.7455225 C87.1928451,54.0911977 86.9477746,57.4603327 86.9308732,60.8015695 C86.9118592,64.438908 86.9879155,68.0785714 87.1146761,71.7114716 C87.3280563,77.7328415 88.0907324,83.9592211 86.3139718,89.8307436 C84.8604507,94.636638 81.9489718,98.7621957 78.0449577,101.89018 C74.0477746,105.090023 69.2289718,106.941663 64.1118592,107.231213 C61.5090423,107.376834 58.8618592,107.080943 56.3435493,106.406736 L56.0744894,106.333767 C53.6380197,105.664144 50.8158833,104.641131 49.0231268,102.84971 C48.0766479,101.902861 49.0336901,99.8973581 50.4217183,100.448771 C51.7970704,100.99638 53.0310845,101.80564 54.395662,102.376286 C55.6146761,102.88564 56.8867183,103.276638 58.1752394,103.564074 C60.7590423,104.145288 63.4991831,104.272309 66.1252394,103.910689 C75.6069296,102.612998 82.9949577,94.736184 84.4527042,85.3964031 C84.8561525,82.8099128 84.8486413,80.1809514 84.8214547,77.5673967 L84.7914038,74.7037176 C84.7683337,72.3080564 84.7597968,69.9109785 84.8477746,67.5163796 C84.9597465,64.4348924 85.1773521,61.3553072 85.4689014,58.2867123 L85.6207822,56.6899733 C85.8010871,54.821606 86.0041127,52.9391037 86.3541127,51.096364 C86.0674225,51.1113699 83.8053803,47.2402779 82.5500282,45.0771076 C82.0917887,44.7135851 81.7049577,44.2619295 81.5555915,43.677546 C81.5245352,43.5555969 81.5084789,43.432591 81.4987606,43.3093738 C81.2262254,42.8809667 80.9386901,42.4635499 80.6353099,42.0586027 L80.5690987,42.028994 C80.5181728,42.0057393 80.4785493,41.9863511 80.4553099,41.9732172 C79.7931972,41.5976477 79.2403099,41.0286928 78.8619296,40.3692798 C78.7343239,40.1469393 78.6297465,39.9148767 78.5448169,39.6775303 C78.0050282,39.1476751 77.4403099,38.6421252 76.8470704,38.1680665 C76.7887606,38.1215695 76.7285493,38.0780313 76.6698169,38.0321683 C75.9145352,37.750227 75.2515775,37.3254129 74.7681972,36.7135538 C74.5662254,36.5884344 74.3627746,36.4658513 74.1576338,36.3458043 C73.542,36.3400978 72.9200282,36.196591 72.3149577,35.9478317 C71.2079155,35.4930059 70.3237606,34.5941331 69.2116479,34.1775616 C68.0355211,33.737319 66.7964366,34.7378513 65.5467887,34.5573581 C65.2277746,34.5112838 64.911507,34.414274 64.6174225,34.2735147 C63.9136901,35.0191585 63.1668592,35.7221096 62.3435493,36.3373503 C61.1484085,37.2305166 59.9264366,37.6386341 58.5411549,38.0421018 C57.8547465,38.6936947 57.0861549,39.3254207 56.1593239,39.4182035 C54.0143239,41.1335225 51.720169,42.5804266 49.3062254,43.9237691 C48.9179155,44.1397691 48.5319296,44.2372016 48.1655915,44.2397378 C47.4084085,44.7152759 46.5819296,45.0811233 45.7087606,45.3343209 C45.435169,45.4135773 45.1531268,45.430274 44.8757324,45.3962466 L44.1181268,46.0136008 L44.1181268,46.0136008 C43.5908028,46.4430646 43.0284085,46.6482857 42.4903099,46.6616008 C42.1628451,46.9124736 41.8235493,47.14982 41.4743239,47.3780783 C41.100169,47.6230333 40.6148873,47.7244814 40.1272817,47.6948924 C39.3825634,48.4236282 38.4168592,48.500137 37.6081268,48.1645127 C37.497,48.2296086 37.3827042,48.2913229 37.2542535,48.3519804 C37.0797465,48.4346184 36.8976338,48.504364 36.7119296,48.5607945 C35.8685493,49.4700235 34.6341127,49.9468297 33.3971408,49.8221331 C32.4734789,50.3881292 31.398338,50.6825401 30.3472817,50.6163875 C30.1869296,51.4220548 30.0542535,52.230681 29.9420704,53.0420548 L29.9305872,53.6364193 C29.9293673,53.7327358 29.9291646,53.807816 29.9304441,53.8572738 L29.9310845,53.8768885 C30.0339718,56.4826262 30.090169,59.0896321 30.1917887,61.6957926 L30.2011169,61.9014875 C30.3167826,64.1783433 30.8767711,68.329607 27.5312958,68.2391977 C26.2846056,68.2055065 25.0477329,67.2871336 24.0770061,66.5320366 L23.940169,66.4253894 C23.8658028,66.3674795 23.7895352,66.30809 23.7128451,66.2476438 C22.9873521,66.1533816 22.272,65.9769041 21.5393239,65.9500626 C20.6350986,65.9183601 19.6843944,66.0113542 18.8034085,66.216364 C17.2484789,66.577773 15.7442535,67.2860078 14.730169,68.5686928 C14.6414366,68.6807084 14.5590423,68.7990646 14.4808732,68.9174207 C14.4090423,69.1604736 14.286507,69.3845049 14.123831,69.5789472 C13.1646761,71.7368337 13.7184085,74.5881605 14.7787606,76.5619609 C16.0422101,78.9131463 18.0414909,80.5386407 20.5554516,81.3573907 L20.6815775,81.3976556 C22.3991831,81.9344853 23.0562254,82.9743288 23.9900282,84.4199648 C24.8646761,85.7768337 25.8681972,87.0407084 26.945662,88.2411781 C29.0308732,90.5639178 31.9571408,92.4810763 33.1696056,95.4207476 C33.4146761,96.0127397 32.7132676,96.5704932 32.1703099,96.4185323 C30.0428451,95.820411 28.5512958,94.3050294 27.0048169,92.7981018 C25.9345352,91.754454 24.9052394,90.6689589 23.9395352,89.5287241 C23.7369296,89.6223523 23.5140423,89.6853346 23.2818592,89.7136556 C22.2572113,89.838775 21.2004507,89.7867828 20.3034085,89.2343131 C19.8899577,89.2719335 19.4591831,89.1284266 19.1393239,88.8352838 C18.8458732,88.5656008 18.5927746,88.2739374 18.3789718,87.9634638 C18.0540423,87.9919961 17.7350282,88.0006614 17.4305915,87.9501487 C17.2837606,87.936411 17.1415775,87.8977339 17.0112254,87.8343288 C16.7691127,87.7385871 16.5394648,87.5910646 16.3286197,87.3647084 C15.9014366,86.9060783 15.7377042,86.2580783 15.816507,85.6422035 C15.732,85.6244501 15.6481268,85.602681 15.5653099,85.5745714 C14.9965775,85.3820313 14.558831,84.9996986 14.2791127,84.4793542 C13.7786197,84.1984697 13.3279859,83.8176164 12.9867887,83.413092 C12.5712254,82.9208571 12.2577042,82.3660626 12.0734789,81.7533581 C11.8831268,81.6648023 11.6982676,81.5622975 11.5212254,81.4422505 C10.2525634,80.5835342 9.52622535,78.9713542 10.0243944,77.4807006 L10.0413192,77.4338758 C10.0665954,77.3667228 10.1124117,77.2523935 10.1684789,77.1233072 C10.1604507,77.0182661 10.152,76.913225 10.1462958,76.8079726 L10.1287606,76.4905245 L10.1287606,76.4905245 L9.87460563,76.3825245 L9.87460563,76.3825245 C8.607,75.8782427 7.75009859,75.1974834 7.59777465,73.7706575 C7.56608451,73.4756125 7.68059155,73.1746497 7.86122535,72.9231429 L7.86038028,72.8440978 L7.86038028,72.8440978 C7.77798592,72.8014051 7.69960563,72.7576556 7.63052113,72.7136947 C6.93946479,72.272184 6.5148169,71.4808885 6.56235211,70.6625401 C6.60601894,69.9165683 7.01906319,69.3219228 7.48349809,68.771998 L7.61618134,68.6177524 C7.62719366,68.6052564 7.6395,68.5913072 7.65270423,68.5763014 L7.3456698,68.4796438 C7.14648357,68.4162387 6.96404225,68.3531155 6.83277465,68.2795656 C6.32488732,67.9948767 5.89432394,67.6100078 5.62876056,67.1209432 C5.59009859,67.0602857 5.55080282,67.0006849 5.51530986,66.9360117 C5.17242254,66.3102035 5.1276338,65.5083405 5.34883099,64.8364579 C5.37502817,64.7572016 5.40883099,64.6825949 5.44347887,64.608411 C4.50967606,64.2791272 3.79073239,63.5985793 3.70411268,62.3444266 C3.67009859,61.851135 3.77805634,61.3597456 4.01277465,60.9389472 C3.96080282,60.6555264 3.95002817,60.3617495 3.98361972,60.0711429 C3.65509859,59.7606693 3.39988732,59.3865793 3.28580282,58.930274 C3.07009859,58.0681761 3.46495775,57.2479256 4.05185915,56.4957299 C3.83467606,55.9009902 3.82347887,55.229953 4.07150704,54.6311977 C3.97601408,54.3323483 3.92171831,54.0163796 3.91876056,53.6919569 C3.91221127,52.9735773 4.13340845,52.3735538 4.49066197,51.8631429 C3.98847887,51.2489589 3.74995775,50.4327241 4.04657746,49.6678474 C4.2576338,49.1242544 4.49890141,48.6269472 4.77692958,48.1662035 C4.63094366,47.8157847 4.54601408,47.4233072 4.54601408,46.98391 C4.54601408,46.1934599 4.84221127,45.567229 5.29538028,45.0547045 C5.09869014,44.1186341 5.49861972,42.9786106 6.37030986,42.5664775 C6.69883099,42.4109237 7.13869014,42.2486067 7.62333803,42.1222192 C7.80523944,41.5536869 7.99516901,40.9874795 8.19566197,40.4252877 C8.51150704,39.540364 8.85122535,38.6676986 9.21122535,37.8051781 C9.00397183,37.986728 8.78657746,38.1560196 8.56178873,38.3094599 C7.85087324,39.2136164 6.90840845,39.9968806 6.1163662,40.4654442 C4.54622535,41.3945401 2.7504507,40.8433386 1.97530986,39.2888571 C1.24685915,39.8328728 0.372633803,40.1549706 -0.560112676,40.0448571 C-1.61771831,39.9199491 -2.58469014,39.2347515 -2.84877465,38.165953 C-2.88701408,38.0112446 -2.91004225,37.8440665 -2.9123662,37.6758317 C-3.51891549,38.1078317 -4.15356338,38.5053816 -4.84969014,38.7330059 C-5.73638028,39.0229785 -6.6414507,38.3274247 -6.75849296,37.4608885 C-6.80476056,37.1174442 -6.74053521,36.8139452 -6.60384507,36.5575773 L-6.69043349,36.5234951 C-6.70480751,36.5174912 -6.71912676,36.5112211 -6.73335211,36.5045284 C-7.19835211,36.2866262 -7.55940845,35.8871742 -7.73095775,35.4264305 C-8.73785915,35.8161605 -9.89053521,35.3594325 -10.2099718,34.2517456 C-10.5902535,32.9350333 -10.6132817,31.6014129 -10.3156056,30.318728 C-11.382507,29.5430724 -12.0775775,28.2390411 -12.1958873,26.8758317 C-12.2822958,25.8972798 -12.0488451,24.9939687 -11.637507,24.1587123 C-12.6465211,23.7812407 -12.9934225,22.4581879 -12.5138451,21.504998 C-13.1508169,21.1402074 -13.566169,20.3668767 -13.5754648,19.614047 C-13.8600423,19.1828924 -13.9510986,18.6276751 -13.7151127,18.0054599 C-13.4039155,17.1856321 -12.7701127,16.4998004 -12.0444085,15.9619139 C-12.3608873,15.4107123 -12.5960282,14.8096321 -12.7420141,14.1884736 C-13.3432817,14.0124188 -13.8285634,13.5258904 -13.9274366,12.7952524 C-14.0512394,11.8792603 -13.448493,11.1027593 -12.6372254,10.8977495 C-12.5472254,10.6187671 -12.4373662,10.3459139 -12.3015211,10.0838395 C-12.7029296,9.13276321 -12.6437746,7.93018004 -12.126169,6.89033659 C-11.6677183,5.97096282 -10.9219437,5.40877104 -10.0240563,5.0198865 C-10.2522254,4.23789041 -9.95011268,3.45800783 -9.1895493,2.87679452 C-8.26102817,2.16644618 -7.24271831,1.62348728 -6.17264789,1.2398865 C-6.26771831,-0.0330763209 -5.73574648,-1.33668493 -4.47849296,-1.78052055 C-4.1423662,-1.89908806 -3.79250704,-1.94283757 -3.43694366,-1.94135812 C-3.17877465,-2.50291585 -2.748,-2.95943249 -2.1858169,-3.36353425 C-1.33509507,-3.97475577 0.254726408,-3.60135159 0.726518373,-2.64282604 L0.749535211,-2.59358513 C0.773619718,-2.5392681 0.799605634,-2.48960078 0.824323944,-2.43697456 C0.919394366,-2.90236791 1.14164789,-3.34197652 1.49890141,-3.70232877 C2.39192958,-4.60331507 3.3348169,-4.62022309 4.24221127,-4.23493151 C4.40869014,-4.64790998 4.61023944,-5.04059883 4.85530986,-5.39968297 C5.74495775,-6.70244618 7.21474648,-6.86835616 8.29094366,-6.16286888 C8.72235211,-6.54224266 9.20383099,-6.83475147 9.73643662,-7.00150685 Z M16.0972183,71.3395162 C17.8885563,70.6378333 20.0625,70.8451679 21.8329225,71.519164 L21.9626727,71.5696227 C23.526413,72.1881462 26.066899,73.5638767 26.3730634,75.3234693 C26.5315141,76.2346004 25.6655282,77.0227256 24.7864437,76.5431718 C24.0216549,76.1266004 23.5927817,75.2875397 22.984331,74.6788509 C22.3824296,74.0767139 21.7082746,73.5927217 20.9732746,73.1676963 C19.4394718,72.2821386 17.8272887,71.9376376 16.0972183,71.6821151 C15.9028521,71.6546395 15.955669,71.3944673 16.0972183,71.3395162 Z" id="ðŸ–-Ink" fill="#000000"></path>
                    </g>
                    <g id="face/Smiling" transform="translate(112.183099, 77.354207)" fill="#000000" fill-rule="evenodd">
                        <path d="M30.968993,50.9198978 C29.548794,50.3403012 28.2816173,49.3734958 27.3551889,48.1384646 C27.0331038,47.7091169 26.9495926,47.2557326 27.017159,46.8410547 C27.0931327,46.3747786 27.3688808,45.9521824 27.7449394,45.6687178 C28.1221628,45.3843752 28.5940214,45.2441445 29.0502103,45.3156301 C29.4466117,45.3777469 29.8412104,45.5948709 30.1535058,46.0451781 L30.2187521,46.1352289 C30.7695298,46.8806513 31.4872438,47.4922614 32.3050288,47.8864795 C33.0932406,48.2664417 33.9747757,48.4437847 34.8870208,48.3406561 C36.6244504,48.1443157 37.8219743,47.2043274 39.0948115,45.9278391 C39.2525834,45.7666792 39.4104563,45.6004672 39.5690946,45.4315797 C39.6692778,45.278484 39.8083069,45.1800892 39.962667,45.1284632 C40.1340565,45.0711416 40.327938,45.0743848 40.5055187,45.1363808 C40.6767961,45.1961763 40.8299095,45.309486 40.9325762,45.4602937 C41.0301525,45.6036243 41.0854754,45.7806897 41.0675245,45.9843589 C40.9510195,47.3072301 40.2596776,48.4878363 39.2776553,49.4148615 C38.1869942,50.4444414 36.7412431,51.1567117 35.3801317,51.4065272 C33.8805866,51.6817086 32.3525901,51.4845569 30.968993,50.9198978 L30.968993,50.9198978 Z M36.0875289,30.5120405 C37.6828906,31.482148 40.1137318,33.7442494 38.3974899,36.149264 C36.3773089,38.2698449 33.4687045,35.8384541 32.0353946,34.7388307 C30.7063626,33.8866164 29.2131206,36.0784478 30.4461973,37.0735516 C40.8033244,44.7445605 45.006466,30.7657101 36.8944406,29.3714319 C36.0012775,29.2177885 35.6695544,30.2119271 36.0875289,30.5120405 Z M17.5274577,21.5886716 C17.7037243,19.3998697 21.0359789,18.9028321 21.3674577,21.0687499 C21.6642887,23.0089456 21.3148521,24.7912626 20.4412606,26.5380728 C19.6065423,28.2068947 17.5085456,27.4283107 17.3498837,25.9087021 C17.1372039,23.8717299 17.4178099,22.9502317 17.5274577,21.5886716 Z M42.8930282,20.6196517 C43.3576056,20.0109628 44.0283803,19.5954481 44.8320423,19.8302583 C47.3429577,20.5642779 46.6028873,24.1303914 45.7210563,25.8662114 C45.2419014,26.8088337 43.6930986,27.0478708 42.993169,26.2178982 C41.8523239,24.864411 41.3059859,22.1614521 42.756338,20.8282544 C42.7956338,20.7593542 42.8393662,20.68982 42.8930282,20.6196517 Z M20.4058944,12.0111429 L20.802522,11.9416942 C22.0295218,11.7294045 23.5551549,11.5254176 24.4231479,12.5122544 C24.8835,13.0355577 25.0419507,14.0081918 24.4231479,14.509092 C23.3346972,15.3904227 22.1313169,15.0488806 20.8269507,15.1234873 C19.7520211,15.1852016 18.7189225,15.3631585 17.6835,15.6592603 C15.4119507,16.3087397 13.5610352,17.4944149 11.6209648,18.7963327 C11.3663873,18.9671037 11.1065282,18.6414129 11.228007,18.4032211 C12.3479366,16.208771 14.5182887,14.4061644 16.6922324,13.3073542 C17.8525141,12.7208571 19.1222324,12.2343288 20.4058944,12.0111429 Z M40.6041287,11.0281289 L40.9077055,11.0902829 C44.2113469,11.7811043 48.5035506,13.1610768 50.0679842,16.4073021 C50.1275964,16.8663298 50.0646105,16.9647086 50.0133917,17.0289838 L49.9963385,17.0503723 C49.9541341,17.1052595 49.9204583,17.1809212 49.7215736,17.2433957 C49.6663832,17.2302408 49.6106433,17.216308 49.5543131,17.2015401 C48.8372041,17.0135386 48.2698321,16.7545401 47.720556,16.4857982 L47.1250012,16.192275 C46.4340388,15.8533498 45.7369757,15.5267598 44.9982488,15.2856588 C43.4217423,14.7712438 41.8001698,14.4088706 40.1534741,14.2153715 C39.7965654,14.1734678 39.4528848,14.0529641 39.1817455,13.8464404 C38.92438,13.6504079 38.7277692,13.3789964 38.6381257,13.0182314 C38.5219478,12.5513438 38.5553348,12.1978716 38.8057421,11.7766707 C38.9940329,11.4603578 39.263447,11.2411116 39.5728025,11.115213 C39.888177,10.9868648 40.2472278,10.9566068 40.6041287,11.0281289 Z" id="ðŸ–-Ink"></path>
                    </g>
                    <g id="facial-hair/*-None" transform="translate(104.577451, 109.479380)"></g>
                    <g id="accessories/*-None" transform="translate(88.521127, 88.978474)"></g>
                </g>
            </g>
        </g>
    </g>
</svg>